STARTFONT 2.1
COMMENT JIS X208 glyphs donated by T.Maebashi <maebashi@mcs.meitetsu.co.jp>
COMMENT Adapted and extended for ISO 10646-1 by Markus Kuhn <mkuhn@acm.org>
COMMENT This font was scaled down from a 14x14 source font
COMMENT Hangul glyphs prepared by Won-kyu Park <wkpark@chem.skku.ac.kr>
COMMENT from BAEKMUK font.
COMMENT $XFree86$
FONT -Misc-Fixed-Medium-R-Normal-ja-13-120-75-75-C-120-ISO10646-1
SIZE 12 75 75
FONTBOUNDINGBOX 12 13 0 -2
STARTPROPERTIES 22
FONTNAME_REGISTRY ""
FOUNDRY "Misc"
FAMILY_NAME "Fixed"
WEIGHT_NAME "Medium"
SLANT "R"
SETWIDTH_NAME "Normal"
ADD_STYLE_NAME "ja"
PIXEL_SIZE 13
POINT_SIZE 120
RESOLUTION_X 75
RESOLUTION_Y 75
SPACING "C"
AVERAGE_WIDTH 120
CHARSET_REGISTRY "ISO10646"
CHARSET_ENCODING "1"
DEFAULT_CHAR 0
FONT_DESCENT 2
FONT_ASCENT 11
COPYRIGHT "Public domain font.  Share and enjoy."
_XMBDFED_INFO "Edited with xmbdfed 4.3."
CAP_HEIGHT 9
X_HEIGHT 7
ENDPROPERTIES
CHARS 19192
STARTCHAR char0
ENCODING 0
SWIDTH 960 0
DWIDTH 12 0
BBX 12 13 0 -2
BITMAP
0000
0000
AAA0
0000
8020
0000
8020
0000
8020
0000
AAA0
0000
0000
ENDCHAR
STARTCHAR space
ENCODING 32
SWIDTH 960 0
DWIDTH 12 0
BBX 12 13 0 -2
BITMAP
0000
0000
0000
0000
0000
0000
0000
0000
0000
0000
0000
0000
0000
ENDCHAR
STARTCHAR exclam
ENCODING 33
SWIDTH 960 0
DWIDTH 12 0
BBX 12 13 0 -2
BITMAP
0000
0400
0E00
0E00
0E00
0E00
0400
0400
0000
0400
0E00
0400
0000
ENDCHAR
STARTCHAR quotedbl
ENCODING 34
SWIDTH 960 0
DWIDTH 12 0
BBX 12 13 0 -2
BITMAP
0000
1980
1980
1980
1100
0000
0000
0000
0000
0000
0000
0000
0000
ENDCHAR
STARTCHAR numbersign
ENCODING 35
SWIDTH 960 0
DWIDTH 12 0
BBX 12 13 0 -2
BITMAP
0000
0880
0880
3FC0
1100
1100
1100
1100
7F80
2200
2200
2200
0000
ENDCHAR
STARTCHAR dollar
ENCODING 36
SWIDTH 960 0
DWIDTH 12 0
BBX 12 13 0 -2
BITMAP
0000
0400
1F00
2480
2580
3C00
0F00
0580
3480
2480
1F00
0400
0000
ENDCHAR
STARTCHAR percent
ENCODING 37
SWIDTH 960 0
DWIDTH 12 0
BBX 12 13 0 -2
BITMAP
0000
3820
6C40
6C80
6D00
3A00
05C0
0B60
1360
2360
41C0
0000
0000
ENDCHAR
STARTCHAR ampersand
ENCODING 38
SWIDTH 960 0
DWIDTH 12 0
BBX 12 13 0 -2
BITMAP
0000
1C00
3200
3200
3C00
19C0
3880
6D80
6300
6700
38C0
0000
0000
ENDCHAR
STARTCHAR quotesingle
ENCODING 39
SWIDTH 960 0
DWIDTH 12 0
BBX 12 13 0 -2
BITMAP
0000
0C00
0C00
0C00
0800
0000
0000
0000
0000
0000
0000
0000
0000
ENDCHAR
STARTCHAR parenleft
ENCODING 40
SWIDTH 960 0
DWIDTH 12 0
BBX 12 13 0 -2
BITMAP
0000
0080
0100
0300
0200
0600
0600
0600
0200
0300
0100
0080
0000
ENDCHAR
STARTCHAR parenright
ENCODING 41
SWIDTH 960 0
DWIDTH 12 0
BBX 12 13 0 -2
BITMAP
0000
2000
1000
1800
0800
0C00
0C00
0C00
0800
1800
1000
2000
0000
ENDCHAR
STARTCHAR asterisk
ENCODING 42
SWIDTH 960 0
DWIDTH 12 0
BBX 12 13 0 -2
BITMAP
0000
0400
0E00
2480
75C0
0E00
0E00
75C0
2480
0E00
0400
0000
0000
ENDCHAR
STARTCHAR plus
ENCODING 43
SWIDTH 960 0
DWIDTH 12 0
BBX 12 13 0 -2
BITMAP
0000
0000
0400
0400
0400
0400
7FC0
0400
0400
0400
0400
0000
0000
ENDCHAR
STARTCHAR comma
ENCODING 44
SWIDTH 960 0
DWIDTH 12 0
BBX 12 13 0 -2
BITMAP
0000
0000
0000
0000
0000
0000
0000
0000
3000
3000
1000
2000
0000
ENDCHAR
STARTCHAR hyphen
ENCODING 45
SWIDTH 960 0
DWIDTH 12 0
BBX 12 13 0 -2
BITMAP
0000
0000
0000
0000
0000
0000
7FC0
0000
0000
0000
0000
0000
0000
ENDCHAR
STARTCHAR period
ENCODING 46
SWIDTH 960 0
DWIDTH 12 0
BBX 12 13 0 -2
BITMAP
0000
0000
0000
0000
0000
0000
0000
0000
0000
3000
3000
0000
0000
ENDCHAR
STARTCHAR slash
ENCODING 47
SWIDTH 960 0
DWIDTH 12 0
BBX 12 13 0 -2
BITMAP
0000
0060
00E0
01C0
0380
0700
0E00
1C00
3800
7000
6000
0000
0000
ENDCHAR
STARTCHAR zero
ENCODING 48
SWIDTH 960 0
DWIDTH 12 0
BBX 12 13 0 -2
BITMAP
0000
0000
0E00
3180
60C0
60C0
60C0
60C0
60C0
3180
0E00
0000
0000
ENDCHAR
STARTCHAR one
ENCODING 49
SWIDTH 960 0
DWIDTH 12 0
BBX 12 13 0 -2
BITMAP
0000
0000
0200
0600
0E00
0600
0600
0600
0600
0600
0F00
0000
0000
ENDCHAR
STARTCHAR two
ENCODING 50
SWIDTH 960 0
DWIDTH 12 0
BBX 12 13 0 -2
BITMAP
0000
0000
0F00
1180
38C0
1980
0100
0200
0440
0F80
1F80
0000
0000
ENDCHAR
STARTCHAR three
ENCODING 51
SWIDTH 960 0
DWIDTH 12 0
BBX 12 13 0 -2
BITMAP
0000
0000
0F00
1180
30C0
0180
0700
0080
30C0
1180
0F00
0000
0000
ENDCHAR
STARTCHAR four
ENCODING 52
SWIDTH 960 0
DWIDTH 12 0
BBX 12 13 0 -2
BITMAP
0000
0000
0180
0380
0580
0980
1180
3180
3FC0
0180
03C0
0000
0000
ENDCHAR
STARTCHAR five
ENCODING 53
SWIDTH 960 0
DWIDTH 12 0
BBX 12 13 0 -2
BITMAP
0000
0000
1F80
1F00
1000
1F00
0180
00C0
00C0
3180
1F00
0000
0000
ENDCHAR
STARTCHAR six
ENCODING 54
SWIDTH 960 0
DWIDTH 12 0
BBX 12 13 0 -2
BITMAP
0000
0000
0F00
1180
3000
2F00
7180
60C0
60C0
3180
1F00
0000
0000
ENDCHAR
STARTCHAR seven
ENCODING 55
SWIDTH 960 0
DWIDTH 12 0
BBX 12 13 0 -2
BITMAP
0000
0000
1FC0
1F80
2100
0100
0200
0200
0600
0600
0600
0000
0000
ENDCHAR
STARTCHAR eight
ENCODING 56
SWIDTH 960 0
DWIDTH 12 0
BBX 12 13 0 -2
BITMAP
0000
0000
0F00
1080
38C0
1D80
0F00
1B80
31C0
1080
0F00
0000
0000
ENDCHAR
STARTCHAR nine
ENCODING 57
SWIDTH 960 0
DWIDTH 12 0
BBX 12 13 0 -2
BITMAP
0000
0000
0600
1980
30C0
30C0
19C0
0EC0
0080
3100
1E00
0000
0000
ENDCHAR
STARTCHAR colon
ENCODING 58
SWIDTH 960 0
DWIDTH 12 0
BBX 12 13 0 -2
BITMAP
0000
0000
0000
0000
0600
0600
0000
0000
0600
0600
0000
0000
0000
ENDCHAR
STARTCHAR semicolon
ENCODING 59
SWIDTH 960 0
DWIDTH 12 0
BBX 12 13 0 -2
BITMAP
0000
0000
0000
0000
0600
0600
0000
0000
0600
0600
0200
0400
0000
ENDCHAR
STARTCHAR less
ENCODING 60
SWIDTH 960 0
DWIDTH 12 0
BBX 12 13 0 -2
BITMAP
0000
0040
0180
0200
0C00
1000
2000
1000
0C00
0200
0180
0040
0000
ENDCHAR
STARTCHAR equal
ENCODING 61
SWIDTH 960 0
DWIDTH 12 0
BBX 12 13 0 -2
BITMAP
0000
0000
0000
0000
7FC0
0000
0000
0000
7FC0
0000
0000
0000
0000
ENDCHAR
STARTCHAR greater
ENCODING 62
SWIDTH 960 0
DWIDTH 12 0
BBX 12 13 0 -2
BITMAP
0000
2000
1800
0400
0300
0080
0040
0080
0300
0400
1800
2000
0000
ENDCHAR
STARTCHAR question
ENCODING 63
SWIDTH 960 0
DWIDTH 12 0
BBX 12 13 0 -2
BITMAP
0000
0E00
1300
2180
3180
3300
0200
0400
0400
0000
0600
0600
0000
ENDCHAR
STARTCHAR at
ENCODING 64
SWIDTH 960 0
DWIDTH 12 0
BBX 12 13 0 -2
BITMAP
0000
0700
18C0
2720
29A0
49A0
5120
5340
4E80
2020
1FC0
0000
0000
ENDCHAR
STARTCHAR A
ENCODING 65
SWIDTH 960 0
DWIDTH 12 0
BBX 12 13 0 -2
BITMAP
0000
0000
0200
0200
0700
0900
0980
1080
1FC0
2040
70E0
0000
0000
ENDCHAR
STARTCHAR B
ENCODING 66
SWIDTH 960 0
DWIDTH 12 0
BBX 12 13 0 -2
BITMAP
0000
0000
7E00
3180
3180
3180
3F00
3080
30C0
30C0
7F80
0000
0000
ENDCHAR
STARTCHAR C
ENCODING 67
SWIDTH 960 0
DWIDTH 12 0
BBX 12 13 0 -2
BITMAP
0000
0000
0740
18C0
3040
3000
3000
3000
3000
1840
0F80
0000
0000
ENDCHAR
STARTCHAR D
ENCODING 68
SWIDTH 960 0
DWIDTH 12 0
BBX 12 13 0 -2
BITMAP
0000
0000
7E00
3180
30C0
30C0
30C0
30C0
30C0
3180
7E00
0000
0000
ENDCHAR
STARTCHAR E
ENCODING 69
SWIDTH 960 0
DWIDTH 12 0
BBX 12 13 0 -2
BITMAP
0000
0000
7F80
3080
3000
3100
3F00
3100
3000
3040
7F80
0000
0000
ENDCHAR
STARTCHAR F
ENCODING 70
SWIDTH 960 0
DWIDTH 12 0
BBX 12 13 0 -2
BITMAP
0000
0000
3FC0
1840
1800
1880
1F80
1880
1800
1800
3E00
0000
0000
ENDCHAR
STARTCHAR G
ENCODING 71
SWIDTH 960 0
DWIDTH 12 0
BBX 12 13 0 -2
BITMAP
0000
0000
0E80
3180
6000
6000
63C0
6180
6180
3180
1F00
0000
0000
ENDCHAR
STARTCHAR H
ENCODING 72
SWIDTH 960 0
DWIDTH 12 0
BBX 12 13 0 -2
BITMAP
0000
0000
79E0
30C0
30C0
30C0
3FC0
30C0
30C0
30C0
79E0
0000
0000
ENDCHAR
STARTCHAR I
ENCODING 73
SWIDTH 960 0
DWIDTH 12 0
BBX 12 13 0 -2
BITMAP
0000
0000
1F80
0600
0600
0600
0600
0600
0600
0600
1F80
0000
0000
ENDCHAR
STARTCHAR J
ENCODING 74
SWIDTH 960 0
DWIDTH 12 0
BBX 12 13 0 -2
BITMAP
0000
0000
07C0
0180
0180
0180
0180
6180
6180
6300
3E00
0000
0000
ENDCHAR
STARTCHAR K
ENCODING 75
SWIDTH 960 0
DWIDTH 12 0
BBX 12 13 0 -2
BITMAP
0000
0000
79E0
3080
3100
3300
3580
3980
30C0
30C0
79E0
0000
0000
ENDCHAR
STARTCHAR L
ENCODING 76
SWIDTH 960 0
DWIDTH 12 0
BBX 12 13 0 -2
BITMAP
0000
0000
7C00
3000
3000
3000
3000
3000
3000
3040
7F80
0000
0000
ENDCHAR
STARTCHAR M
ENCODING 77
SWIDTH 960 0
DWIDTH 12 0
BBX 12 13 0 -2
BITMAP
0000
0000
61C0
3180
3180
3B80
3B80
2D80
2D80
2580
71C0
0000
0000
ENDCHAR
STARTCHAR N
ENCODING 78
SWIDTH 960 0
DWIDTH 12 0
BBX 12 13 0 -2
BITMAP
0000
0000
31C0
1880
1C80
1680
1680
1380
1180
1080
39C0
0000
0000
ENDCHAR
STARTCHAR O
ENCODING 79
SWIDTH 960 0
DWIDTH 12 0
BBX 12 13 0 -2
BITMAP
0000
0000
0E00
3180
60C0
60C0
60C0
60C0
60C0
3180
1F00
0000
0000
ENDCHAR
STARTCHAR P
ENCODING 80
SWIDTH 960 0
DWIDTH 12 0
BBX 12 13 0 -2
BITMAP
0000
0000
3F00
18C0
18C0
18C0
1F00
1800
1800
1800
3C00
0000
0000
ENDCHAR
STARTCHAR Q
ENCODING 81
SWIDTH 960 0
DWIDTH 12 0
BBX 12 13 0 -2
BITMAP
0000
0000
0E00
3180
60C0
60C0
60C0
60C0
6CC0
3380
1F80
00C0
0000
ENDCHAR
STARTCHAR R
ENCODING 82
SWIDTH 960 0
DWIDTH 12 0
BBX 12 13 0 -2
BITMAP
0000
0000
7E00
3180
3180
3180
3E00
3300
3180
3180
7BC0
0000
0000
ENDCHAR
STARTCHAR S
ENCODING 83
SWIDTH 960 0
DWIDTH 12 0
BBX 12 13 0 -2
BITMAP
0000
0000
0E80
1180
3080
1C00
0F00
0380
20C0
30C0
2F80
0000
0000
ENDCHAR
STARTCHAR T
ENCODING 84
SWIDTH 960 0
DWIDTH 12 0
BBX 12 13 0 -2
BITMAP
0000
0000
3FC0
2640
0600
0600
0600
0600
0600
0600
0F00
0000
0000
ENDCHAR
STARTCHAR U
ENCODING 85
SWIDTH 960 0
DWIDTH 12 0
BBX 12 13 0 -2
BITMAP
0000
0000
78E0
3040
3040
3040
3040
3040
3040
1880
0F00
0000
0000
ENDCHAR
STARTCHAR V
ENCODING 86
SWIDTH 960 0
DWIDTH 12 0
BBX 12 13 0 -2
BITMAP
0000
0000
78E0
3040
1840
1880
0C80
0D00
0700
0600
0200
0000
0000
ENDCHAR
STARTCHAR W
ENCODING 87
SWIDTH 960 0
DWIDTH 12 0
BBX 12 13 0 -2
BITMAP
0000
0000
EE60
6640
6640
37C0
3B80
3B80
1980
1980
1980
0000
0000
ENDCHAR
STARTCHAR X
ENCODING 88
SWIDTH 960 0
DWIDTH 12 0
BBX 12 13 0 -2
BITMAP
0000
0000
79C0
3100
1A00
0C00
0C00
0E00
1300
2180
63C0
0000
0000
ENDCHAR
STARTCHAR Y
ENCODING 89
SWIDTH 960 0
DWIDTH 12 0
BBX 12 13 0 -2
BITMAP
0000
0000
7BC0
3100
1A00
0C00
0C00
0C00
0C00
0C00
1E00
0000
0000
ENDCHAR
STARTCHAR Z
ENCODING 90
SWIDTH 960 0
DWIDTH 12 0
BBX 12 13 0 -2
BITMAP
0000
0000
7F80
4300
0600
0600
0C00
1800
1800
3040
7F80
0000
0000
ENDCHAR
STARTCHAR bracketleft
ENCODING 91
SWIDTH 960 0
DWIDTH 12 0
BBX 12 13 0 -2
BITMAP
0000
0780
0600
0600
0600
0600
0600
0600
0600
0600
0600
0780
0000
ENDCHAR
STARTCHAR backslash
ENCODING 92
SWIDTH 960 0
DWIDTH 12 0
BBX 12 13 0 -2
BITMAP
0000
6000
7000
3800
1C00
0E00
0700
0380
01C0
00E0
0060
0000
0000
ENDCHAR
STARTCHAR bracketright
ENCODING 93
SWIDTH 960 0
DWIDTH 12 0
BBX 12 13 0 -2
BITMAP
0000
3C00
0C00
0C00
0C00
0C00
0C00
0C00
0C00
0C00
0C00
3C00
0000
ENDCHAR
STARTCHAR asciicircum
ENCODING 94
SWIDTH 960 0
DWIDTH 12 0
BBX 12 13 0 -2
BITMAP
0000
0600
0F00
1080
0000
0000
0000
0000
0000
0000
0000
0000
0000
ENDCHAR
STARTCHAR underscore
ENCODING 95
SWIDTH 960 0
DWIDTH 12 0
BBX 12 13 0 -2
BITMAP
0000
0000
0000
0000
0000
0000
0000
0000
0000
0000
0000
FFF0
0000
ENDCHAR
STARTCHAR grave
ENCODING 96
SWIDTH 960 0
DWIDTH 12 0
BBX 12 13 0 -2
BITMAP
0000
0C00
0600
0100
0000
0000
0000
0000
0000
0000
0000
0000
0000
ENDCHAR
STARTCHAR a
ENCODING 97
SWIDTH 960 0
DWIDTH 12 0
BBX 12 13 0 -2
BITMAP
0000
0000
0000
0000
1E00
3300
3180
0F80
3180
6380
3CC0
0000
0000
ENDCHAR
STARTCHAR b
ENCODING 98
SWIDTH 960 0
DWIDTH 12 0
BBX 12 13 0 -2
BITMAP
0000
0000
3800
1800
1B00
1D80
18C0
18C0
18C0
1CC0
3B80
0000
0000
ENDCHAR
STARTCHAR c
ENCODING 99
SWIDTH 960 0
DWIDTH 12 0
BBX 12 13 0 -2
BITMAP
0000
0000
0000
0000
0700
18C0
3040
3000
3040
18C0
0700
0000
0000
ENDCHAR
STARTCHAR d
ENCODING 100
SWIDTH 960 0
DWIDTH 12 0
BBX 12 13 0 -2
BITMAP
0000
0000
0380
0180
0D80
3380
6180
6180
6180
3380
1DC0
0000
0000
ENDCHAR
STARTCHAR e
ENCODING 101
SWIDTH 960 0
DWIDTH 12 0
BBX 12 13 0 -2
BITMAP
0000
0000
0000
0000
0F00
1880
30C0
3FC0
3000
1840
0F80
0000
0000
ENDCHAR
STARTCHAR f
ENCODING 102
SWIDTH 960 0
DWIDTH 12 0
BBX 12 13 0 -2
BITMAP
0000
0000
0700
0980
1800
3F00
1800
1800
1800
1800
3E00
0000
0000
ENDCHAR
STARTCHAR g
ENCODING 103
SWIDTH 960 0
DWIDTH 12 0
BBX 12 13 0 -2
BITMAP
0000
0000
0000
0000
0FC0
1980
1180
1100
0E00
1F80
31C0
1040
0F80
ENDCHAR
STARTCHAR h
ENCODING 104
SWIDTH 960 0
DWIDTH 12 0
BBX 12 13 0 -2
BITMAP
0000
0000
7000
3000
3600
3B00
3180
3180
3180
3180
7BC0
0000
0000
ENDCHAR
STARTCHAR i
ENCODING 105
SWIDTH 960 0
DWIDTH 12 0
BBX 12 13 0 -2
BITMAP
0000
0200
0700
0200
0000
1E00
0600
0600
0600
0600
1F80
0000
0000
ENDCHAR
STARTCHAR j
ENCODING 106
SWIDTH 960 0
DWIDTH 12 0
BBX 12 13 0 -2
BITMAP
0000
0200
0700
0200
0000
1F00
0300
0300
0300
0300
1300
3200
1C00
ENDCHAR
STARTCHAR k
ENCODING 107
SWIDTH 960 0
DWIDTH 12 0
BBX 12 13 0 -2
BITMAP
0000
0000
7000
3000
3180
3300
3600
3F00
3300
3180
79C0
0000
0000
ENDCHAR
STARTCHAR l
ENCODING 108
SWIDTH 960 0
DWIDTH 12 0
BBX 12 13 0 -2
BITMAP
0000
0000
1E00
0600
0600
0600
0600
0600
0600
0600
1F80
0000
0000
ENDCHAR
STARTCHAR m
ENCODING 109
SWIDTH 960 0
DWIDTH 12 0
BBX 12 13 0 -2
BITMAP
0000
0000
0000
0000
6D80
36C0
36C0
36C0
36C0
36C0
76E0
0000
0000
ENDCHAR
STARTCHAR n
ENCODING 110
SWIDTH 960 0
DWIDTH 12 0
BBX 12 13 0 -2
BITMAP
0000
0000
0000
0000
7700
3980
3180
3180
3180
3180
7BC0
0000
0000
ENDCHAR
STARTCHAR o
ENCODING 111
SWIDTH 960 0
DWIDTH 12 0
BBX 12 13 0 -2
BITMAP
0000
0000
0000
0000
0F00
1980
30C0
30C0
30C0
1980
0F00
0000
0000
ENDCHAR
STARTCHAR p
ENCODING 112
SWIDTH 960 0
DWIDTH 12 0
BBX 12 13 0 -2
BITMAP
0000
0000
0000
0000
3B00
1C80
18C0
18C0
18C0
1C80
1B00
1800
3C00
ENDCHAR
STARTCHAR q
ENCODING 113
SWIDTH 960 0
DWIDTH 12 0
BBX 12 13 0 -2
BITMAP
0000
0000
0000
0000
0DC0
1380
3180
3180
3180
1380
0D80
0180
03C0
ENDCHAR
STARTCHAR r
ENCODING 114
SWIDTH 960 0
DWIDTH 12 0
BBX 12 13 0 -2
BITMAP
0000
0000
0000
0000
3B00
1D80
1880
1800
1800
1800
3C00
0000
0000
ENDCHAR
STARTCHAR s
ENCODING 115
SWIDTH 960 0
DWIDTH 12 0
BBX 12 13 0 -2
BITMAP
0000
0000
0000
0000
1F80
3080
3000
1F80
00C0
30C0
2F80
0000
0000
ENDCHAR
STARTCHAR t
ENCODING 116
SWIDTH 960 0
DWIDTH 12 0
BBX 12 13 0 -2
BITMAP
0000
0000
0000
0400
0C00
3F80
0C00
0C00
0C00
0C80
0700
0000
0000
ENDCHAR
STARTCHAR u
ENCODING 117
SWIDTH 960 0
DWIDTH 12 0
BBX 12 13 0 -2
BITMAP
0000
0000
0000
0000
7380
3180
3180
3180
3180
3180
1EC0
0000
0000
ENDCHAR
STARTCHAR v
ENCODING 118
SWIDTH 960 0
DWIDTH 12 0
BBX 12 13 0 -2
BITMAP
0000
0000
0000
0000
78E0
3040
1880
1880
0D00
0F00
0600
0000
0000
ENDCHAR
STARTCHAR w
ENCODING 119
SWIDTH 960 0
DWIDTH 12 0
BBX 12 13 0 -2
BITMAP
0000
0000
0000
0000
76E0
7640
3640
3B80
3B80
1980
1980
0000
0000
ENDCHAR
STARTCHAR x
ENCODING 120
SWIDTH 960 0
DWIDTH 12 0
BBX 12 13 0 -2
BITMAP
0000
0000
0000
0000
39C0
1880
0D00
0600
0F00
1180
3BC0
0000
0000
ENDCHAR
STARTCHAR y
ENCODING 121
SWIDTH 960 0
DWIDTH 12 0
BBX 12 13 0 -2
BITMAP
0000
0000
0000
0000
7DC0
3080
1880
1900
0D00
0E00
6600
6400
3800
ENDCHAR
STARTCHAR z
ENCODING 122
SWIDTH 960 0
DWIDTH 12 0
BBX 12 13 0 -2
BITMAP
0000
0000
0000
0000
3FC0
2180
0300
0600
0C00
1840
3FC0
0000
0000
ENDCHAR
STARTCHAR braceleft
ENCODING 123
SWIDTH 960 0
DWIDTH 12 0
BBX 12 13 0 -2
BITMAP
0000
0180
0300
0300
0300
0200
0C00
0200
0300
0300
0300
0180
0000
ENDCHAR
STARTCHAR bar
ENCODING 124
SWIDTH 960 0
DWIDTH 12 0
BBX 12 13 0 -2
BITMAP
0000
0600
0600
0600
0600
0600
0600
0600
0600
0600
0600
0000
0000
ENDCHAR
STARTCHAR braceright
ENCODING 125
SWIDTH 960 0
DWIDTH 12 0
BBX 12 13 0 -2
BITMAP
0000
3000
1800
1800
1800
0800
0600
0800
1800
1800
1800
3000
0000
ENDCHAR
STARTCHAR asciitilde
ENCODING 126
SWIDTH 960 0
DWIDTH 12 0
BBX 12 13 0 -2
BITMAP
0000
1CC0
3380
0000
0000
0000
0000
0000
0000
0000
0000
0000
0000
ENDCHAR
STARTCHAR space
ENCODING 160
SWIDTH 960 0
DWIDTH 12 0
BBX 12 13 0 -2
BITMAP
0000
0000
0000
0000
0000
0000
0000
0000
0000
0000
0000
0000
0000
ENDCHAR
STARTCHAR exclamdown
ENCODING 161
SWIDTH 960 0
DWIDTH 12 0
BBX 12 13 0 -2
BITMAP
0000
0400
0E00
0400
0000
0400
0400
0E00
0E00
0E00
0E00
0400
0000
ENDCHAR
STARTCHAR cent
ENCODING 162
SWIDTH 960 0
DWIDTH 12 0
BBX 12 13 0 -2
BITMAP
0000
0000
0100
0100
0F00
1B80
32C0
3200
3400
1CC0
0F80
0800
0800
ENDCHAR
STARTCHAR sterling
ENCODING 163
SWIDTH 960 0
DWIDTH 12 0
BBX 12 13 0 -2
BITMAP
0000
0380
06C0
0CC0
0C00
0C00
3F80
0C00
3C20
4E40
3980
0000
0000
ENDCHAR
STARTCHAR currency
ENCODING 164
SWIDTH 960 0
DWIDTH 12 0
BBX 12 13 0 -2
BITMAP
0000
0000
60C0
3580
1F00
3180
3180
3180
1F00
3580
60C0
0000
0000
ENDCHAR
STARTCHAR yen
ENCODING 165
SWIDTH 960 0
DWIDTH 12 0
BBX 12 13 0 -2
BITMAP
0000
70E0
3040
1880
0C80
0D00
3FC0
0600
3FC0
0600
1F80
0000
0000
ENDCHAR
STARTCHAR brokenbar
ENCODING 166
SWIDTH 960 0
DWIDTH 12 0
BBX 12 13 0 -2
BITMAP
0000
0600
0600
0600
0600
0000
0000
0600
0600
0600
0600
0000
0000
ENDCHAR
STARTCHAR section
ENCODING 167
SWIDTH 960 0
DWIDTH 12 0
BBX 12 13 0 -2
BITMAP
0000
0E00
1100
1800
0C00
0E00
1300
1900
0E00
0600
1300
1100
0E00
ENDCHAR
STARTCHAR dieresis
ENCODING 168
SWIDTH 960 0
DWIDTH 12 0
BBX 12 13 0 -2
BITMAP
3180
3180
0000
0000
0000
0000
0000
0000
0000
0000
0000
0000
0000
ENDCHAR
STARTCHAR copyright
ENCODING 169
SWIDTH 960 0
DWIDTH 12 0
BBX 12 13 0 -2
BITMAP
0000
0000
1F80
2040
4F20
59A0
5820
59A0
4F20
2040
1F80
0000
0000
ENDCHAR
STARTCHAR ordfeminine
ENCODING 170
SWIDTH 960 0
DWIDTH 12 0
BBX 12 13 0 -2
BITMAP
0000
1C00
3600
0600
3E00
6600
3A00
0000
7F00
0000
0000
0000
0000
ENDCHAR
STARTCHAR guillemotleft
ENCODING 171
SWIDTH 960 0
DWIDTH 12 0
BBX 12 13 0 -2
BITMAP
0000
0000
0000
0000
0480
0900
1B00
1B00
0900
0480
0000
0000
0000
ENDCHAR
STARTCHAR logicalnot
ENCODING 172
SWIDTH 960 0
DWIDTH 12 0
BBX 12 13 0 -2
BITMAP
0000
0000
0000
0000
0000
0000
3FC0
0040
0040
0040
0040
0000
0000
ENDCHAR
STARTCHAR hyphen
ENCODING 173
SWIDTH 960 0
DWIDTH 12 0
BBX 12 13 0 -2
BITMAP
0000
0000
0000
0000
0000
0000
3F80
0000
0000
0000
0000
0000
0000
ENDCHAR
STARTCHAR registered
ENCODING 174
SWIDTH 960 0
DWIDTH 12 0
BBX 12 13 0 -2
BITMAP
0000
0000
1F80
2040
5F20
59A0
5F20
5B20
59A0
2040
1F80
0000
0000
ENDCHAR
STARTCHAR macron
ENCODING 175
SWIDTH 960 0
DWIDTH 12 0
BBX 12 13 0 -2
BITMAP
0000
0000
3F80
0000
0000
0000
0000
0000
0000
0000
0000
0000
0000
ENDCHAR
STARTCHAR degree
ENCODING 176
SWIDTH 960 0
DWIDTH 12 0
BBX 12 13 0 -2
BITMAP
0000
0000
1800
2400
2400
1800
0000
0000
0000
0000
0000
0000
0000
ENDCHAR
STARTCHAR plusminus
ENCODING 177
SWIDTH 960 0
DWIDTH 12 0
BBX 12 13 0 -2
BITMAP
0000
0000
0400
0400
0400
7FC0
0400
0400
0400
0000
7FC0
0000
0000
ENDCHAR
STARTCHAR twosuperior
ENCODING 178
SWIDTH 960 0
DWIDTH 12 0
BBX 12 13 0 -2
BITMAP
1C00
2600
0600
0C00
1800
3000
3E00
0000
0000
0000
0000
0000
0000
ENDCHAR
STARTCHAR threesuperior
ENCODING 179
SWIDTH 960 0
DWIDTH 12 0
BBX 12 13 0 -2
BITMAP
1C00
3600
0600
0C00
0600
3600
1C00
0000
0000
0000
0000
0000
0000
ENDCHAR
STARTCHAR acute
ENCODING 180
SWIDTH 960 0
DWIDTH 12 0
BBX 12 13 0 -2
BITMAP
0000
0300
0600
0800
0000
0000
0000
0000
0000
0000
0000
0000
0000
ENDCHAR
STARTCHAR mu
ENCODING 181
SWIDTH 960 0
DWIDTH 12 0
BBX 12 13 0 -2
BITMAP
0000
0000
0000
0000
79E0
30C0
30C0
30C0
30C0
39C0
36E0
3000
7800
ENDCHAR
STARTCHAR paragraph
ENCODING 182
SWIDTH 960 0
DWIDTH 12 0
BBX 12 13 0 -2
BITMAP
0000
0000
1FC0
3D80
3D80
1D80
0D80
0D80
0D80
0D80
0D80
0000
0000
ENDCHAR
STARTCHAR periodcentered
ENCODING 183
SWIDTH 960 0
DWIDTH 12 0
BBX 12 13 0 -2
BITMAP
0000
0000
0000
0000
0000
0000
0600
0600
0000
0000
0000
0000
0000
ENDCHAR
STARTCHAR cedilla
ENCODING 184
SWIDTH 960 0
DWIDTH 12 0
BBX 12 13 0 -2
BITMAP
0000
0000
0000
0000
0000
0000
0000
0000
0000
0000
0000
0300
0E00
ENDCHAR
STARTCHAR onesuperior
ENCODING 185
SWIDTH 960 0
DWIDTH 12 0
BBX 12 13 0 -2
BITMAP
1800
3800
1800
1800
1800
1800
3C00
0000
0000
0000
0000
0000
0000
ENDCHAR
STARTCHAR ordmasculine
ENCODING 186
SWIDTH 960 0
DWIDTH 12 0
BBX 12 13 0 -2
BITMAP
0000
3C00
6600
6600
6600
6600
3C00
0000
7E00
0000
0000
0000
0000
ENDCHAR
STARTCHAR guillemotright
ENCODING 187
SWIDTH 960 0
DWIDTH 12 0
BBX 12 13 0 -2
BITMAP
0000
0000
0000
0000
1200
0900
0D80
0D80
0900
1200
0000
0000
0000
ENDCHAR
STARTCHAR onequarter
ENCODING 188
SWIDTH 960 0
DWIDTH 12 0
BBX 12 13 0 -2
BITMAP
6100
E100
6200
6200
6400
65C0
F9C0
0BC0
12C0
16C0
27E0
20C0
0000
ENDCHAR
STARTCHAR onehalf
ENCODING 189
SWIDTH 960 0
DWIDTH 12 0
BBX 12 13 0 -2
BITMAP
6100
E100
6200
6200
6400
65C0
FA60
0860
10C0
1180
2300
23E0
0000
ENDCHAR
STARTCHAR threequarters
ENCODING 190
SWIDTH 960 0
DWIDTH 12 0
BBX 12 13 0 -2
BITMAP
6100
B100
3200
6200
3400
B5C0
69C0
0BC0
12C0
16C0
27E0
20C0
0000
ENDCHAR
STARTCHAR questiondown
ENCODING 191
SWIDTH 960 0
DWIDTH 12 0
BBX 12 13 0 -2
BITMAP
0000
0C00
0C00
0000
0400
0400
0800
1980
3180
3080
1900
0E00
0000
ENDCHAR
STARTCHAR Agrave
ENCODING 192
SWIDTH 960 0
DWIDTH 12 0
BBX 12 13 0 -2
BITMAP
0600
0300
0080
0200
0300
0700
0980
0880
1FC0
2040
70E0
0000
0000
ENDCHAR
STARTCHAR Aacute
ENCODING 193
SWIDTH 960 0
DWIDTH 12 0
BBX 12 13 0 -2
BITMAP
0300
0600
0800
0200
0300
0700
0980
0880
1FC0
2040
70E0
0000
0000
ENDCHAR
STARTCHAR Acircumflex
ENCODING 194
SWIDTH 960 0
DWIDTH 12 0
BBX 12 13 0 -2
BITMAP
0600
0F00
1080
0200
0300
0700
0980
0880
1FC0
2040
70E0
0000
0000
ENDCHAR
STARTCHAR Atilde
ENCODING 195
SWIDTH 960 0
DWIDTH 12 0
BBX 12 13 0 -2
BITMAP
0EC0
1B80
0000
0200
0300
0700
0980
0880
1FC0
2040
70E0
0000
0000
ENDCHAR
STARTCHAR Adieresis
ENCODING 196
SWIDTH 960 0
DWIDTH 12 0
BBX 12 13 0 -2
BITMAP
1980
1980
0000
0200
0300
0700
0980
0880
1FC0
2040
70E0
0000
0000
ENDCHAR
STARTCHAR Aring
ENCODING 197
SWIDTH 960 0
DWIDTH 12 0
BBX 12 13 0 -2
BITMAP
0300
0480
0300
0200
0300
0700
0980
0880
1FC0
2040
70E0
0000
0000
ENDCHAR
STARTCHAR AE
ENCODING 198
SWIDTH 960 0
DWIDTH 12 0
BBX 12 13 0 -2
BITMAP
0000
0000
07C0
0620
0E00
1240
13C0
2240
3E00
4220
E7C0
0000
0000
ENDCHAR
STARTCHAR Ccedilla
ENCODING 199
SWIDTH 960 0
DWIDTH 12 0
BBX 12 13 0 -2
BITMAP
0000
0000
0740
18C0
3040
3000
3000
3000
3000
1840
0F80
0300
0E00
ENDCHAR
STARTCHAR Egrave
ENCODING 200
SWIDTH 960 0
DWIDTH 12 0
BBX 12 13 0 -2
BITMAP
1800
0C00
0200
7F80
3040
3100
3F00
3100
3000
3040
7F80
0000
0000
ENDCHAR
STARTCHAR Eacute
ENCODING 201
SWIDTH 960 0
DWIDTH 12 0
BBX 12 13 0 -2
BITMAP
0600
0C00
1000
7F80
3040
3100
3F00
3100
3000
3040
7F80
0000
0000
ENDCHAR
STARTCHAR Ecircumflex
ENCODING 202
SWIDTH 960 0
DWIDTH 12 0
BBX 12 13 0 -2
BITMAP
0C00
1E00
2100
7F80
3040
3100
3F00
3100
3000
3040
7F80
0000
0000
ENDCHAR
STARTCHAR Edieresis
ENCODING 203
SWIDTH 960 0
DWIDTH 12 0
BBX 12 13 0 -2
BITMAP
3300
3300
0000
7F80
3040
3100
3F00
3100
3000
3040
7F80
0000
0000
ENDCHAR
STARTCHAR Igrave
ENCODING 204
SWIDTH 960 0
DWIDTH 12 0
BBX 12 13 0 -2
BITMAP
0C00
0600
0100
1F80
0600
0600
0600
0600
0600
0600
1F80
0000
0000
ENDCHAR
STARTCHAR Iacute
ENCODING 205
SWIDTH 960 0
DWIDTH 12 0
BBX 12 13 0 -2
BITMAP
0300
0600
0800
1F80
0600
0600
0600
0600
0600
0600
1F80
0000
0000
ENDCHAR
STARTCHAR Icircumflex
ENCODING 206
SWIDTH 960 0
DWIDTH 12 0
BBX 12 13 0 -2
BITMAP
0600
0F00
1080
1F80
0600
0600
0600
0600
0600
0600
1F80
0000
0000
ENDCHAR
STARTCHAR Idieresis
ENCODING 207
SWIDTH 960 0
DWIDTH 12 0
BBX 12 13 0 -2
BITMAP
1980
1980
0000
1F80
0600
0600
0600
0600
0600
0600
1F80
0000
0000
ENDCHAR
STARTCHAR Eth
ENCODING 208
SWIDTH 960 0
DWIDTH 12 0
BBX 12 13 0 -2
BITMAP
0000
0000
7E00
3180
30C0
30C0
78C0
30C0
30C0
3180
7E00
0000
0000
ENDCHAR
STARTCHAR Ntilde
ENCODING 209
SWIDTH 960 0
DWIDTH 12 0
BBX 12 13 0 -2
BITMAP
0E40
1380
0000
3BC0
1880
1C80
1680
1680
1380
1180
39C0
0000
0000
ENDCHAR
STARTCHAR Ograve
ENCODING 210
SWIDTH 960 0
DWIDTH 12 0
BBX 12 13 0 -2
BITMAP
0C00
0600
0100
0E00
3180
60C0
60C0
60C0
60C0
3180
1F00
0000
0000
ENDCHAR
STARTCHAR Oacute
ENCODING 211
SWIDTH 960 0
DWIDTH 12 0
BBX 12 13 0 -2
BITMAP
0600
0C00
1000
0E00
3180
60C0
60C0
60C0
60C0
3180
1F00
0000
0000
ENDCHAR
STARTCHAR Ocircumflex
ENCODING 212
SWIDTH 960 0
DWIDTH 12 0
BBX 12 13 0 -2
BITMAP
0C00
1E00
2100
0E00
3180
60C0
60C0
60C0
60C0
3180
1F00
0000
0000
ENDCHAR
STARTCHAR Otilde
ENCODING 213
SWIDTH 960 0
DWIDTH 12 0
BBX 12 13 0 -2
BITMAP
1D80
3700
0000
0E00
3180
60C0
60C0
60C0
60C0
3180
1F00
0000
0000
ENDCHAR
STARTCHAR Odieresis
ENCODING 214
SWIDTH 960 0
DWIDTH 12 0
BBX 12 13 0 -2
BITMAP
1980
1980
0000
0E00
3180
60C0
60C0
60C0
60C0
3180
1F00
0000
0000
ENDCHAR
STARTCHAR multiply
ENCODING 215
SWIDTH 960 0
DWIDTH 12 0
BBX 12 13 0 -2
BITMAP
0000
0000
0000
0000
30C0
1980
0F00
0600
0F00
1980
30C0
0000
0000
ENDCHAR
STARTCHAR Oslash
ENCODING 216
SWIDTH 960 0
DWIDTH 12 0
BBX 12 13 0 -2
BITMAP
0000
0180
1F80
3380
66C0
66C0
6CC0
6CC0
78C0
7980
3F00
3000
0000
ENDCHAR
STARTCHAR Ugrave
ENCODING 217
SWIDTH 960 0
DWIDTH 12 0
BBX 12 13 0 -2
BITMAP
0C00
0600
0100
78E0
3040
3040
3040
3040
3040
1880
0F00
0000
0000
ENDCHAR
STARTCHAR Uacute
ENCODING 218
SWIDTH 960 0
DWIDTH 12 0
BBX 12 13 0 -2
BITMAP
0180
0300
0400
78E0
3040
3040
3040
3040
3040
1880
0F00
0000
0000
ENDCHAR
STARTCHAR Ucircumflex
ENCODING 219
SWIDTH 960 0
DWIDTH 12 0
BBX 12 13 0 -2
BITMAP
0600
0F00
1080
78E0
3040
3040
3040
3040
3040
1880
0F00
0000
0000
ENDCHAR
STARTCHAR Udieresis
ENCODING 220
SWIDTH 960 0
DWIDTH 12 0
BBX 12 13 0 -2
BITMAP
1980
1980
0000
78E0
3040
3040
3040
3040
3040
1880
0F00
0000
0000
ENDCHAR
STARTCHAR Yacute
ENCODING 221
SWIDTH 960 0
DWIDTH 12 0
BBX 12 13 0 -2
BITMAP
0300
0600
0800
7BC0
3100
1A00
0C00
0C00
0C00
0C00
1E00
0000
0000
ENDCHAR
STARTCHAR Thorn
ENCODING 222
SWIDTH 960 0
DWIDTH 12 0
BBX 12 13 0 -2
BITMAP
0000
0000
3800
1F00
18C0
18C0
18C0
18C0
1F00
1800
3C00
0000
0000
ENDCHAR
STARTCHAR germandbls
ENCODING 223
SWIDTH 960 0
DWIDTH 12 0
BBX 12 13 0 -2
BITMAP
0000
0000
0600
0F00
1980
1B00
3B00
1980
1980
1980
3B00
0000
0000
ENDCHAR
STARTCHAR agrave
ENCODING 224
SWIDTH 960 0
DWIDTH 12 0
BBX 12 13 0 -2
BITMAP
1800
0C00
0200
0000
1E00
3300
3180
0F80
3180
6380
3CC0
0000
0000
ENDCHAR
STARTCHAR aacute
ENCODING 225
SWIDTH 960 0
DWIDTH 12 0
BBX 12 13 0 -2
BITMAP
0600
0C00
1000
0000
1E00
3300
3180
0F80
3180
6380
3CC0
0000
0000
ENDCHAR
STARTCHAR acircumflex
ENCODING 226
SWIDTH 960 0
DWIDTH 12 0
BBX 12 13 0 -2
BITMAP
0C00
1E00
2100
0000
1E00
3300
3180
0F80
3180
6380
3CC0
0000
0000
ENDCHAR
STARTCHAR atilde
ENCODING 227
SWIDTH 960 0
DWIDTH 12 0
BBX 12 13 0 -2
BITMAP
0000
1D80
3700
0000
1E00
3300
3180
0F80
3180
6380
3CC0
0000
0000
ENDCHAR
STARTCHAR adieresis
ENCODING 228
SWIDTH 960 0
DWIDTH 12 0
BBX 12 13 0 -2
BITMAP
0000
3300
3300
0000
1E00
3300
3180
0F80
3180
6380
3CC0
0000
0000
ENDCHAR
STARTCHAR aring
ENCODING 229
SWIDTH 960 0
DWIDTH 12 0
BBX 12 13 0 -2
BITMAP
0C00
1200
0C00
0000
1E00
3300
3180
0F80
3180
6380
3CC0
0000
0000
ENDCHAR
STARTCHAR ae
ENCODING 230
SWIDTH 960 0
DWIDTH 12 0
BBX 12 13 0 -2
BITMAP
0000
0000
0000
0000
3DC0
6660
6660
1FE0
6600
C760
79C0
0000
0000
ENDCHAR
STARTCHAR ccedilla
ENCODING 231
SWIDTH 960 0
DWIDTH 12 0
BBX 12 13 0 -2
BITMAP
0000
0000
0000
0000
0700
18C0
3040
3000
3040
18C0
0700
0300
0E00
ENDCHAR
STARTCHAR egrave
ENCODING 232
SWIDTH 960 0
DWIDTH 12 0
BBX 12 13 0 -2
BITMAP
0C00
0600
0100
0000
0F00
1880
30C0
3FC0
3000
1840
0F80
0000
0000
ENDCHAR
STARTCHAR eacute
ENCODING 233
SWIDTH 960 0
DWIDTH 12 0
BBX 12 13 0 -2
BITMAP
0300
0600
0800
0000
0F00
1880
30C0
3FC0
3000
1840
0F80
0000
0000
ENDCHAR
STARTCHAR ecircumflex
ENCODING 234
SWIDTH 960 0
DWIDTH 12 0
BBX 12 13 0 -2
BITMAP
0600
0F00
1080
0000
0F00
1880
30C0
3FC0
3000
1840
0F80
0000
0000
ENDCHAR
STARTCHAR edieresis
ENCODING 235
SWIDTH 960 0
DWIDTH 12 0
BBX 12 13 0 -2
BITMAP
0000
1980
1980
0000
0F00
1880
30C0
3FC0
3000
1840
0F80
0000
0000
ENDCHAR
STARTCHAR igrave
ENCODING 236
SWIDTH 960 0
DWIDTH 12 0
BBX 12 13 0 -2
BITMAP
0C00
0600
0100
0000
0000
1E00
0600
0600
0600
0600
1F80
0000
0000
ENDCHAR
STARTCHAR iacute
ENCODING 237
SWIDTH 960 0
DWIDTH 12 0
BBX 12 13 0 -2
BITMAP
0300
0600
0800
0000
0000
1E00
0600
0600
0600
0600
1F80
0000
0000
ENDCHAR
STARTCHAR icircumflex
ENCODING 238
SWIDTH 960 0
DWIDTH 12 0
BBX 12 13 0 -2
BITMAP
0600
0F00
1080
0000
0000
1E00
0600
0600
0600
0600
1F80
0000
0000
ENDCHAR
STARTCHAR idieresis
ENCODING 239
SWIDTH 960 0
DWIDTH 12 0
BBX 12 13 0 -2
BITMAP
0000
1980
1980
0000
0000
1E00
0600
0600
0600
0600
1F80
0000
0000
ENDCHAR
STARTCHAR eth
ENCODING 240
SWIDTH 960 0
DWIDTH 12 0
BBX 12 13 0 -2
BITMAP
0000
3600
1C00
1C00
3600
0E00
1B00
3180
3180
1B00
0E00
0000
0000
ENDCHAR
STARTCHAR ntilde
ENCODING 241
SWIDTH 960 0
DWIDTH 12 0
BBX 12 13 0 -2
BITMAP
0000
1D80
3700
0000
7700
3980
3180
3180
3180
3180
7BC0
0000
0000
ENDCHAR
STARTCHAR ograve
ENCODING 242
SWIDTH 960 0
DWIDTH 12 0
BBX 12 13 0 -2
BITMAP
0C00
0600
0100
0000
0F00
1980
30C0
30C0
30C0
1980
0F00
0000
0000
ENDCHAR
STARTCHAR oacute
ENCODING 243
SWIDTH 960 0
DWIDTH 12 0
BBX 12 13 0 -2
BITMAP
0300
0600
0800
0000
0F00
1980
30C0
30C0
30C0
1980
0F00
0000
0000
ENDCHAR
STARTCHAR ocircumflex
ENCODING 244
SWIDTH 960 0
DWIDTH 12 0
BBX 12 13 0 -2
BITMAP
0600
0F00
1080
0000
0F00
1980
30C0
30C0
30C0
1980
0F00
0000
0000
ENDCHAR
STARTCHAR otilde
ENCODING 245
SWIDTH 960 0
DWIDTH 12 0
BBX 12 13 0 -2
BITMAP
0000
0EC0
1B80
0000
0F00
1980
30C0
30C0
30C0
1980
0F00
0000
0000
ENDCHAR
STARTCHAR odieresis
ENCODING 246
SWIDTH 960 0
DWIDTH 12 0
BBX 12 13 0 -2
BITMAP
0000
1980
1980
0000
0F00
1980
30C0
30C0
30C0
1980
0F00
0000
0000
ENDCHAR
STARTCHAR divide
ENCODING 247
SWIDTH 960 0
DWIDTH 12 0
BBX 12 13 0 -2
BITMAP
0000
0000
0000
0000
0600
0600
0000
3FC0
0000
0600
0600
0000
0000
ENDCHAR
STARTCHAR oslash
ENCODING 248
SWIDTH 960 0
DWIDTH 12 0
BBX 12 13 0 -2
BITMAP
0000
0000
0000
00C0
0FC0
1980
33C0
36C0
3CC0
1980
1F00
3000
0000
ENDCHAR
STARTCHAR ugrave
ENCODING 249
SWIDTH 960 0
DWIDTH 12 0
BBX 12 13 0 -2
BITMAP
1800
0C00
0200
0000
7380
3180
3180
3180
3180
3180
1EC0
0000
0000
ENDCHAR
STARTCHAR uacute
ENCODING 250
SWIDTH 960 0
DWIDTH 12 0
BBX 12 13 0 -2
BITMAP
0600
0C00
1000
0000
7380
3180
3180
3180
3180
3180
1EC0
0000
0000
ENDCHAR
STARTCHAR ucircumflex
ENCODING 251
SWIDTH 960 0
DWIDTH 12 0
BBX 12 13 0 -2
BITMAP
0C00
1E00
2100
0000
7380
3180
3180
3180
3180
3180
1EC0
0000
0000
ENDCHAR
STARTCHAR udieresis
ENCODING 252
SWIDTH 960 0
DWIDTH 12 0
BBX 12 13 0 -2
BITMAP
0000
3300
3300
0000
7380
3180
3180
3180
3180
3180
1EC0
0000
0000
ENDCHAR
STARTCHAR yacute
ENCODING 253
SWIDTH 960 0
DWIDTH 12 0
BBX 12 13 0 -2
BITMAP
0300
0600
0800
0000
7DC0
3080
1880
1900
0D00
0E00
6600
6400
3800
ENDCHAR
STARTCHAR thorn
ENCODING 254
SWIDTH 960 0
DWIDTH 12 0
BBX 12 13 0 -2
BITMAP
0000
0000
3800
1800
1800
1F00
18C0
18C0
18C0
1F00
1800
1800
3C00
ENDCHAR
STARTCHAR ydieresis
ENCODING 255
SWIDTH 960 0
DWIDTH 12 0
BBX 12 13 0 -2
BITMAP
0000
1980
1980
0000
7DC0
3080
1880
1900
0D00
0E00
6600
6400
3800
ENDCHAR
STARTCHAR Amacron
ENCODING 256
SWIDTH 960 0
DWIDTH 12 0
BBX 12 13 0 -2
BITMAP
0000
0F80
0000
0200
0300
0700
0980
0880
1FC0
2040
70E0
0000
0000
ENDCHAR
STARTCHAR amacron
ENCODING 257
SWIDTH 960 0
DWIDTH 12 0
BBX 12 13 0 -2
BITMAP
0000
0000
1F00
0000
1E00
3300
3180
0F80
3180
6380
3CC0
0000
0000
ENDCHAR
STARTCHAR Abreve
ENCODING 258
SWIDTH 960 0
DWIDTH 12 0
BBX 12 13 0 -2
BITMAP
18C0
0F80
0000
0200
0300
0700
0980
0880
1FC0
2040
70E0
0000
0000
ENDCHAR
STARTCHAR abreve
ENCODING 259
SWIDTH 960 0
DWIDTH 12 0
BBX 12 13 0 -2
BITMAP
0000
3180
1F00
0000
1E00
3300
3180
0F80
3180
6380
3CC0
0000
0000
ENDCHAR
STARTCHAR Aogonek
ENCODING 260
SWIDTH 960 0
DWIDTH 12 0
BBX 12 13 0 -2
BITMAP
0000
0000
0400
0400
0E00
1200
1300
2100
3F80
4080
E180
01A0
00C0
ENDCHAR
STARTCHAR aogonek
ENCODING 261
SWIDTH 960 0
DWIDTH 12 0
BBX 12 13 0 -2
BITMAP
0000
0000
0000
0000
1E00
3300
3180
0F80
3180
6380
3D80
0300
01C0
ENDCHAR
STARTCHAR Cacute
ENCODING 262
SWIDTH 960 0
DWIDTH 12 0
BBX 12 13 0 -2
BITMAP
0180
0300
0400
0F40
18C0
3040
3000
3000
3000
1840
0F80
0000
0000
ENDCHAR
STARTCHAR cacute
ENCODING 263
SWIDTH 960 0
DWIDTH 12 0
BBX 12 13 0 -2
BITMAP
0180
0300
0400
0000
0700
18C0
3040
3000
3040
18C0
0700
0000
0000
ENDCHAR
STARTCHAR Ccircumflex
ENCODING 264
SWIDTH 960 0
DWIDTH 12 0
BBX 12 13 0 -2
BITMAP
0600
0F00
1080
0F40
18C0
3040
3000
3000
3000
1840
0F80
0000
0000
ENDCHAR
STARTCHAR ccircumflex
ENCODING 265
SWIDTH 960 0
DWIDTH 12 0
BBX 12 13 0 -2
BITMAP
0000
0600
0F00
1080
0700
18C0
3040
3000
3040
18C0
0700
0000
0000
ENDCHAR
STARTCHAR Cdotaccent
ENCODING 266
SWIDTH 960 0
DWIDTH 12 0
BBX 12 13 0 -2
BITMAP
0600
0600
0000
0F40
18C0
3040
3000
3000
3000
1840
0F80
0000
0000
ENDCHAR
STARTCHAR cdotaccent
ENCODING 267
SWIDTH 960 0
DWIDTH 12 0
BBX 12 13 0 -2
BITMAP
0000
0600
0600
0000
0700
18C0
3040
3000
3040
18C0
0700
0000
0000
ENDCHAR
STARTCHAR Ccaron
ENCODING 268
SWIDTH 960 0
DWIDTH 12 0
BBX 12 13 0 -2
BITMAP
1080
0F00
0600
0F40
18C0
3040
3000
3000
3000
1840
0F80
0000
0000
ENDCHAR
STARTCHAR ccaron
ENCODING 269
SWIDTH 960 0
DWIDTH 12 0
BBX 12 13 0 -2
BITMAP
1080
0F00
0600
0000
0700
18C0
3040
3000
3040
18C0
0700
0000
0000
ENDCHAR
STARTCHAR Dcaron
ENCODING 270
SWIDTH 960 0
DWIDTH 12 0
BBX 12 13 0 -2
BITMAP
2100
1E00
0C00
7E00
31C0
30C0
30C0
30C0
30C0
3180
7E00
0000
0000
ENDCHAR
STARTCHAR dcaron
ENCODING 271
SWIDTH 960 0
DWIDTH 12 0
BBX 12 13 0 -2
BITMAP
4200
3C00
1B80
0180
0D80
3380
6180
6180
6180
3380
1DC0
0000
0000
ENDCHAR
STARTCHAR Dcroat
ENCODING 272
SWIDTH 960 0
DWIDTH 12 0
BBX 12 13 0 -2
BITMAP
0000
0000
7E00
3180
30C0
30C0
78C0
30C0
30C0
3180
7E00
0000
0000
ENDCHAR
STARTCHAR dcroat
ENCODING 273
SWIDTH 960 0
DWIDTH 12 0
BBX 12 13 0 -2
BITMAP
0000
0380
0180
07C0
0180
1D80
3380
6180
6180
3380
1DC0
0000
0000
ENDCHAR
STARTCHAR Emacron
ENCODING 274
SWIDTH 960 0
DWIDTH 12 0
BBX 12 13 0 -2
BITMAP
0000
1F00
0000
7F80
3040
3100
3F00
3100
3000
3040
7F80
0000
0000
ENDCHAR
STARTCHAR emacron
ENCODING 275
SWIDTH 960 0
DWIDTH 12 0
BBX 12 13 0 -2
BITMAP
0000
0000
0F80
0000
0F00
1880
30C0
3FC0
3000
1840
0F80
0000
0000
ENDCHAR
STARTCHAR Ebreve
ENCODING 276
SWIDTH 960 0
DWIDTH 12 0
BBX 12 13 0 -2
BITMAP
3180
1F00
0000
7F80
3040
3100
3F00
3100
3000
3040
7F80
0000
0000
ENDCHAR
STARTCHAR ebreve
ENCODING 277
SWIDTH 960 0
DWIDTH 12 0
BBX 12 13 0 -2
BITMAP
0000
18C0
0F80
0000
0F00
1880
30C0
3FC0
3000
1840
0F80
0000
0000
ENDCHAR
STARTCHAR Edotaccent
ENCODING 278
SWIDTH 960 0
DWIDTH 12 0
BBX 12 13 0 -2
BITMAP
0C00
0C00
0000
7F80
3040
3100
3F00
3100
3000
3040
7F80
0000
0000
ENDCHAR
STARTCHAR edotaccent
ENCODING 279
SWIDTH 960 0
DWIDTH 12 0
BBX 12 13 0 -2
BITMAP
0000
0600
0600
0000
0F00
1880
30C0
3FC0
3000
1840
0F80
0000
0000
ENDCHAR
STARTCHAR Eogonek
ENCODING 280
SWIDTH 960 0
DWIDTH 12 0
BBX 12 13 0 -2
BITMAP
0000
0000
7F80
3080
3000
3100
3F00
3100
3000
3040
7F80
0800
0E00
ENDCHAR
STARTCHAR eogonek
ENCODING 281
SWIDTH 960 0
DWIDTH 12 0
BBX 12 13 0 -2
BITMAP
0000
0000
0000
0000
0F00
1880
30C0
3FC0
3000
1840
0F80
0400
0700
ENDCHAR
STARTCHAR Ecaron
ENCODING 282
SWIDTH 960 0
DWIDTH 12 0
BBX 12 13 0 -2
BITMAP
2100
1E00
0C00
7F80
3040
3100
3F00
3100
3000
3040
7F80
0000
0000
ENDCHAR
STARTCHAR ecaron
ENCODING 283
SWIDTH 960 0
DWIDTH 12 0
BBX 12 13 0 -2
BITMAP
1080
0F00
0600
0000
0F00
1880
30C0
3FC0
3000
1840
0F80
0000
0000
ENDCHAR
STARTCHAR Gcircumflex
ENCODING 284
SWIDTH 960 0
DWIDTH 12 0
BBX 12 13 0 -2
BITMAP
0C00
1E00
2100
0E80
3180
6000
63C0
6180
6180
3180
1F00
0000
0000
ENDCHAR
STARTCHAR gcircumflex
ENCODING 285
SWIDTH 960 0
DWIDTH 12 0
BBX 12 13 0 -2
BITMAP
0600
0F00
1080
0000
0FC0
1980
1180
1100
0E00
1F80
31C0
1040
0F80
ENDCHAR
STARTCHAR Gbreve
ENCODING 286
SWIDTH 960 0
DWIDTH 12 0
BBX 12 13 0 -2
BITMAP
3180
1F00
0000
0E80
3180
6000
63C0
6180
6180
3180
1F00
0000
0000
ENDCHAR
STARTCHAR gbreve
ENCODING 287
SWIDTH 960 0
DWIDTH 12 0
BBX 12 13 0 -2
BITMAP
0000
18C0
0F80
0000
0FC0
1980
1180
1100
0E00
1F80
31C0
1040
0F80
ENDCHAR
STARTCHAR Gdotaccent
ENCODING 288
SWIDTH 960 0
DWIDTH 12 0
BBX 12 13 0 -2
BITMAP
0C00
0C00
0000
0E80
3180
6000
63C0
6180
6180
3180
1F00
0000
0000
ENDCHAR
STARTCHAR gdotaccent
ENCODING 289
SWIDTH 960 0
DWIDTH 12 0
BBX 12 13 0 -2
BITMAP
0000
0600
0600
0000
0FC0
1980
1180
1100
0E00
1F80
31C0
1040
0F80
ENDCHAR
STARTCHAR Gcommaaccent
ENCODING 290
SWIDTH 960 0
DWIDTH 12 0
BBX 12 13 0 -2
BITMAP
0000
0000
0E80
3180
6000
6000
63C0
6180
6180
3180
1F00
0600
1C00
ENDCHAR
STARTCHAR gcommaaccent
ENCODING 291
SWIDTH 960 0
DWIDTH 12 0
BBX 12 13 0 -2
BITMAP
0200
0400
0600
0000
0FC0
1980
1180
1100
0E00
1F80
31C0
1040
0F80
ENDCHAR
STARTCHAR Hcircumflex
ENCODING 292
SWIDTH 960 0
DWIDTH 12 0
BBX 12 13 0 -2
BITMAP
0600
0F00
1080
79E0
30C0
30C0
3FC0
30C0
30C0
30C0
79E0
0000
0000
ENDCHAR
STARTCHAR hcircumflex
ENCODING 293
SWIDTH 960 0
DWIDTH 12 0
BBX 12 13 0 -2
BITMAP
0600
0F00
7080
3000
3600
3B00
3180
3180
3180
3180
7BC0
0000
0000
ENDCHAR
STARTCHAR Hbar
ENCODING 294
SWIDTH 960 0
DWIDTH 12 0
BBX 12 13 0 -2
BITMAP
0000
0000
79E0
30C0
7FE0
30C0
3FC0
30C0
30C0
30C0
79E0
0000
0000
ENDCHAR
STARTCHAR hbar
ENCODING 295
SWIDTH 960 0
DWIDTH 12 0
BBX 12 13 0 -2
BITMAP
0000
7000
3000
7E00
3000
3600
3B00
3180
3180
3180
7BC0
0000
0000
ENDCHAR
STARTCHAR Itilde
ENCODING 296
SWIDTH 960 0
DWIDTH 12 0
BBX 12 13 0 -2
BITMAP
1D80
3700
0000
3F00
0C00
0C00
0C00
0C00
0C00
0C00
3F00
0000
0000
ENDCHAR
STARTCHAR itilde
ENCODING 297
SWIDTH 960 0
DWIDTH 12 0
BBX 12 13 0 -2
BITMAP
0000
0000
1D80
3700
0000
1E00
0600
0600
0600
0600
1F80
0000
0000
ENDCHAR
STARTCHAR Imacron
ENCODING 298
SWIDTH 960 0
DWIDTH 12 0
BBX 12 13 0 -2
BITMAP
0000
0F00
0000
1F80
0600
0600
0600
0600
0600
0600
1F80
0000
0000
ENDCHAR
STARTCHAR imacron
ENCODING 299
SWIDTH 960 0
DWIDTH 12 0
BBX 12 13 0 -2
BITMAP
0000
0000
0000
0F00
0000
1E00
0600
0600
0600
0600
1F80
0000
0000
ENDCHAR
STARTCHAR Ibreve
ENCODING 300
SWIDTH 960 0
DWIDTH 12 0
BBX 12 13 0 -2
BITMAP
1980
0F00
0000
1F80
0600
0600
0600
0600
0600
0600
1F80
0000
0000
ENDCHAR
STARTCHAR ibreve
ENCODING 301
SWIDTH 960 0
DWIDTH 12 0
BBX 12 13 0 -2
BITMAP
0000
0000
1980
0F00
0000
1E00
0600
0600
0600
0600
1F80
0000
0000
ENDCHAR
STARTCHAR Iogonek
ENCODING 302
SWIDTH 960 0
DWIDTH 12 0
BBX 12 13 0 -2
BITMAP
0000
0000
1F80
0600
0600
0600
0600
0600
0600
0600
1F80
0400
0700
ENDCHAR
STARTCHAR iogonek
ENCODING 303
SWIDTH 960 0
DWIDTH 12 0
BBX 12 13 0 -2
BITMAP
0000
0200
0700
0200
0000
1E00
0600
0600
0600
0600
1F80
0400
0700
ENDCHAR
STARTCHAR Idotaccent
ENCODING 304
SWIDTH 960 0
DWIDTH 12 0
BBX 12 13 0 -2
BITMAP
0600
0000
1F80
0600
0600
0600
0600
0600
0600
0600
1F80
0000
0000
ENDCHAR
STARTCHAR dotlessi
ENCODING 305
SWIDTH 960 0
DWIDTH 12 0
BBX 12 13 0 -2
BITMAP
0000
0000
0000
0000
0000
1E00
0600
0600
0600
0600
1F80
0000
0000
ENDCHAR
STARTCHAR IJ
ENCODING 306
SWIDTH 960 0
DWIDTH 12 0
BBX 12 13 0 -2
BITMAP
0000
0000
F3E0
60C0
60C0
60C0
60C0
6CC0
6CC0
6D80
F700
0000
0000
ENDCHAR
STARTCHAR ij
ENCODING 307
SWIDTH 960 0
DWIDTH 12 0
BBX 12 13 0 -2
BITMAP
0000
2040
70E0
2040
0000
73E0
3060
3060
3060
3060
7A60
0640
0380
ENDCHAR
STARTCHAR Jcircumflex
ENCODING 308
SWIDTH 960 0
DWIDTH 12 0
BBX 12 13 0 -2
BITMAP
0180
03C0
0420
07C0
0180
0180
0180
6180
6180
6300
3E00
0000
0000
ENDCHAR
STARTCHAR jcircumflex
ENCODING 309
SWIDTH 960 0
DWIDTH 12 0
BBX 12 13 0 -2
BITMAP
0000
0300
0780
0840
0000
1F00
0300
0300
0300
0300
1300
3200
1C00
ENDCHAR
STARTCHAR Kcommaaccent
ENCODING 310
SWIDTH 960 0
DWIDTH 12 0
BBX 12 13 0 -2
BITMAP
0000
0000
79E0
3080
3100
3300
3580
3980
30C0
30C0
79E0
1800
7000
ENDCHAR
STARTCHAR kcommaaccent
ENCODING 311
SWIDTH 960 0
DWIDTH 12 0
BBX 12 13 0 -2
BITMAP
0000
0000
3800
1800
18C0
1980
1B00
1F80
1980
18C0
3CE0
1800
7000
ENDCHAR
STARTCHAR kgreenlandic
ENCODING 312
SWIDTH 960 0
DWIDTH 12 0
BBX 12 13 0 -2
BITMAP
0000
0000
0000
0000
30C0
3180
3300
3E00
3300
3180
30C0
0000
0000
ENDCHAR
STARTCHAR Lacute
ENCODING 313
SWIDTH 960 0
DWIDTH 12 0
BBX 12 13 0 -2
BITMAP
0600
0C00
1000
7C00
3000
3000
3000
3000
3000
3040
7F80
0000
0000
ENDCHAR
STARTCHAR lacute
ENCODING 314
SWIDTH 960 0
DWIDTH 12 0
BBX 12 13 0 -2
BITMAP
0300
0600
0800
1E00
0600
0600
0600
0600
0600
0600
1F80
0000
0000
ENDCHAR
STARTCHAR Lcommaaccent
ENCODING 315
SWIDTH 960 0
DWIDTH 12 0
BBX 12 13 0 -2
BITMAP
0000
0000
7C00
3000
3000
3000
3000
3000
3000
3040
7F80
0C00
3800
ENDCHAR
STARTCHAR lcommaaccent
ENCODING 316
SWIDTH 960 0
DWIDTH 12 0
BBX 12 13 0 -2
BITMAP
0000
0000
1E00
0600
0600
0600
0600
0600
0600
0600
1F80
0600
1C00
ENDCHAR
STARTCHAR Lcaron
ENCODING 317
SWIDTH 960 0
DWIDTH 12 0
BBX 12 13 0 -2
BITMAP
4200
3C00
1800
3E00
1800
1800
1800
1800
1800
1820
3FC0
0000
0000
ENDCHAR
STARTCHAR lcaron
ENCODING 318
SWIDTH 960 0
DWIDTH 12 0
BBX 12 13 0 -2
BITMAP
1080
0F00
0600
1E00
0600
0600
0600
0600
0600
0600
1F80
0000
0000
ENDCHAR
STARTCHAR Ldot
ENCODING 319
SWIDTH 960 0
DWIDTH 12 0
BBX 12 13 0 -2
BITMAP
0000
0000
7C00
3000
3000
3200
3700
3200
3000
3040
7F80
0000
0000
ENDCHAR
STARTCHAR ldot
ENCODING 320
SWIDTH 960 0
DWIDTH 12 0
BBX 12 13 0 -2
BITMAP
0000
0000
3C00
0C00
0C00
0C80
0DC0
0C80
0C00
0C00
3F00
0000
0000
ENDCHAR
STARTCHAR Lslash
ENCODING 321
SWIDTH 960 0
DWIDTH 12 0
BBX 12 13 0 -2
BITMAP
0000
0000
3E00
1800
1A00
1C00
1800
3800
5800
1820
3FC0
0000
0000
ENDCHAR
STARTCHAR lslash
ENCODING 322
SWIDTH 960 0
DWIDTH 12 0
BBX 12 13 0 -2
BITMAP
0000
0000
1E00
0600
0680
0700
0600
0E00
1600
0600
1F80
0000
0000
ENDCHAR
STARTCHAR Nacute
ENCODING 323
SWIDTH 960 0
DWIDTH 12 0
BBX 12 13 0 -2
BITMAP
0300
0600
0800
31C0
1880
1C80
1680
1680
1380
1080
39C0
0000
0000
ENDCHAR
STARTCHAR nacute
ENCODING 324
SWIDTH 960 0
DWIDTH 12 0
BBX 12 13 0 -2
BITMAP
0300
0600
0800
0000
7700
3980
3180
3180
3180
3180
7BC0
0000
0000
ENDCHAR
STARTCHAR Ncommaaccent
ENCODING 325
SWIDTH 960 0
DWIDTH 12 0
BBX 12 13 0 -2
BITMAP
0000
0000
31C0
1880
1C80
1680
1680
1380
1180
1080
39C0
1800
7000
ENDCHAR
STARTCHAR ncommaaccent
ENCODING 326
SWIDTH 960 0
DWIDTH 12 0
BBX 12 13 0 -2
BITMAP
0000
0000
0000
0000
3B80
1CC0
18C0
18C0
18C0
18C0
3DE0
1800
7000
ENDCHAR
STARTCHAR Ncaron
ENCODING 327
SWIDTH 960 0
DWIDTH 12 0
BBX 12 13 0 -2
BITMAP
1080
0F00
0600
31C0
1880
1C80
1680
1680
1380
1080
39C0
0000
0000
ENDCHAR
STARTCHAR ncaron
ENCODING 328
SWIDTH 960 0
DWIDTH 12 0
BBX 12 13 0 -2
BITMAP
2100
1E00
0C00
0000
7700
3980
3180
3180
3180
3180
7BC0
0000
0000
ENDCHAR
STARTCHAR napostrophe
ENCODING 329
SWIDTH 960 0
DWIDTH 12 0
BBX 12 13 0 -2
BITMAP
0000
4000
E000
6000
DDC0
0E60
0C60
0C60
0C60
0C60
1EF0
0000
0000
ENDCHAR
STARTCHAR Eng
ENCODING 330
SWIDTH 960 0
DWIDTH 12 0
BBX 12 13 0 -2
BITMAP
0000
0000
31C0
1880
1C80
1680
1680
1380
1180
1080
3880
0180
0700
ENDCHAR
STARTCHAR eng
ENCODING 331
SWIDTH 960 0
DWIDTH 12 0
BBX 12 13 0 -2
BITMAP
0000
0000
0000
0000
3B80
1CC0
18C0
18C0
18C0
18C0
3CC0
00C0
0380
ENDCHAR
STARTCHAR Omacron
ENCODING 332
SWIDTH 960 0
DWIDTH 12 0
BBX 12 13 0 -2
BITMAP
1F00
0000
0E00
3180
60C0
60C0
60C0
60C0
60C0
3180
1F00
0000
0000
ENDCHAR
STARTCHAR omacron
ENCODING 333
SWIDTH 960 0
DWIDTH 12 0
BBX 12 13 0 -2
BITMAP
0000
0000
0F00
0000
0F00
1980
30C0
30C0
30C0
1980
0F00
0000
0000
ENDCHAR
STARTCHAR Obreve
ENCODING 334
SWIDTH 960 0
DWIDTH 12 0
BBX 12 13 0 -2
BITMAP
3180
1F00
0000
0E00
3180
60C0
60C0
60C0
60C0
3180
1F00
0000
0000
ENDCHAR
STARTCHAR obreve
ENCODING 335
SWIDTH 960 0
DWIDTH 12 0
BBX 12 13 0 -2
BITMAP
0000
1980
0F00
0000
0F00
1980
30C0
30C0
30C0
1980
0F00
0000
0000
ENDCHAR
STARTCHAR Ohungarumlaut
ENCODING 336
SWIDTH 960 0
DWIDTH 12 0
BBX 12 13 0 -2
BITMAP
0CC0
1980
2200
0E00
3180
60C0
60C0
60C0
60C0
3180
1F00
0000
0000
ENDCHAR
STARTCHAR ohungarumlaut
ENCODING 337
SWIDTH 960 0
DWIDTH 12 0
BBX 12 13 0 -2
BITMAP
0CC0
1980
2200
0000
0F00
1980
30C0
30C0
30C0
1980
0F00
0000
0000
ENDCHAR
STARTCHAR OE
ENCODING 338
SWIDTH 960 0
DWIDTH 12 0
BBX 12 13 0 -2
BITMAP
0000
0000
37C0
6E20
C600
C640
C7C0
C640
C600
6E20
37C0
0000
0000
ENDCHAR
STARTCHAR oe
ENCODING 339
SWIDTH 960 0
DWIDTH 12 0
BBX 12 13 0 -2
BITMAP
0000
0000
0000
0000
39C0
6F60
C620
C7E0
C600
6F20
39C0
0000
0000
ENDCHAR
STARTCHAR Racute
ENCODING 340
SWIDTH 960 0
DWIDTH 12 0
BBX 12 13 0 -2
BITMAP
0600
0C00
1000
7E00
3180
3180
3E00
3300
3180
3180
7BC0
0000
0000
ENDCHAR
STARTCHAR racute
ENCODING 341
SWIDTH 960 0
DWIDTH 12 0
BBX 12 13 0 -2
BITMAP
0300
0600
0800
0000
3B00
1D80
1880
1800
1800
1800
3C00
0000
0000
ENDCHAR
STARTCHAR Rcommaaccent
ENCODING 342
SWIDTH 960 0
DWIDTH 12 0
BBX 12 13 0 -2
BITMAP
0000
0000
7E00
3180
3180
3180
3E00
3300
3180
3180
7BC0
1800
7000
ENDCHAR
STARTCHAR rcommaaccent
ENCODING 343
SWIDTH 960 0
DWIDTH 12 0
BBX 12 13 0 -2
BITMAP
0000
0000
0000
0000
3B00
1D80
1880
1800
1800
1800
3C00
0C00
3800
ENDCHAR
STARTCHAR Rcaron
ENCODING 344
SWIDTH 960 0
DWIDTH 12 0
BBX 12 13 0 -2
BITMAP
2100
1E00
0C00
7E00
3180
3180
3E00
3300
3180
3180
7BC0
0000
0000
ENDCHAR
STARTCHAR rcaron
ENCODING 345
SWIDTH 960 0
DWIDTH 12 0
BBX 12 13 0 -2
BITMAP
1080
0F00
0600
0000
3B00
1D80
1880
1800
1800
1800
3C00
0000
0000
ENDCHAR
STARTCHAR Sacute
ENCODING 346
SWIDTH 960 0
DWIDTH 12 0
BBX 12 13 0 -2
BITMAP
0300
0600
0800
1E80
1180
3080
1E00
0780
20C0
30C0
2F80
0000
0000
ENDCHAR
STARTCHAR sacute
ENCODING 347
SWIDTH 960 0
DWIDTH 12 0
BBX 12 13 0 -2
BITMAP
0300
0600
0800
0000
1F80
3080
3000
1F80
00C0
30C0
2F80
0000
0000
ENDCHAR
STARTCHAR Scircumflex
ENCODING 348
SWIDTH 960 0
DWIDTH 12 0
BBX 12 13 0 -2
BITMAP
0600
0F00
1080
1E80
1180
3080
1E00
0780
20C0
30C0
2F80
0000
0000
ENDCHAR
STARTCHAR scircumflex
ENCODING 349
SWIDTH 960 0
DWIDTH 12 0
BBX 12 13 0 -2
BITMAP
0600
0F00
1080
0000
1F80
3080
3000
1F80
00C0
30C0
2F80
0000
0000
ENDCHAR
STARTCHAR Scedilla
ENCODING 350
SWIDTH 960 0
DWIDTH 12 0
BBX 12 13 0 -2
BITMAP
0000
0000
0E80
1180
3080
1C00
0F00
0380
20C0
30C0
2F80
0600
1C00
ENDCHAR
STARTCHAR scedilla
ENCODING 351
SWIDTH 960 0
DWIDTH 12 0
BBX 12 13 0 -2
BITMAP
0000
0000
0000
0000
1F80
3080
3000
1F80
00C0
30C0
2F80
0600
1C00
ENDCHAR
STARTCHAR Scaron
ENCODING 352
SWIDTH 960 0
DWIDTH 12 0
BBX 12 13 0 -2
BITMAP
1080
0F00
0600
1E80
1180
3080
1E00
0780
20C0
30C0
2F80
0000
0000
ENDCHAR
STARTCHAR scaron
ENCODING 353
SWIDTH 960 0
DWIDTH 12 0
BBX 12 13 0 -2
BITMAP
1080
0F00
0600
0000
1F80
3080
3000
1F80
00C0
30C0
2F80
0000
0000
ENDCHAR
STARTCHAR Tcommaaccent
ENCODING 354
SWIDTH 960 0
DWIDTH 12 0
BBX 12 13 0 -2
BITMAP
0000
0000
3FC0
2640
0600
0600
0600
0600
0600
0600
0F00
0300
0E00
ENDCHAR
STARTCHAR tcommaaccent
ENCODING 355
SWIDTH 960 0
DWIDTH 12 0
BBX 12 13 0 -2
BITMAP
0000
0000
0000
0400
0C00
3F80
0C00
0C00
0C00
0C80
0700
0600
1C00
ENDCHAR
STARTCHAR Tcaron
ENCODING 356
SWIDTH 960 0
DWIDTH 12 0
BBX 12 13 0 -2
BITMAP
1080
0F00
0600
3FC0
2640
0600
0600
0600
0600
0600
0F00
0000
0000
ENDCHAR
STARTCHAR tcaron
ENCODING 357
SWIDTH 960 0
DWIDTH 12 0
BBX 12 13 0 -2
BITMAP
2100
1E00
0C00
0000
0C00
3F80
0C00
0C00
0C00
0C80
0700
0000
0000
ENDCHAR
STARTCHAR Tbar
ENCODING 358
SWIDTH 960 0
DWIDTH 12 0
BBX 12 13 0 -2
BITMAP
0000
0000
3FC0
2640
0600
0600
3FC0
0600
0600
0600
0F00
0000
0000
ENDCHAR
STARTCHAR tbar
ENCODING 359
SWIDTH 960 0
DWIDTH 12 0
BBX 12 13 0 -2
BITMAP
0000
0000
0000
0400
0C00
3F80
0C00
3F80
0C00
0C80
0700
0000
0000
ENDCHAR
STARTCHAR Utilde
ENCODING 360
SWIDTH 960 0
DWIDTH 12 0
BBX 12 13 0 -2
BITMAP
0EC0
1B80
0000
78E0
3040
3040
3040
3040
3040
1880
0F00
0000
0000
ENDCHAR
STARTCHAR utilde
ENCODING 361
SWIDTH 960 0
DWIDTH 12 0
BBX 12 13 0 -2
BITMAP
0000
1D80
3700
0000
7380
3180
3180
3180
3180
3180
1EC0
0000
0000
ENDCHAR
STARTCHAR Umacron
ENCODING 362
SWIDTH 960 0
DWIDTH 12 0
BBX 12 13 0 -2
BITMAP
0000
0F80
0000
78E0
3040
3040
3040
3040
3040
1880
0F00
0000
0000
ENDCHAR
STARTCHAR umacron
ENCODING 363
SWIDTH 960 0
DWIDTH 12 0
BBX 12 13 0 -2
BITMAP
0000
0000
1F00
0000
7380
3180
3180
3180
3180
3180
1EC0
0000
0000
ENDCHAR
STARTCHAR Ubreve
ENCODING 364
SWIDTH 960 0
DWIDTH 12 0
BBX 12 13 0 -2
BITMAP
18C0
0F80
0000
78E0
3040
3040
3040
3040
3040
1880
0F00
0000
0000
ENDCHAR
STARTCHAR ubreve
ENCODING 365
SWIDTH 960 0
DWIDTH 12 0
BBX 12 13 0 -2
BITMAP
0000
3180
1F00
0000
7380
3180
3180
3180
3180
3180
1EC0
0000
0000
ENDCHAR
STARTCHAR Uring
ENCODING 366
SWIDTH 960 0
DWIDTH 12 0
BBX 12 13 0 -2
BITMAP
0700
0D80
0700
78E0
3040
3040
3040
3040
3040
1880
0F00
0000
0000
ENDCHAR
STARTCHAR uring
ENCODING 367
SWIDTH 960 0
DWIDTH 12 0
BBX 12 13 0 -2
BITMAP
0000
1E00
3300
1E00
7380
3180
3180
3180
3180
3180
1EC0
0000
0000
ENDCHAR
STARTCHAR Uhungarumlaut
ENCODING 368
SWIDTH 960 0
DWIDTH 12 0
BBX 12 13 0 -2
BITMAP
0CC0
1980
2200
78E0
3040
3040
3040
3040
3040
1880
0F00
0000
0000
ENDCHAR
STARTCHAR uhungarumlaut
ENCODING 369
SWIDTH 960 0
DWIDTH 12 0
BBX 12 13 0 -2
BITMAP
1980
3300
4400
0000
7380
3180
3180
3180
3180
3180
1EC0
0000
0000
ENDCHAR
STARTCHAR Uogonek
ENCODING 370
SWIDTH 960 0
DWIDTH 12 0
BBX 12 13 0 -2
BITMAP
0000
0000
78E0
3040
3040
3040
3040
3040
3040
1880
0F00
0400
0700
ENDCHAR
STARTCHAR uogonek
ENCODING 371
SWIDTH 960 0
DWIDTH 12 0
BBX 12 13 0 -2
BITMAP
0000
0000
0000
0000
7380
3180
3180
3180
3180
3180
1EC0
0800
0E00
ENDCHAR
STARTCHAR Wcircumflex
ENCODING 372
SWIDTH 960 0
DWIDTH 12 0
BBX 12 13 0 -2
BITMAP
0600
0F00
1080
EE60
6640
37C0
3B80
3B80
1980
1980
1980
0000
0000
ENDCHAR
STARTCHAR wcircumflex
ENCODING 373
SWIDTH 960 0
DWIDTH 12 0
BBX 12 13 0 -2
BITMAP
0600
0F00
1080
0000
76E0
7640
3640
3B80
3B80
1980
1980
0000
0000
ENDCHAR
STARTCHAR Ycircumflex
ENCODING 374
SWIDTH 960 0
DWIDTH 12 0
BBX 12 13 0 -2
BITMAP
0C00
1E00
2100
7BC0
3100
1A00
0C00
0C00
0C00
0C00
1E00
0000
0000
ENDCHAR
STARTCHAR ycircumflex
ENCODING 375
SWIDTH 960 0
DWIDTH 12 0
BBX 12 13 0 -2
BITMAP
0600
0F00
1080
0000
7DC0
3080
1880
1900
0D00
0E00
6600
6400
3800
ENDCHAR
STARTCHAR Ydieresis
ENCODING 376
SWIDTH 960 0
DWIDTH 12 0
BBX 12 13 0 -2
BITMAP
3300
3300
0000
7BC0
3100
1A00
0C00
0C00
0C00
0C00
1E00
0000
0000
ENDCHAR
STARTCHAR Zacute
ENCODING 377
SWIDTH 960 0
DWIDTH 12 0
BBX 12 13 0 -2
BITMAP
0600
0C00
1000
7F80
4300
0600
0C00
1800
1800
3040
7F80
0000
0000
ENDCHAR
STARTCHAR zacute
ENCODING 378
SWIDTH 960 0
DWIDTH 12 0
BBX 12 13 0 -2
BITMAP
0300
0600
0800
0000
3FC0
2180
0300
0600
0C00
1840
3FC0
0000
0000
ENDCHAR
STARTCHAR Zdotaccent
ENCODING 379
SWIDTH 960 0
DWIDTH 12 0
BBX 12 13 0 -2
BITMAP
0C00
0C00
0000
7F80
4300
0600
0C00
1800
1800
3040
7F80
0000
0000
ENDCHAR
STARTCHAR zdotaccent
ENCODING 380
SWIDTH 960 0
DWIDTH 12 0
BBX 12 13 0 -2
BITMAP
0000
0600
0600
0000
3FC0
2180
0300
0600
0C00
1840
3FC0
0000
0000
ENDCHAR
STARTCHAR Zcaron
ENCODING 381
SWIDTH 960 0
DWIDTH 12 0
BBX 12 13 0 -2
BITMAP
2100
1E00
0C00
7F80
4300
0600
0C00
1800
1800
3040
7F80
0000
0000
ENDCHAR
STARTCHAR zcaron
ENCODING 382
SWIDTH 960 0
DWIDTH 12 0
BBX 12 13 0 -2
BITMAP
1080
0F00
0600
0000
3FC0
2180
0300
0600
0C00
1840
3FC0
0000
0000
ENDCHAR
STARTCHAR longs
ENCODING 383
SWIDTH 960 0
DWIDTH 12 0
BBX 12 13 0 -2
BITMAP
0000
0000
0700
0980
1800
3800
1800
1800
1800
1800
3E00
0000
0000
ENDCHAR
STARTCHAR uni018F
ENCODING 399
SWIDTH 960 0
DWIDTH 12 0
BBX 12 13 0 -2
BITMAP
0000
0000
0E00
3180
60C0
00C0
7FC0
60C0
60C0
3180
1F00
0000
0000
ENDCHAR
STARTCHAR florin
ENCODING 402
SWIDTH 960 0
DWIDTH 12 0
BBX 12 13 0 -2
BITMAP
0000
0000
0380
04C0
0C00
1F80
0C00
0C00
0C00
0C00
2C00
6C00
3800
ENDCHAR
STARTCHAR Aringacute
ENCODING 506
SWIDTH 960 0
DWIDTH 12 0
BBX 12 13 0 -2
BITMAP
00C0
0180
0300
0480
0300
0700
0980
0880
1FC0
2040
70E0
0000
0000
ENDCHAR
STARTCHAR aringacute
ENCODING 507
SWIDTH 960 0
DWIDTH 12 0
BBX 12 13 0 -2
BITMAP
0300
0600
0C00
1200
1E00
3300
3180
0F80
3180
6380
3CC0
0000
0000
ENDCHAR
STARTCHAR AEacute
ENCODING 508
SWIDTH 960 0
DWIDTH 12 0
BBX 12 13 0 -2
BITMAP
00C0
0180
0200
07C0
0E20
1200
13C0
2240
3E00
4220
E7C0
0000
0000
ENDCHAR
STARTCHAR aeacute
ENCODING 509
SWIDTH 960 0
DWIDTH 12 0
BBX 12 13 0 -2
BITMAP
00C0
0180
0200
0000
3DC0
6660
6660
1FE0
6600
C760
79C0
0000
0000
ENDCHAR
STARTCHAR Oslashacute
ENCODING 510
SWIDTH 960 0
DWIDTH 12 0
BBX 12 13 0 -2
BITMAP
0300
0600
0980
1F80
3380
66C0
66C0
6CC0
6CC0
7980
3F00
3000
0000
ENDCHAR
STARTCHAR oslashacute
ENCODING 511
SWIDTH 960 0
DWIDTH 12 0
BBX 12 13 0 -2
BITMAP
0180
0300
0400
00C0
0FC0
1980
33C0
36C0
3CC0
1980
1F00
3000
0000
ENDCHAR
STARTCHAR Scommaaccent
ENCODING 536
SWIDTH 960 0
DWIDTH 12 0
BBX 12 13 0 -2
BITMAP
0000
0000
0E80
1180
3080
1C00
0F00
0380
20C0
30C0
2F80
0600
0C00
ENDCHAR
STARTCHAR scommaaccent
ENCODING 537
SWIDTH 960 0
DWIDTH 12 0
BBX 12 13 0 -2
BITMAP
0000
0000
0000
0000
1F80
3080
3000
1F80
00C0
30C0
2F80
0600
0C00
ENDCHAR
STARTCHAR Tcommaaccent
ENCODING 538
SWIDTH 960 0
DWIDTH 12 0
BBX 12 13 0 -2
BITMAP
0000
0000
3FC0
2640
0600
0600
0600
0600
0600
0600
0F00
0600
0C00
ENDCHAR
STARTCHAR tcommaaccent
ENCODING 539
SWIDTH 960 0
DWIDTH 12 0
BBX 12 13 0 -2
BITMAP
0000
0000
0000
0400
0C00
3F80
0C00
0C00
0C00
0C80
0700
0600
0C00
ENDCHAR
STARTCHAR uni0259
ENCODING 601
SWIDTH 960 0
DWIDTH 12 0
BBX 12 13 0 -2
BITMAP
0000
0000
0000
0000
1F00
2180
00C0
3FC0
30C0
1180
0F00
0000
0000
ENDCHAR
STARTCHAR uni02BB
ENCODING 699
SWIDTH 960 0
DWIDTH 12 0
BBX 12 13 0 -2
BITMAP
0000
0000
0200
0400
0600
0600
0000
0000
0000
0000
0000
0000
0000
ENDCHAR
STARTCHAR afii57929
ENCODING 700
SWIDTH 960 0
DWIDTH 12 0
BBX 12 13 0 -2
BITMAP
0000
0000
0600
0600
0200
0400
0000
0000
0000
0000
0000
0000
0000
ENDCHAR
STARTCHAR afii64937
ENCODING 701
SWIDTH 960 0
DWIDTH 12 0
BBX 12 13 0 -2
BITMAP
0000
0000
0600
0600
0400
0200
0000
0000
0000
0000
0000
0000
0000
ENDCHAR
STARTCHAR circumflex
ENCODING 710
SWIDTH 960 0
DWIDTH 12 0
BBX 12 13 0 -2
BITMAP
0600
0F00
1080
0000
0000
0000
0000
0000
0000
0000
0000
0000
0000
ENDCHAR
STARTCHAR caron
ENCODING 711
SWIDTH 960 0
DWIDTH 12 0
BBX 12 13 0 -2
BITMAP
1080
0F00
0600
0000
0000
0000
0000
0000
0000
0000
0000
0000
0000
ENDCHAR
STARTCHAR macron
ENCODING 713
SWIDTH 960 0
DWIDTH 12 0
BBX 12 13 0 -2
BITMAP
0000
1F80
0000
0000
0000
0000
0000
0000
0000
0000
0000
0000
0000
ENDCHAR
STARTCHAR uni02D0
ENCODING 720
SWIDTH 960 0
DWIDTH 12 0
BBX 12 13 0 -2
BITMAP
0000
0000
0000
0000
0E00
0400
0000
0000
0000
0400
0E00
0000
0000
ENDCHAR
STARTCHAR breve
ENCODING 728
SWIDTH 960 0
DWIDTH 12 0
BBX 12 13 0 -2
BITMAP
30C0
1F80
0000
0000
0000
0000
0000
0000
0000
0000
0000
0000
0000
ENDCHAR
STARTCHAR dotaccent
ENCODING 729
SWIDTH 960 0
DWIDTH 12 0
BBX 12 13 0 -2
BITMAP
0600
0600
0000
0000
0000
0000
0000
0000
0000
0000
0000
0000
0000
ENDCHAR
STARTCHAR ring
ENCODING 730
SWIDTH 960 0
DWIDTH 12 0
BBX 12 13 0 -2
BITMAP
0E00
1B00
0E00
0000
0000
0000
0000
0000
0000
0000
0000
0000
0000
ENDCHAR
STARTCHAR ogonek
ENCODING 731
SWIDTH 960 0
DWIDTH 12 0
BBX 12 13 0 -2
BITMAP
0000
0000
0000
0000
0000
0000
0000
0000
0000
0000
0000
1800
1F00
ENDCHAR
STARTCHAR tilde
ENCODING 732
SWIDTH 960 0
DWIDTH 12 0
BBX 12 13 0 -2
BITMAP
0000
1D80
3700
0000
0000
0000
0000
0000
0000
0000
0000
0000
0000
ENDCHAR
STARTCHAR hungarumlaut
ENCODING 733
SWIDTH 960 0
DWIDTH 12 0
BBX 12 13 0 -2
BITMAP
0CC0
1980
2200
0000
0000
0000
0000
0000
0000
0000
0000
0000
0000
ENDCHAR
STARTCHAR gravecomb
ENCODING 768
SWIDTH 960 0
DWIDTH 12 0
BBX 12 13 0 -2
BITMAP
0C00
0600
0100
0000
0000
0000
0000
0000
0000
0000
0000
0000
0000
ENDCHAR
STARTCHAR acutecomb
ENCODING 769
SWIDTH 960 0
DWIDTH 12 0
BBX 12 13 0 -2
BITMAP
0300
0600
0800
0000
0000
0000
0000
0000
0000
0000
0000
0000
0000
ENDCHAR
STARTCHAR uni0302
ENCODING 770
SWIDTH 960 0
DWIDTH 12 0
BBX 12 13 0 -2
BITMAP
0600
0F00
1080
0000
0000
0000
0000
0000
0000
0000
0000
0000
0000
ENDCHAR
STARTCHAR tildecomb
ENCODING 771
SWIDTH 960 0
DWIDTH 12 0
BBX 12 13 0 -2
BITMAP
0000
1D80
3700
0000
0000
0000
0000
0000
0000
0000
0000
0000
0000
ENDCHAR
STARTCHAR uni0304
ENCODING 772
SWIDTH 960 0
DWIDTH 12 0
BBX 12 13 0 -2
BITMAP
0000
0000
3F80
0000
0000
0000
0000
0000
0000
0000
0000
0000
0000
ENDCHAR
STARTCHAR uni0305
ENCODING 773
SWIDTH 960 0
DWIDTH 12 0
BBX 12 13 0 -2
BITMAP
0000
0000
FFF0
0000
0000
0000
0000
0000
0000
0000
0000
0000
0000
ENDCHAR
STARTCHAR uni0306
ENCODING 774
SWIDTH 960 0
DWIDTH 12 0
BBX 12 13 0 -2
BITMAP
0000
3180
1F00
0000
0000
0000
0000
0000
0000
0000
0000
0000
0000
ENDCHAR
STARTCHAR uni0307
ENCODING 775
SWIDTH 960 0
DWIDTH 12 0
BBX 12 13 0 -2
BITMAP
0000
0600
0600
0000
0000
0000
0000
0000
0000
0000
0000
0000
0000
ENDCHAR
STARTCHAR uni0308
ENCODING 776
SWIDTH 960 0
DWIDTH 12 0
BBX 12 13 0 -2
BITMAP
0000
1980
1980
0000
0000
0000
0000
0000
0000
0000
0000
0000
0000
ENDCHAR
STARTCHAR hookabovecomb
ENCODING 777
SWIDTH 960 0
DWIDTH 12 0
BBX 12 13 0 -2
BITMAP
0F00
1980
1980
0300
0000
0000
0000
0000
0000
0000
0000
0000
0000
ENDCHAR
STARTCHAR uni030A
ENCODING 778
SWIDTH 960 0
DWIDTH 12 0
BBX 12 13 0 -2
BITMAP
0600
0900
0600
0000
0000
0000
0000
0000
0000
0000
0000
0000
0000
ENDCHAR
STARTCHAR uni030B
ENCODING 779
SWIDTH 960 0
DWIDTH 12 0
BBX 12 13 0 -2
BITMAP
0CC0
1980
2200
0000
0000
0000
0000
0000
0000
0000
0000
0000
0000
ENDCHAR
STARTCHAR uni030C
ENCODING 780
SWIDTH 960 0
DWIDTH 12 0
BBX 12 13 0 -2
BITMAP
1080
0F00
0600
0000
0000
0000
0000
0000
0000
0000
0000
0000
0000
ENDCHAR
STARTCHAR uni030D
ENCODING 781
SWIDTH 960 0
DWIDTH 12 0
BBX 12 13 0 -2
BITMAP
0600
0600
0600
0000
0000
0000
0000
0000
0000
0000
0000
0000
0000
ENDCHAR
STARTCHAR uni030E
ENCODING 782
SWIDTH 960 0
DWIDTH 12 0
BBX 12 13 0 -2
BITMAP
1980
1980
1980
0000
0000
0000
0000
0000
0000
0000
0000
0000
0000
ENDCHAR
STARTCHAR uni030F
ENCODING 783
SWIDTH 960 0
DWIDTH 12 0
BBX 12 13 0 -2
BITMAP
3300
1980
0440
0000
0000
0000
0000
0000
0000
0000
0000
0000
0000
ENDCHAR
STARTCHAR uni0310
ENCODING 784
SWIDTH 960 0
DWIDTH 12 0
BBX 12 13 0 -2
BITMAP
0400
3180
1F00
0000
0000
0000
0000
0000
0000
0000
0000
0000
0000
ENDCHAR
STARTCHAR uni0311
ENCODING 785
SWIDTH 960 0
DWIDTH 12 0
BBX 12 13 0 -2
BITMAP
0000
1F00
3180
0000
0000
0000
0000
0000
0000
0000
0000
0000
0000
ENDCHAR
STARTCHAR uni0374
ENCODING 884
SWIDTH 960 0
DWIDTH 12 0
BBX 12 13 0 -2
BITMAP
0000
0000
0300
0600
0C00
0000
0000
0000
0000
0000
0000
0000
0000
ENDCHAR
STARTCHAR uni0375
ENCODING 885
SWIDTH 960 0
DWIDTH 12 0
BBX 12 13 0 -2
BITMAP
0000
0000
0000
0000
0000
0000
0000
0000
0000
0000
0300
0600
0C00
ENDCHAR
STARTCHAR uni037A
ENCODING 890
SWIDTH 960 0
DWIDTH 12 0
BBX 12 13 0 -2
BITMAP
0000
0000
0000
0000
0000
0000
0000
0000
0000
0000
0000
0C00
0E00
ENDCHAR
STARTCHAR uni037E
ENCODING 894
SWIDTH 960 0
DWIDTH 12 0
BBX 12 13 0 -2
BITMAP
0000
0000
0000
0000
0600
0600
0000
0000
0600
0600
0200
0400
0000
ENDCHAR
STARTCHAR tonos
ENCODING 900
SWIDTH 960 0
DWIDTH 12 0
BBX 12 13 0 -2
BITMAP
0300
0600
0800
0000
0000
0000
0000
0000
0000
0000
0000
0000
0000
ENDCHAR
STARTCHAR dieresistonos
ENCODING 901
SWIDTH 960 0
DWIDTH 12 0
BBX 12 13 0 -2
BITMAP
0300
36C0
38C0
0000
0000
0000
0000
0000
0000
0000
0000
0000
0000
ENDCHAR
STARTCHAR Alphatonos
ENCODING 902
SWIDTH 960 0
DWIDTH 12 0
BBX 12 13 0 -2
BITMAP
0C00
1800
2200
0600
0700
0B00
0980
1180
1FC0
20C0
71E0
0000
0000
ENDCHAR
STARTCHAR anoteleia
ENCODING 903
SWIDTH 960 0
DWIDTH 12 0
BBX 12 13 0 -2
BITMAP
0000
0000
0000
0000
0000
0000
0600
0600
0000
0000
0000
0000
0000
ENDCHAR
STARTCHAR Epsilontonos
ENCODING 904
SWIDTH 960 0
DWIDTH 12 0
BBX 12 13 0 -2
BITMAP
3000
6000
9FC0
0C40
0C00
0C80
0F80
0C80
0C00
0C20
1FC0
0000
0000
ENDCHAR
STARTCHAR Etatonos
ENCODING 905
SWIDTH 960 0
DWIDTH 12 0
BBX 12 13 0 -2
BITMAP
3000
6000
BCE0
18C0
18C0
18C0
1FC0
18C0
18C0
18C0
3CE0
0000
0000
ENDCHAR
STARTCHAR Iotatonos
ENCODING 906
SWIDTH 960 0
DWIDTH 12 0
BBX 12 13 0 -2
BITMAP
1800
3000
47E0
0180
0180
0180
0180
0180
0180
0180
07E0
0000
0000
ENDCHAR
STARTCHAR Omicrontonos
ENCODING 908
SWIDTH 960 0
DWIDTH 12 0
BBX 12 13 0 -2
BITMAP
1800
3000
4700
18C0
3060
3060
3060
3060
3060
18C0
0F80
0000
0000
ENDCHAR
STARTCHAR Upsilontonos
ENCODING 910
SWIDTH 960 0
DWIDTH 12 0
BBX 12 13 0 -2
BITMAP
1800
3000
4CC0
17A0
1320
0300
0300
0300
0300
0300
0780
0000
0000
ENDCHAR
STARTCHAR Omegatonos
ENCODING 911
SWIDTH 960 0
DWIDTH 12 0
BBX 12 13 0 -2
BITMAP
1800
3000
4700
18C0
3060
3060
3060
18C0
0880
0500
3DE0
0000
0000
ENDCHAR
STARTCHAR iotadieresistonos
ENCODING 912
SWIDTH 960 0
DWIDTH 12 0
BBX 12 13 0 -2
BITMAP
0300
36C0
38C0
0000
0400
0C00
0800
1800
1000
1800
0C00
0000
0000
ENDCHAR
STARTCHAR Alpha
ENCODING 913
SWIDTH 960 0
DWIDTH 12 0
BBX 12 13 0 -2
BITMAP
0000
0000
0200
0600
0700
0B00
0980
1180
1FC0
20C0
71E0
0000
0000
ENDCHAR
STARTCHAR Beta
ENCODING 914
SWIDTH 960 0
DWIDTH 12 0
BBX 12 13 0 -2
BITMAP
0000
0000
7E00
3180
3180
3180
3F00
3080
30C0
30C0
7F80
0000
0000
ENDCHAR
STARTCHAR Gamma
ENCODING 915
SWIDTH 960 0
DWIDTH 12 0
BBX 12 13 0 -2
BITMAP
0000
0000
3FC0
18C0
1800
1800
1800
1800
1800
1800
3E00
0000
0000
ENDCHAR
STARTCHAR Delta
ENCODING 916
SWIDTH 960 0
DWIDTH 12 0
BBX 12 13 0 -2
BITMAP
0000
0000
0400
0E00
0E00
1300
1300
2180
2180
40C0
7FC0
0000
0000
ENDCHAR
STARTCHAR Epsilon
ENCODING 917
SWIDTH 960 0
DWIDTH 12 0
BBX 12 13 0 -2
BITMAP
0000
0000
7F80
3080
3000
3100
3F00
3100
3000
3040
7F80
0000
0000
ENDCHAR
STARTCHAR Zeta
ENCODING 918
SWIDTH 960 0
DWIDTH 12 0
BBX 12 13 0 -2
BITMAP
0000
0000
3F80
4300
0600
0600
0C00
1800
1800
3040
7F80
0000
0000
ENDCHAR
STARTCHAR Eta
ENCODING 919
SWIDTH 960 0
DWIDTH 12 0
BBX 12 13 0 -2
BITMAP
0000
0000
78E0
30C0
30C0
30C0
3FC0
30C0
30C0
30C0
78E0
0000
0000
ENDCHAR
STARTCHAR Theta
ENCODING 920
SWIDTH 960 0
DWIDTH 12 0
BBX 12 13 0 -2
BITMAP
0000
0000
0E00
3180
60C0
71C0
7FC0
71C0
60C0
3180
1F00
0000
0000
ENDCHAR
STARTCHAR Iota
ENCODING 921
SWIDTH 960 0
DWIDTH 12 0
BBX 12 13 0 -2
BITMAP
0000
0000
1F80
0600
0600
0600
0600
0600
0600
0600
1F80
0000
0000
ENDCHAR
STARTCHAR Kappa
ENCODING 922
SWIDTH 960 0
DWIDTH 12 0
BBX 12 13 0 -2
BITMAP
0000
0000
78E0
3080
3100
3300
3580
3980
30C0
30C0
78E0
0000
0000
ENDCHAR
STARTCHAR Lambda
ENCODING 923
SWIDTH 960 0
DWIDTH 12 0
BBX 12 13 0 -2
BITMAP
0000
0000
0200
0200
0700
0700
0980
1180
10C0
20C0
71E0
0000
0000
ENDCHAR
STARTCHAR Mu
ENCODING 924
SWIDTH 960 0
DWIDTH 12 0
BBX 12 13 0 -2
BITMAP
0000
0000
70E0
39C0
39C0
3FC0
36C0
36C0
30C0
30C0
70E0
0000
0000
ENDCHAR
STARTCHAR Nu
ENCODING 925
SWIDTH 960 0
DWIDTH 12 0
BBX 12 13 0 -2
BITMAP
0000
0000
70E0
38C0
3CC0
3CC0
36C0
33C0
33C0
31C0
70E0
0000
0000
ENDCHAR
STARTCHAR Xi
ENCODING 926
SWIDTH 960 0
DWIDTH 12 0
BBX 12 13 0 -2
BITMAP
0000
3FC0
3FC0
0000
0000
1F80
1F80
0000
0000
3FC0
3FC0
0000
0000
ENDCHAR
STARTCHAR Omicron
ENCODING 927
SWIDTH 960 0
DWIDTH 12 0
BBX 12 13 0 -2
BITMAP
0000
0000
0E00
3180
60C0
60C0
60C0
60C0
60C0
3180
1F00
0000
0000
ENDCHAR
STARTCHAR Pi
ENCODING 928
SWIDTH 960 0
DWIDTH 12 0
BBX 12 13 0 -2
BITMAP
0000
0000
7FE0
30C0
30C0
30C0
30C0
30C0
30C0
30C0
78E0
0000
0000
ENDCHAR
STARTCHAR Rho
ENCODING 929
SWIDTH 960 0
DWIDTH 12 0
BBX 12 13 0 -2
BITMAP
0000
0000
3F00
18C0
18C0
18C0
1F00
1800
1800
1800
3E00
0000
0000
ENDCHAR
STARTCHAR Sigma
ENCODING 931
SWIDTH 960 0
DWIDTH 12 0
BBX 12 13 0 -2
BITMAP
0000
0000
3FC0
1840
0C00
0600
0300
0200
0400
0840
3FC0
0000
0000
ENDCHAR
STARTCHAR Tau
ENCODING 932
SWIDTH 960 0
DWIDTH 12 0
BBX 12 13 0 -2
BITMAP
0000
0000
3FC0
4620
0600
0600
0600
0600
0600
0600
0F00
0000
0000
ENDCHAR
STARTCHAR Upsilon
ENCODING 933
SWIDTH 960 0
DWIDTH 12 0
BBX 12 13 0 -2
BITMAP
0000
0000
1980
2F40
2640
0600
0600
0600
0600
0600
0F00
0000
0000
ENDCHAR
STARTCHAR Phi
ENCODING 934
SWIDTH 960 0
DWIDTH 12 0
BBX 12 13 0 -2
BITMAP
0000
0000
1F80
0600
1F80
36C0
36C0
36C0
1F80
0600
1F80
0000
0000
ENDCHAR
STARTCHAR Chi
ENCODING 935
SWIDTH 960 0
DWIDTH 12 0
BBX 12 13 0 -2
BITMAP
0000
0000
71C0
3100
1A00
0C00
0C00
0E00
1300
2180
61C0
0000
0000
ENDCHAR
STARTCHAR Psi
ENCODING 936
SWIDTH 960 0
DWIDTH 12 0
BBX 12 13 0 -2
BITMAP
0000
0000
1F80
4620
6660
36C0
36C0
1680
1F80
0600
0F00
0000
0000
ENDCHAR
STARTCHAR Omega
ENCODING 937
SWIDTH 960 0
DWIDTH 12 0
BBX 12 13 0 -2
BITMAP
0000
0000
0E00
3180
60C0
60C0
60C0
3180
1100
0A00
7BC0
0000
0000
ENDCHAR
STARTCHAR Iotadieresis
ENCODING 938
SWIDTH 960 0
DWIDTH 12 0
BBX 12 13 0 -2
BITMAP
1980
1980
0000
1F80
0600
0600
0600
0600
0600
0600
1F80
0000
0000
ENDCHAR
STARTCHAR Upsilondieresis
ENCODING 939
SWIDTH 960 0
DWIDTH 12 0
BBX 12 13 0 -2
BITMAP
1980
1980
0000
1980
2F40
2640
0600
0600
0600
0600
0F00
0000
0000
ENDCHAR
STARTCHAR alphatonos
ENCODING 940
SWIDTH 960 0
DWIDTH 12 0
BBX 12 13 0 -2
BITMAP
0180
0300
0400
0000
0EC0
19C0
10C0
3080
3180
3380
1CC0
0000
0000
ENDCHAR
STARTCHAR epsilontonos
ENCODING 941
SWIDTH 960 0
DWIDTH 12 0
BBX 12 13 0 -2
BITMAP
0180
0300
0400
0000
0700
0D80
0800
0700
0C00
1800
0F00
0000
0000
ENDCHAR
STARTCHAR etatonos
ENCODING 942
SWIDTH 960 0
DWIDTH 12 0
BBX 12 13 0 -2
BITMAP
0300
0600
0800
0000
1200
3D00
0980
1180
1100
3100
2300
0200
0200
ENDCHAR
STARTCHAR iotatonos
ENCODING 943
SWIDTH 960 0
DWIDTH 12 0
BBX 12 13 0 -2
BITMAP
0180
0300
0400
0000
0400
0C00
0800
1800
1000
1800
0C00
0000
0000
ENDCHAR
STARTCHAR upsilondieresistonos
ENCODING 944
SWIDTH 960 0
DWIDTH 12 0
BBX 12 13 0 -2
BITMAP
0300
36C0
38C0
0000
1000
1100
3180
3180
2100
2300
1E00
0000
0000
ENDCHAR
STARTCHAR alpha
ENCODING 945
SWIDTH 960 0
DWIDTH 12 0
BBX 12 13 0 -2
BITMAP
0000
0000
0000
0000
0EC0
19C0
10C0
3080
3180
3380
1CC0
0000
0000
ENDCHAR
STARTCHAR beta
ENCODING 946
SWIDTH 960 0
DWIDTH 12 0
BBX 12 13 0 -2
BITMAP
0000
0000
01C0
0240
0440
0840
0B80
08C0
18C0
18C0
1F80
3000
3000
ENDCHAR
STARTCHAR gamma
ENCODING 947
SWIDTH 960 0
DWIDTH 12 0
BBX 12 13 0 -2
BITMAP
0000
0000
0000
0000
1880
3500
0600
0400
0400
0C00
0C00
0800
0000
ENDCHAR
STARTCHAR delta
ENCODING 948
SWIDTH 960 0
DWIDTH 12 0
BBX 12 13 0 -2
BITMAP
0000
0000
0E00
1380
0800
0E00
1300
3100
2300
2600
1C00
0000
0000
ENDCHAR
STARTCHAR epsilon
ENCODING 949
SWIDTH 960 0
DWIDTH 12 0
BBX 12 13 0 -2
BITMAP
0000
0000
0000
0000
0700
0D80
0800
0700
0C00
1800
0F00
0000
0000
ENDCHAR
STARTCHAR zeta
ENCODING 950
SWIDTH 960 0
DWIDTH 12 0
BBX 12 13 0 -2
BITMAP
0000
0000
0800
0F80
0700
0800
0800
1000
1800
0E00
0700
0D80
0700
ENDCHAR
STARTCHAR eta
ENCODING 951
SWIDTH 960 0
DWIDTH 12 0
BBX 12 13 0 -2
BITMAP
0000
0000
0000
0000
1200
3D00
0980
1180
1100
3100
2300
0200
0200
ENDCHAR
STARTCHAR theta
ENCODING 952
SWIDTH 960 0
DWIDTH 12 0
BBX 12 13 0 -2
BITMAP
0000
0000
0380
0480
1880
1080
3F80
3180
2100
2200
1C00
0000
0000
ENDCHAR
STARTCHAR iota
ENCODING 953
SWIDTH 960 0
DWIDTH 12 0
BBX 12 13 0 -2
BITMAP
0000
0000
0000
0000
0200
0600
0400
0C00
0800
0C00
0600
0000
0000
ENDCHAR
STARTCHAR kappa
ENCODING 954
SWIDTH 960 0
DWIDTH 12 0
BBX 12 13 0 -2
BITMAP
0000
0000
0000
0000
08C0
0980
1A00
1C00
1200
3200
3380
0000
0000
ENDCHAR
STARTCHAR lambda
ENCODING 955
SWIDTH 960 0
DWIDTH 12 0
BBX 12 13 0 -2
BITMAP
0000
0000
0E00
0300
0300
0700
0500
0900
1900
1100
3180
0000
0000
ENDCHAR
STARTCHAR mu
ENCODING 956
SWIDTH 960 0
DWIDTH 12 0
BBX 12 13 0 -2
BITMAP
0000
0000
0000
0000
1000
1180
1180
3100
2100
3300
3FC0
6000
6000
ENDCHAR
STARTCHAR nu
ENCODING 957
SWIDTH 960 0
DWIDTH 12 0
BBX 12 13 0 -2
BITMAP
0000
0000
0000
0000
0000
3180
1100
1100
1200
1C00
3800
0000
0000
ENDCHAR
STARTCHAR xi
ENCODING 958
SWIDTH 960 0
DWIDTH 12 0
BBX 12 13 0 -2
BITMAP
0000
0C00
1380
0F00
1800
1000
0F00
1300
2000
3800
1E00
0300
1E00
ENDCHAR
STARTCHAR omicron
ENCODING 959
SWIDTH 960 0
DWIDTH 12 0
BBX 12 13 0 -2
BITMAP
0000
0000
0000
0000
0200
0D00
1880
3180
3180
1300
0E00
0000
0000
ENDCHAR
STARTCHAR pi
ENCODING 960
SWIDTH 960 0
DWIDTH 12 0
BBX 12 13 0 -2
BITMAP
0000
0000
0000
0000
3FC0
5100
1100
1100
2200
2200
6300
0000
0000
ENDCHAR
STARTCHAR rho
ENCODING 961
SWIDTH 960 0
DWIDTH 12 0
BBX 12 13 0 -2
BITMAP
0000
0000
0000
0000
0780
0CC0
18C0
18C0
30C0
3180
3F00
6000
6000
ENDCHAR
STARTCHAR sigma1
ENCODING 962
SWIDTH 960 0
DWIDTH 12 0
BBX 12 13 0 -2
BITMAP
0000
0000
0000
0000
0700
0C80
1980
1800
1800
0E00
0100
0600
0000
ENDCHAR
STARTCHAR sigma
ENCODING 963
SWIDTH 960 0
DWIDTH 12 0
BBX 12 13 0 -2
BITMAP
0000
0000
0000
0000
03C0
0F00
1880
3080
3180
3300
1E00
0000
0000
ENDCHAR
STARTCHAR tau
ENCODING 964
SWIDTH 960 0
DWIDTH 12 0
BBX 12 13 0 -2
BITMAP
0000
0000
0000
0000
1880
3F80
2400
0C00
0800
1800
0C00
0000
0000
ENDCHAR
STARTCHAR upsilon
ENCODING 965
SWIDTH 960 0
DWIDTH 12 0
BBX 12 13 0 -2
BITMAP
0000
0000
0000
0000
1000
1100
3180
3180
2100
2300
1E00
0000
0000
ENDCHAR
STARTCHAR phi
ENCODING 966
SWIDTH 960 0
DWIDTH 12 0
BBX 12 13 0 -2
BITMAP
0000
0000
0000
0000
0000
1B80
1280
32C0
34C0
1D80
0F00
0800
0800
ENDCHAR
STARTCHAR chi
ENCODING 967
SWIDTH 960 0
DWIDTH 12 0
BBX 12 13 0 -2
BITMAP
0000
0000
0C40
06C0
0280
0300
0200
0600
0E00
0A00
1200
3300
2180
ENDCHAR
STARTCHAR psi
ENCODING 968
SWIDTH 960 0
DWIDTH 12 0
BBX 12 13 0 -2
BITMAP
0000
0000
0100
0100
2300
72C0
1240
1240
34C0
3580
1F00
0800
0800
ENDCHAR
STARTCHAR omega
ENCODING 969
SWIDTH 960 0
DWIDTH 12 0
BBX 12 13 0 -2
BITMAP
0000
0000
0000
0000
0000
1040
2240
2640
2440
2480
3F80
0000
0000
ENDCHAR
STARTCHAR iotadieresis
ENCODING 970
SWIDTH 960 0
DWIDTH 12 0
BBX 12 13 0 -2
BITMAP
0000
1B00
1B00
0000
0400
0C00
0800
1800
1000
1800
0C00
0000
0000
ENDCHAR
STARTCHAR upsilondieresis
ENCODING 971
SWIDTH 960 0
DWIDTH 12 0
BBX 12 13 0 -2
BITMAP
0000
1B00
1B00
0000
1000
1100
3180
3180
2100
2300
1E00
0000
0000
ENDCHAR
STARTCHAR omicrontonos
ENCODING 972
SWIDTH 960 0
DWIDTH 12 0
BBX 12 13 0 -2
BITMAP
0180
0300
0400
0000
0200
0D00
1880
3180
3180
1300
0E00
0000
0000
ENDCHAR
STARTCHAR upsilontonos
ENCODING 973
SWIDTH 960 0
DWIDTH 12 0
BBX 12 13 0 -2
BITMAP
0300
0600
0800
0000
1000
1100
3180
3180
2100
2300
1E00
0000
0000
ENDCHAR
STARTCHAR omegatonos
ENCODING 974
SWIDTH 960 0
DWIDTH 12 0
BBX 12 13 0 -2
BITMAP
0000
0180
0300
0400
0000
1040
2240
2640
2440
2480
3F80
0000
0000
ENDCHAR
STARTCHAR theta1
ENCODING 977
SWIDTH 960 0
DWIDTH 12 0
BBX 12 13 0 -2
BITMAP
0000
0000
0380
0480
0880
1080
0FC0
0180
2100
2200
1C00
0000
0000
ENDCHAR
STARTCHAR phi1
ENCODING 981
SWIDTH 960 0
DWIDTH 12 0
BBX 12 13 0 -2
BITMAP
0000
0000
0100
0100
0700
1B80
1280
32C0
34C0
1D80
0F00
0800
0800
ENDCHAR
STARTCHAR omega1
ENCODING 982
SWIDTH 960 0
DWIDTH 12 0
BBX 12 13 0 -2
BITMAP
0000
0000
0000
0000
0000
7FE0
2240
2640
2440
2480
3F80
0000
0000
ENDCHAR
STARTCHAR uni03F1
ENCODING 1009
SWIDTH 960 0
DWIDTH 12 0
BBX 12 13 0 -2
BITMAP
0000
0000
0000
0000
0380
0640
0C40
0840
18C0
1CC0
1B80
3000
1F00
ENDCHAR
STARTCHAR uni0400
ENCODING 1024
SWIDTH 960 0
DWIDTH 12 0
BBX 12 13 0 -2
BITMAP
1800
0C00
0200
7F80
3040
3100
3F00
3100
3000
3040
7F80
0000
0000
ENDCHAR
STARTCHAR afii10023
ENCODING 1025
SWIDTH 960 0
DWIDTH 12 0
BBX 12 13 0 -2
BITMAP
3300
3300
0000
7F80
3000
3100
3F00
3100
3000
3040
7F80
0000
0000
ENDCHAR
STARTCHAR afii10051
ENCODING 1026
SWIDTH 960 0
DWIDTH 12 0
BBX 12 13 0 -2
BITMAP
0000
FF00
9900
1800
1B00
1D80
18C0
18C0
18C0
18C0
3CC0
0180
0700
ENDCHAR
STARTCHAR afii10052
ENCODING 1027
SWIDTH 960 0
DWIDTH 12 0
BBX 12 13 0 -2
BITMAP
0300
0600
0800
3FC0
18C0
1840
1800
1800
1800
1800
3E00
0000
0000
ENDCHAR
STARTCHAR afii10053
ENCODING 1028
SWIDTH 960 0
DWIDTH 12 0
BBX 12 13 0 -2
BITMAP
0000
0000
0F00
31C0
2000
6300
6E80
7800
2000
31C0
1F80
0000
0000
ENDCHAR
STARTCHAR afii10054
ENCODING 1029
SWIDTH 960 0
DWIDTH 12 0
BBX 12 13 0 -2
BITMAP
0000
0000
0E80
1180
3080
1C00
0F00
0380
20C0
30C0
2F80
0000
0000
ENDCHAR
STARTCHAR afii10055
ENCODING 1030
SWIDTH 960 0
DWIDTH 12 0
BBX 12 13 0 -2
BITMAP
0000
0000
1F80
0600
0600
0600
0600
0600
0600
0600
1F80
0000
0000
ENDCHAR
STARTCHAR afii10056
ENCODING 1031
SWIDTH 960 0
DWIDTH 12 0
BBX 12 13 0 -2
BITMAP
1980
1980
0000
1F80
0600
0600
0600
0600
0600
0600
1F80
0000
0000
ENDCHAR
STARTCHAR afii10057
ENCODING 1032
SWIDTH 960 0
DWIDTH 12 0
BBX 12 13 0 -2
BITMAP
0000
0000
07C0
0180
0180
0180
0180
6180
6180
6300
3E00
0000
0000
ENDCHAR
STARTCHAR afii10058
ENCODING 1033
SWIDTH 960 0
DWIDTH 12 0
BBX 12 13 0 -2
BITMAP
0000
0000
FE00
6C00
6C00
6F00
6C80
6CC0
6CC0
6CC0
EF80
0000
0000
ENDCHAR
STARTCHAR afii10059
ENCODING 1034
SWIDTH 960 0
DWIDTH 12 0
BBX 12 13 0 -2
BITMAP
0000
0000
EE00
6C00
6C00
7F00
6C80
6CC0
6CC0
6CC0
EF80
0000
0000
ENDCHAR
STARTCHAR afii10060
ENCODING 1035
SWIDTH 960 0
DWIDTH 12 0
BBX 12 13 0 -2
BITMAP
0000
FF00
9900
1800
1B00
1D80
18C0
18C0
18C0
18C0
3DE0
0000
0000
ENDCHAR
STARTCHAR afii10061
ENCODING 1036
SWIDTH 960 0
DWIDTH 12 0
BBX 12 13 0 -2
BITMAP
0180
0300
0400
78E0
3120
3200
3E00
3300
3180
30C0
78E0
0000
0000
ENDCHAR
STARTCHAR uni040D
ENCODING 1037
SWIDTH 960 0
DWIDTH 12 0
BBX 12 13 0 -2
BITMAP
0C00
0600
0100
78E0
30C0
31C0
32C0
34C0
38C0
30C0
78E0
0000
0000
ENDCHAR
STARTCHAR afii10062
ENCODING 1038
SWIDTH 960 0
DWIDTH 12 0
BBX 12 13 0 -2
BITMAP
1B00
0E00
0000
71C0
3080
3180
1900
1900
0E00
0E00
2400
6800
3000
ENDCHAR
STARTCHAR afii10145
ENCODING 1039
SWIDTH 960 0
DWIDTH 12 0
BBX 12 13 0 -2
BITMAP
0000
0000
79E0
30C0
30C0
30C0
30C0
30C0
30C0
30C0
7FE0
0600
0600
ENDCHAR
STARTCHAR afii10017
ENCODING 1040
SWIDTH 960 0
DWIDTH 12 0
BBX 12 13 0 -2
BITMAP
0000
0000
0200
0200
0700
0980
0980
10C0
1FC0
30C0
70E0
0000
0000
ENDCHAR
STARTCHAR afii10018
ENCODING 1041
SWIDTH 960 0
DWIDTH 12 0
BBX 12 13 0 -2
BITMAP
0000
0000
3FC0
1840
1800
1F00
18C0
18C0
18C0
18C0
3F00
0000
0000
ENDCHAR
STARTCHAR afii10019
ENCODING 1042
SWIDTH 960 0
DWIDTH 12 0
BBX 12 13 0 -2
BITMAP
0000
0000
7E00
3180
3180
3180
3F00
3080
30C0
30C0
7F80
0000
0000
ENDCHAR
STARTCHAR afii10020
ENCODING 1043
SWIDTH 960 0
DWIDTH 12 0
BBX 12 13 0 -2
BITMAP
0000
0000
3FC0
18C0
1840
1800
1800
1800
1800
1800
3E00
0000
0000
ENDCHAR
STARTCHAR afii10021
ENCODING 1044
SWIDTH 960 0
DWIDTH 12 0
BBX 12 13 0 -2
BITMAP
0000
0000
3FC0
1180
1180
1180
1180
1180
1180
2180
3FC0
60C0
4040
ENDCHAR
STARTCHAR afii10022
ENCODING 1045
SWIDTH 960 0
DWIDTH 12 0
BBX 12 13 0 -2
BITMAP
0000
0000
7F80
3080
3000
3100
3F00
3100
3000
3040
7F80
0000
0000
ENDCHAR
STARTCHAR afii10024
ENCODING 1046
SWIDTH 960 0
DWIDTH 12 0
BBX 12 13 0 -2
BITMAP
0000
0000
6F60
76E0
36C0
36C0
1F80
1680
36C0
2640
6F60
0000
0000
ENDCHAR
STARTCHAR afii10025
ENCODING 1047
SWIDTH 960 0
DWIDTH 12 0
BBX 12 13 0 -2
BITMAP
0000
0000
0F00
38C0
00C0
00C0
0780
00C0
00C0
38C0
1F80
0000
0000
ENDCHAR
STARTCHAR afii10026
ENCODING 1048
SWIDTH 960 0
DWIDTH 12 0
BBX 12 13 0 -2
BITMAP
0000
0000
78E0
30C0
30C0
31C0
32C0
34C0
38C0
30C0
78E0
0000
0000
ENDCHAR
STARTCHAR afii10027
ENCODING 1049
SWIDTH 960 0
DWIDTH 12 0
BBX 12 13 0 -2
BITMAP
0D80
0700
0000
78E0
30C0
31C0
32C0
34C0
38C0
30C0
78E0
0000
0000
ENDCHAR
STARTCHAR afii10028
ENCODING 1050
SWIDTH 960 0
DWIDTH 12 0
BBX 12 13 0 -2
BITMAP
0000
0000
78E0
3120
3100
3200
3E00
3300
3180
30C0
78E0
0000
0000
ENDCHAR
STARTCHAR afii10029
ENCODING 1051
SWIDTH 960 0
DWIDTH 12 0
BBX 12 13 0 -2
BITMAP
0000
0000
1FC0
0980
0980
0980
0980
0980
0980
7180
73C0
0000
0000
ENDCHAR
STARTCHAR afii10030
ENCODING 1052
SWIDTH 960 0
DWIDTH 12 0
BBX 12 13 0 -2
BITMAP
0000
0000
70E0
30C0
39C0
3FC0
36C0
36C0
30C0
30C0
70E0
0000
0000
ENDCHAR
STARTCHAR afii10031
ENCODING 1053
SWIDTH 960 0
DWIDTH 12 0
BBX 12 13 0 -2
BITMAP
0000
0000
78E0
30C0
30C0
30C0
3FC0
30C0
30C0
30C0
78E0
0000
0000
ENDCHAR
STARTCHAR afii10032
ENCODING 1054
SWIDTH 960 0
DWIDTH 12 0
BBX 12 13 0 -2
BITMAP
0000
0000
0E00
3180
60C0
60C0
60C0
60C0
60C0
3180
1F00
0000
0000
ENDCHAR
STARTCHAR afii10033
ENCODING 1055
SWIDTH 960 0
DWIDTH 12 0
BBX 12 13 0 -2
BITMAP
0000
0000
7FE0
30C0
30C0
30C0
30C0
30C0
30C0
30C0
78E0
0000
0000
ENDCHAR
STARTCHAR afii10034
ENCODING 1056
SWIDTH 960 0
DWIDTH 12 0
BBX 12 13 0 -2
BITMAP
0000
0000
3F00
18C0
18C0
18C0
1F00
1800
1800
1800
3E00
0000
0000
ENDCHAR
STARTCHAR afii10035
ENCODING 1057
SWIDTH 960 0
DWIDTH 12 0
BBX 12 13 0 -2
BITMAP
0000
0000
07C0
1840
3040
3000
3000
3000
3000
1840
0FC0
0000
0000
ENDCHAR
STARTCHAR afii10036
ENCODING 1058
SWIDTH 960 0
DWIDTH 12 0
BBX 12 13 0 -2
BITMAP
0000
0000
3FC0
4620
0600
0600
0600
0600
0600
0600
0F00
0000
0000
ENDCHAR
STARTCHAR afii10037
ENCODING 1059
SWIDTH 960 0
DWIDTH 12 0
BBX 12 13 0 -2
BITMAP
0000
0000
71C0
6080
3080
3180
1900
1900
0E00
0E00
2400
6800
3000
ENDCHAR
STARTCHAR afii10038
ENCODING 1060
SWIDTH 960 0
DWIDTH 12 0
BBX 12 13 0 -2
BITMAP
0000
0000
1F80
0600
1F80
36C0
36C0
36C0
1F80
0600
1F80
0000
0000
ENDCHAR
STARTCHAR afii10039
ENCODING 1061
SWIDTH 960 0
DWIDTH 12 0
BBX 12 13 0 -2
BITMAP
0000
0000
71C0
3100
1A00
0C00
0C00
0E00
1300
2180
61C0
0000
0000
ENDCHAR
STARTCHAR afii10040
ENCODING 1062
SWIDTH 960 0
DWIDTH 12 0
BBX 12 13 0 -2
BITMAP
0000
0000
79E0
30C0
30C0
30C0
30C0
30C0
30C0
30C0
7FE0
0060
0020
ENDCHAR
STARTCHAR afii10041
ENCODING 1063
SWIDTH 960 0
DWIDTH 12 0
BBX 12 13 0 -2
BITMAP
0000
0000
79E0
30C0
30C0
30C0
30C0
1FC0
00C0
00C0
03C0
0000
0000
ENDCHAR
STARTCHAR afii10042
ENCODING 1064
SWIDTH 960 0
DWIDTH 12 0
BBX 12 13 0 -2
BITMAP
0000
0000
76E0
36C0
36C0
36C0
36C0
36C0
36C0
36C0
7FE0
0000
0000
ENDCHAR
STARTCHAR afii10043
ENCODING 1065
SWIDTH 960 0
DWIDTH 12 0
BBX 12 13 0 -2
BITMAP
0000
0000
76E0
36C0
36C0
36C0
36C0
36C0
36C0
36C0
7FE0
0060
0020
ENDCHAR
STARTCHAR afii10044
ENCODING 1066
SWIDTH 960 0
DWIDTH 12 0
BBX 12 13 0 -2
BITMAP
0000
0000
3E00
4C00
0C00
0F80
0CC0
0C60
0C60
0C60
1FC0
0000
0000
ENDCHAR
STARTCHAR afii10045
ENCODING 1067
SWIDTH 960 0
DWIDTH 12 0
BBX 12 13 0 -2
BITMAP
0000
0000
79E0
30C0
30C0
3CC0
33C0
31C0
31C0
33C0
7FE0
0000
0000
ENDCHAR
STARTCHAR afii10046
ENCODING 1068
SWIDTH 960 0
DWIDTH 12 0
BBX 12 13 0 -2
BITMAP
0000
0000
3E00
1800
1800
1F00
1880
18C0
18C0
18C0
3F80
0000
0000
ENDCHAR
STARTCHAR afii10047
ENCODING 1069
SWIDTH 960 0
DWIDTH 12 0
BBX 12 13 0 -2
BITMAP
0000
0000
1E00
7180
0080
18C0
2EC0
03C0
0080
7180
3F00
0000
0000
ENDCHAR
STARTCHAR afii10048
ENCODING 1070
SWIDTH 960 0
DWIDTH 12 0
BBX 12 13 0 -2
BITMAP
0000
0000
7980
3240
3660
3660
3E60
3660
3660
3240
7980
0000
0000
ENDCHAR
STARTCHAR afii10049
ENCODING 1071
SWIDTH 960 0
DWIDTH 12 0
BBX 12 13 0 -2
BITMAP
0000
0000
0FC0
3180
6180
6180
3180
1F80
0D80
1980
71C0
0000
0000
ENDCHAR
STARTCHAR afii10065
ENCODING 1072
SWIDTH 960 0
DWIDTH 12 0
BBX 12 13 0 -2
BITMAP
0000
0000
0000
0000
1F00
3180
3180
0F80
3180
6380
3DC0
0000
0000
ENDCHAR
STARTCHAR afii10066
ENCODING 1073
SWIDTH 960 0
DWIDTH 12 0
BBX 12 13 0 -2
BITMAP
0000
0080
0F00
1000
3600
3B00
3180
3180
3180
1980
0F00
0000
0000
ENDCHAR
STARTCHAR afii10067
ENCODING 1074
SWIDTH 960 0
DWIDTH 12 0
BBX 12 13 0 -2
BITMAP
0000
0000
0000
0000
3F80
18C0
18C0
1F80
18C0
18C0
3F80
0000
0000
ENDCHAR
STARTCHAR afii10068
ENCODING 1075
SWIDTH 960 0
DWIDTH 12 0
BBX 12 13 0 -2
BITMAP
0000
0000
0000
0000
3FC0
18C0
1840
1800
1800
1800
3E00
0000
0000
ENDCHAR
STARTCHAR afii10069
ENCODING 1076
SWIDTH 960 0
DWIDTH 12 0
BBX 12 13 0 -2
BITMAP
0000
0000
0000
0000
3FC0
1180
1180
1180
1180
1180
7F80
4080
0000
ENDCHAR
STARTCHAR afii10070
ENCODING 1077
SWIDTH 960 0
DWIDTH 12 0
BBX 12 13 0 -2
BITMAP
0000
0000
0000
0000
0F00
1980
30C0
3FC0
3000
1840
0F80
0000
0000
ENDCHAR
STARTCHAR afii10072
ENCODING 1078
SWIDTH 960 0
DWIDTH 12 0
BBX 12 13 0 -2
BITMAP
0000
0000
0000
0000
4F20
6660
1680
1F80
1680
36C0
6F60
0000
0000
ENDCHAR
STARTCHAR afii10073
ENCODING 1079
SWIDTH 960 0
DWIDTH 12 0
BBX 12 13 0 -2
BITMAP
0000
0000
0000
0000
0F00
1980
30C0
0780
00C0
30C0
1F80
0000
0000
ENDCHAR
STARTCHAR afii10074
ENCODING 1080
SWIDTH 960 0
DWIDTH 12 0
BBX 12 13 0 -2
BITMAP
0000
0000
0000
0000
79E0
30C0
31C0
32C0
34C0
38C0
79E0
0000
0000
ENDCHAR
STARTCHAR afii10075
ENCODING 1081
SWIDTH 960 0
DWIDTH 12 0
BBX 12 13 0 -2
BITMAP
0000
0D80
0700
0000
79E0
30C0
31C0
32C0
34C0
38C0
79E0
0000
0000
ENDCHAR
STARTCHAR afii10076
ENCODING 1082
SWIDTH 960 0
DWIDTH 12 0
BBX 12 13 0 -2
BITMAP
0000
0000
0000
0000
78C0
3140
3200
3E00
3300
3180
78C0
0000
0000
ENDCHAR
STARTCHAR afii10077
ENCODING 1083
SWIDTH 960 0
DWIDTH 12 0
BBX 12 13 0 -2
BITMAP
0000
0000
0000
0000
1FC0
0980
0980
0980
0980
7180
73C0
0000
0000
ENDCHAR
STARTCHAR afii10078
ENCODING 1084
SWIDTH 960 0
DWIDTH 12 0
BBX 12 13 0 -2
BITMAP
0000
0000
0000
0000
70E0
39C0
39C0
3FC0
36C0
30C0
70E0
0000
0000
ENDCHAR
STARTCHAR afii10079
ENCODING 1085
SWIDTH 960 0
DWIDTH 12 0
BBX 12 13 0 -2
BITMAP
0000
0000
0000
0000
79E0
30C0
30C0
3FC0
30C0
30C0
79E0
0000
0000
ENDCHAR
STARTCHAR afii10080
ENCODING 1086
SWIDTH 960 0
DWIDTH 12 0
BBX 12 13 0 -2
BITMAP
0000
0000
0000
0000
0F00
1980
30C0
30C0
30C0
1980
0F00
0000
0000
ENDCHAR
STARTCHAR afii10081
ENCODING 1087
SWIDTH 960 0
DWIDTH 12 0
BBX 12 13 0 -2
BITMAP
0000
0000
0000
0000
7FC0
3180
3180
3180
3180
3180
7BC0
0000
0000
ENDCHAR
STARTCHAR afii10082
ENCODING 1088
SWIDTH 960 0
DWIDTH 12 0
BBX 12 13 0 -2
BITMAP
0000
0000
0000
0000
3B00
1D80
18C0
18C0
18C0
1D80
1B00
1800
3C00
ENDCHAR
STARTCHAR afii10083
ENCODING 1089
SWIDTH 960 0
DWIDTH 12 0
BBX 12 13 0 -2
BITMAP
0000
0000
0000
0000
0F80
18C0
3000
3000
3000
18C0
0F80
0000
0000
ENDCHAR
STARTCHAR afii10084
ENCODING 1090
SWIDTH 960 0
DWIDTH 12 0
BBX 12 13 0 -2
BITMAP
0000
0000
0000
0000
1F80
36C0
2640
0600
0600
0600
0F00
0000
0000
ENDCHAR
STARTCHAR afii10085
ENCODING 1091
SWIDTH 960 0
DWIDTH 12 0
BBX 12 13 0 -2
BITMAP
0000
0000
0000
0000
79E0
30C0
1980
1980
0F00
0E00
2400
6400
3800
ENDCHAR
STARTCHAR afii10086
ENCODING 1092
SWIDTH 960 0
DWIDTH 12 0
BBX 12 13 0 -2
BITMAP
0000
0000
0200
0600
1680
3FC0
6660
6660
6660
6660
3FC0
0600
0F00
ENDCHAR
STARTCHAR afii10087
ENCODING 1093
SWIDTH 960 0
DWIDTH 12 0
BBX 12 13 0 -2
BITMAP
0000
0000
0000
0000
39C0
1880
0D00
0600
0F00
1180
3BC0
0000
0000
ENDCHAR
STARTCHAR afii10088
ENCODING 1094
SWIDTH 960 0
DWIDTH 12 0
BBX 12 13 0 -2
BITMAP
0000
0000
0000
0000
7BC0
3180
3180
3180
3180
3180
3F80
0180
0080
ENDCHAR
STARTCHAR afii10089
ENCODING 1095
SWIDTH 960 0
DWIDTH 12 0
BBX 12 13 0 -2
BITMAP
0000
0000
0000
0000
79E0
30C0
30C0
30C0
0FC0
00C0
01E0
0000
0000
ENDCHAR
STARTCHAR afii10090
ENCODING 1096
SWIDTH 960 0
DWIDTH 12 0
BBX 12 13 0 -2
BITMAP
0000
0000
0000
0000
76E0
36C0
36C0
36C0
36C0
36C0
7FE0
0000
0000
ENDCHAR
STARTCHAR afii10091
ENCODING 1097
SWIDTH 960 0
DWIDTH 12 0
BBX 12 13 0 -2
BITMAP
0000
0000
0000
0000
76E0
36C0
36C0
36C0
36C0
36C0
7FE0
0060
0020
ENDCHAR
STARTCHAR afii10092
ENCODING 1098
SWIDTH 960 0
DWIDTH 12 0
BBX 12 13 0 -2
BITMAP
0000
0000
0000
0000
3E00
2C00
4C00
0FC0
0CC0
0CC0
0FC0
0000
0000
ENDCHAR
STARTCHAR afii10093
ENCODING 1099
SWIDTH 960 0
DWIDTH 12 0
BBX 12 13 0 -2
BITMAP
0000
0000
0000
0000
79E0
30C0
30C0
3EC0
33C0
33C0
3FE0
0000
0000
ENDCHAR
STARTCHAR afii10094
ENCODING 1100
SWIDTH 960 0
DWIDTH 12 0
BBX 12 13 0 -2
BITMAP
0000
0000
0000
0000
3C00
1800
1800
1F80
18C0
18C0
1F80
0000
0000
ENDCHAR
STARTCHAR afii10095
ENCODING 1101
SWIDTH 960 0
DWIDTH 12 0
BBX 12 13 0 -2
BITMAP
0000
0000
0000
0000
0F00
1980
30C0
06C0
0BC0
30C0
1F80
0000
0000
ENDCHAR
STARTCHAR afii10096
ENCODING 1102
SWIDTH 960 0
DWIDTH 12 0
BBX 12 13 0 -2
BITMAP
0000
0000
0000
0000
7980
3240
3660
3E60
3660
3240
7980
0000
0000
ENDCHAR
STARTCHAR afii10097
ENCODING 1103
SWIDTH 960 0
DWIDTH 12 0
BBX 12 13 0 -2
BITMAP
0000
0000
0000
0000
0FC0
3180
3180
3180
0F80
1980
33C0
0000
0000
ENDCHAR
STARTCHAR uni0450
ENCODING 1104
SWIDTH 960 0
DWIDTH 12 0
BBX 12 13 0 -2
BITMAP
0C00
0600
0100
0000
0F00
1880
30C0
3FC0
3000
1840
0F80
0000
0000
ENDCHAR
STARTCHAR afii10071
ENCODING 1105
SWIDTH 960 0
DWIDTH 12 0
BBX 12 13 0 -2
BITMAP
0000
0D80
0D80
0000
0F00
1980
30C0
3FC0
3000
1840
0F80
0000
0000
ENDCHAR
STARTCHAR afii10099
ENCODING 1106
SWIDTH 960 0
DWIDTH 12 0
BBX 12 13 0 -2
BITMAP
0000
0000
1800
1800
7E00
1800
1B00
1D80
18C0
18C0
3CC0
0180
0700
ENDCHAR
STARTCHAR afii10100
ENCODING 1107
SWIDTH 960 0
DWIDTH 12 0
BBX 12 13 0 -2
BITMAP
0300
0600
0800
0000
3FC0
18C0
1840
1800
1800
1800
3E00
0000
0000
ENDCHAR
STARTCHAR afii10101
ENCODING 1108
SWIDTH 960 0
DWIDTH 12 0
BBX 12 13 0 -2
BITMAP
0000
0000
0000
0000
0F00
1980
30C0
3600
3D00
30C0
1F80
0000
0000
ENDCHAR
STARTCHAR afii10102
ENCODING 1109
SWIDTH 960 0
DWIDTH 12 0
BBX 12 13 0 -2
BITMAP
0000
0000
0000
0000
1F80
3080
3000
1F80
00C0
30C0
2F80
0000
0000
ENDCHAR
STARTCHAR afii10103
ENCODING 1110
SWIDTH 960 0
DWIDTH 12 0
BBX 12 13 0 -2
BITMAP
0000
0200
0700
0200
0000
1E00
0600
0600
0600
0600
1F80
0000
0000
ENDCHAR
STARTCHAR afii10104
ENCODING 1111
SWIDTH 960 0
DWIDTH 12 0
BBX 12 13 0 -2
BITMAP
0000
1980
1980
0000
0000
1E00
0600
0600
0600
0600
1F80
0000
0000
ENDCHAR
STARTCHAR afii10105
ENCODING 1112
SWIDTH 960 0
DWIDTH 12 0
BBX 12 13 0 -2
BITMAP
0000
0200
0700
0200
0000
1F00
0300
0300
0300
0300
1300
3200
1C00
ENDCHAR
STARTCHAR afii10106
ENCODING 1113
SWIDTH 960 0
DWIDTH 12 0
BBX 12 13 0 -2
BITMAP
0000
0000
0000
0000
FE00
6C00
6C00
6F80
6CC0
6CC0
EF80
0000
0000
ENDCHAR
STARTCHAR afii10107
ENCODING 1114
SWIDTH 960 0
DWIDTH 12 0
BBX 12 13 0 -2
BITMAP
0000
0000
0000
0000
EE00
6C00
6C00
7F80
6CC0
6CC0
EF80
0000
0000
ENDCHAR
STARTCHAR afii10108
ENCODING 1115
SWIDTH 960 0
DWIDTH 12 0
BBX 12 13 0 -2
BITMAP
0000
0000
1800
1800
7E00
1800
1B00
1D80
18C0
18C0
3DE0
0000
0000
ENDCHAR
STARTCHAR afii10109
ENCODING 1116
SWIDTH 960 0
DWIDTH 12 0
BBX 12 13 0 -2
BITMAP
0300
0600
0800
0000
78C0
3140
3200
3E00
3300
3180
78C0
0000
0000
ENDCHAR
STARTCHAR uni045D
ENCODING 1117
SWIDTH 960 0
DWIDTH 12 0
BBX 12 13 0 -2
BITMAP
0C00
0600
0100
0000
79E0
30C0
31C0
32C0
34C0
38C0
79E0
0000
0000
ENDCHAR
STARTCHAR afii10110
ENCODING 1118
SWIDTH 960 0
DWIDTH 12 0
BBX 12 13 0 -2
BITMAP
0000
1B00
0E00
0000
79E0
30C0
1980
1980
0F00
0E00
2400
6400
3800
ENDCHAR
STARTCHAR afii10193
ENCODING 1119
SWIDTH 960 0
DWIDTH 12 0
BBX 12 13 0 -2
BITMAP
0000
0000
0000
0000
7BC0
3180
3180
3180
3180
3180
7FC0
0400
0000
ENDCHAR
STARTCHAR afii10050
ENCODING 1168
SWIDTH 960 0
DWIDTH 12 0
BBX 12 13 0 -2
BITMAP
0040
00C0
3FC0
1800
1800
1800
1800
1800
1800
1800
3E00
0000
0000
ENDCHAR
STARTCHAR afii10098
ENCODING 1169
SWIDTH 960 0
DWIDTH 12 0
BBX 12 13 0 -2
BITMAP
0000
0000
0040
00C0
3FC0
1800
1800
1800
1800
1800
3E00
0000
0000
ENDCHAR
STARTCHAR afii57664
ENCODING 1488
SWIDTH 960 0
DWIDTH 12 0
BBX 12 13 0 -2
BITMAP
0000
4180
61C0
30C0
1900
3E00
4600
4300
2180
30C0
7040
0000
0000
ENDCHAR
STARTCHAR afii57665
ENCODING 1489
SWIDTH 960 0
DWIDTH 12 0
BBX 12 13 0 -2
BITMAP
0000
4000
7F00
3F80
0080
0080
0080
0080
0080
3FC0
7F80
0000
0000
ENDCHAR
STARTCHAR afii57666
ENCODING 1490
SWIDTH 960 0
DWIDTH 12 0
BBX 12 13 0 -2
BITMAP
0000
1000
1C00
0E00
0200
0200
0200
0200
0600
1F00
3980
0000
0000
ENDCHAR
STARTCHAR afii57667
ENCODING 1491
SWIDTH 960 0
DWIDTH 12 0
BBX 12 13 0 -2
BITMAP
0000
4000
7FC0
3FC0
0080
0080
0080
0080
0080
0080
0080
0000
0000
ENDCHAR
STARTCHAR afii57668
ENCODING 1492
SWIDTH 960 0
DWIDTH 12 0
BBX 12 13 0 -2
BITMAP
0000
4000
7FC0
3FC0
0080
0080
2080
2080
2080
2080
2080
0000
0000
ENDCHAR
STARTCHAR afii57669
ENCODING 1493
SWIDTH 960 0
DWIDTH 12 0
BBX 12 13 0 -2
BITMAP
0000
1000
1C00
0E00
0200
0200
0200
0200
0200
0200
0200
0000
0000
ENDCHAR
STARTCHAR afii57670
ENCODING 1494
SWIDTH 960 0
DWIDTH 12 0
BBX 12 13 0 -2
BITMAP
0000
2000
3C00
1E00
0800
0800
0800
0800
0800
0800
0800
0000
0000
ENDCHAR
STARTCHAR afii57671
ENCODING 1495
SWIDTH 960 0
DWIDTH 12 0
BBX 12 13 0 -2
BITMAP
0000
4000
7FC0
3FC0
2080
2080
2080
2080
2080
2080
2080
0000
0000
ENDCHAR
STARTCHAR afii57672
ENCODING 1496
SWIDTH 960 0
DWIDTH 12 0
BBX 12 13 0 -2
BITMAP
0000
4000
71C0
3BC0
2240
2040
2040
2040
20C0
3F80
3F00
0000
0000
ENDCHAR
STARTCHAR afii57673
ENCODING 1497
SWIDTH 960 0
DWIDTH 12 0
BBX 12 13 0 -2
BITMAP
0000
2000
3800
1C00
0400
0400
0400
0000
0000
0000
0000
0000
0000
ENDCHAR
STARTCHAR afii57674
ENCODING 1498
SWIDTH 960 0
DWIDTH 12 0
BBX 12 13 0 -2
BITMAP
0000
2000
3FC0
1FC0
0080
0080
0080
0080
0080
0080
0080
0080
0080
ENDCHAR
STARTCHAR afii57675
ENCODING 1499
SWIDTH 960 0
DWIDTH 12 0
BBX 12 13 0 -2
BITMAP
0000
4000
7F80
3FC0
0040
0040
0040
0040
0040
3F80
7F00
0000
0000
ENDCHAR
STARTCHAR afii57676
ENCODING 1500
SWIDTH 960 0
DWIDTH 12 0
BBX 12 13 0 -2
BITMAP
4000
2000
3FC0
1FC0
0040
0040
0040
0080
0100
0200
0C00
0000
0000
ENDCHAR
STARTCHAR afii57677
ENCODING 1501
SWIDTH 960 0
DWIDTH 12 0
BBX 12 13 0 -2
BITMAP
0000
4000
7F80
3FC0
4040
4040
4040
4040
4040
7FC0
7FC0
0000
0000
ENDCHAR
STARTCHAR afii57678
ENCODING 1502
SWIDTH 960 0
DWIDTH 12 0
BBX 12 13 0 -2
BITMAP
0000
4000
6F80
3FC0
2040
4040
4040
4040
4040
4FC0
5F80
0000
0000
ENDCHAR
STARTCHAR afii57679
ENCODING 1503
SWIDTH 960 0
DWIDTH 12 0
BBX 12 13 0 -2
BITMAP
0000
0800
0F00
0700
0100
0100
0100
0100
0100
0100
0100
0100
0100
ENDCHAR
STARTCHAR afii57680
ENCODING 1504
SWIDTH 960 0
DWIDTH 12 0
BBX 12 13 0 -2
BITMAP
0000
1000
1C00
0E00
0200
0200
0200
0200
0200
0E00
1C00
0000
0000
ENDCHAR
STARTCHAR afii57681
ENCODING 1505
SWIDTH 960 0
DWIDTH 12 0
BBX 12 13 0 -2
BITMAP
0000
4000
7F80
3FC0
2040
2040
2040
2040
2040
3F80
1F00
0000
0000
ENDCHAR
STARTCHAR afii57682
ENCODING 1506
SWIDTH 960 0
DWIDTH 12 0
BBX 12 13 0 -2
BITMAP
0000
4200
7380
39C0
2040
1040
0840
0440
0240
3F80
7F00
0000
0000
ENDCHAR
STARTCHAR afii57683
ENCODING 1507
SWIDTH 960 0
DWIDTH 12 0
BBX 12 13 0 -2
BITMAP
0000
2000
3FC0
1FC0
2080
3080
3080
0080
0080
0080
0080
0080
0080
ENDCHAR
STARTCHAR afii57684
ENCODING 1508
SWIDTH 960 0
DWIDTH 12 0
BBX 12 13 0 -2
BITMAP
0000
4000
7F80
3FC0
2040
3040
3040
0040
0040
7F80
7F00
0000
0000
ENDCHAR
STARTCHAR afii57685
ENCODING 1509
SWIDTH 960 0
DWIDTH 12 0
BBX 12 13 0 -2
BITMAP
4100
71C0
30C0
1100
1200
1400
1800
1000
1000
1000
1000
1000
0000
ENDCHAR
STARTCHAR afii57686
ENCODING 1510
SWIDTH 960 0
DWIDTH 12 0
BBX 12 13 0 -2
BITMAP
0000
4100
71C0
38C0
0900
0A00
0400
0200
0100
7FC0
7F80
0000
0000
ENDCHAR
STARTCHAR afii57687
ENCODING 1511
SWIDTH 960 0
DWIDTH 12 0
BBX 12 13 0 -2
BITMAP
4000
7F80
3FC0
0040
1040
1040
1080
1100
1600
1400
1000
1000
0000
ENDCHAR
STARTCHAR afii57688
ENCODING 1512
SWIDTH 960 0
DWIDTH 12 0
BBX 12 13 0 -2
BITMAP
0000
4000
7F80
3FC0
0040
0040
0040
0040
0040
0040
0040
0000
0000
ENDCHAR
STARTCHAR afii57689
ENCODING 1513
SWIDTH 960 0
DWIDTH 12 0
BBX 12 13 0 -2
BITMAP
0000
4900
6DC0
6DC0
4440
4440
4C40
58C0
7080
7F80
7F00
0000
0000
ENDCHAR
STARTCHAR afii57690
ENCODING 1514
SWIDTH 960 0
DWIDTH 12 0
BBX 12 13 0 -2
BITMAP
0000
4000
7F80
3FC0
1040
2040
2040
2040
1040
3040
7040
0000
0000
ENDCHAR
STARTCHAR uni1200
ENCODING 4608
SWIDTH 960 0
DWIDTH 12 0
BBX 12 13 0 -2
BITMAP
0000
3180
3180
3180
3180
3180
3180
3380
3300
3F00
1C00
0000
0000
ENDCHAR
STARTCHAR uni1201
ENCODING 4609
SWIDTH 960 0
DWIDTH 12 0
BBX 12 13 0 -2
BITMAP
0000
C600
C600
C600
C600
C7E0
C660
CE00
CC00
FC00
7000
0000
0000
ENDCHAR
STARTCHAR uni1202
ENCODING 4610
SWIDTH 960 0
DWIDTH 12 0
BBX 12 13 0 -2
BITMAP
0000
18C0
30C0
30C0
3180
1F80
0F00
0300
0600
0C00
0CC0
0FC0
0000
ENDCHAR
STARTCHAR uni1203
ENCODING 4611
SWIDTH 960 0
DWIDTH 12 0
BBX 12 13 0 -2
BITMAP
0000
18C0
30C0
30C0
3180
1F80
0F00
0300
0600
0C00
0C00
0C00
0000
ENDCHAR
STARTCHAR uni1204
ENCODING 4612
SWIDTH 960 0
DWIDTH 12 0
BBX 12 13 0 -2
BITMAP
0000
18C0
30C0
30C0
3180
1F80
0F00
0300
0600
0780
0640
0380
0000
ENDCHAR
STARTCHAR uni1205
ENCODING 4613
SWIDTH 960 0
DWIDTH 12 0
BBX 12 13 0 -2
BITMAP
0000
30C0
60C0
60C0
18C0
30C0
30C0
30C0
30C0
30C0
1F80
0000
0000
ENDCHAR
STARTCHAR uni1206
ENCODING 4614
SWIDTH 960 0
DWIDTH 12 0
BBX 12 13 0 -2
BITMAP
0000
63C0
6320
63C0
6300
6300
6300
6300
6300
6300
3E00
0000
0000
ENDCHAR
STARTCHAR uni1208
ENCODING 4616
SWIDTH 960 0
DWIDTH 12 0
BBX 12 13 0 -2
BITMAP
0000
0300
0600
0C00
1E00
3300
3180
3180
3180
3180
3180
0000
0000
ENDCHAR
STARTCHAR uni1209
ENCODING 4617
SWIDTH 960 0
DWIDTH 12 0
BBX 12 13 0 -2
BITMAP
0000
0600
0C00
1800
3C00
6600
6300
63E0
6360
6300
6300
0000
0000
ENDCHAR
STARTCHAR uni120A
ENCODING 4618
SWIDTH 960 0
DWIDTH 12 0
BBX 12 13 0 -2
BITMAP
0000
0600
0C00
1800
3C00
6600
6300
6300
6300
6360
63E0
0000
0000
ENDCHAR
STARTCHAR uni120B
ENCODING 4619
SWIDTH 960 0
DWIDTH 12 0
BBX 12 13 0 -2
BITMAP
0000
0300
0600
0C00
1E00
3300
3180
3180
0180
0180
0180
0000
0000
ENDCHAR
STARTCHAR uni120C
ENCODING 4620
SWIDTH 960 0
DWIDTH 12 0
BBX 12 13 0 -2
BITMAP
0000
0600
0C00
1800
3C00
6600
6300
6300
63C0
6320
63C0
0000
0000
ENDCHAR
STARTCHAR uni120D
ENCODING 4621
SWIDTH 960 0
DWIDTH 12 0
BBX 12 13 0 -2
BITMAP
0000
0180
0300
0600
0F00
1980
30C0
30C0
3CC0
32C0
3CC0
0000
0000
ENDCHAR
STARTCHAR uni120E
ENCODING 4622
SWIDTH 960 0
DWIDTH 12 0
BBX 12 13 0 -2
BITMAP
0000
0600
0C00
1800
3C00
6600
63C0
6320
63C0
6300
6300
0000
0000
ENDCHAR
STARTCHAR uni120F
ENCODING 4623
SWIDTH 960 0
DWIDTH 12 0
BBX 12 13 0 -2
BITMAP
0000
0600
0C00
1800
3C00
6600
6300
6300
0300
0300
0300
0FC0
0840
ENDCHAR
STARTCHAR uni1210
ENCODING 4624
SWIDTH 960 0
DWIDTH 12 0
BBX 12 13 0 -2
BITMAP
0000
0600
0600
0600
0600
1F80
36C0
36C0
36C0
36C0
36C0
0000
0000
ENDCHAR
STARTCHAR uni1211
ENCODING 4625
SWIDTH 960 0
DWIDTH 12 0
BBX 12 13 0 -2
BITMAP
0000
1800
1800
1800
1800
7E00
DB00
DBE0
DB60
DB00
DB00
0000
0000
ENDCHAR
STARTCHAR uni1212
ENCODING 4626
SWIDTH 960 0
DWIDTH 12 0
BBX 12 13 0 -2
BITMAP
0000
1800
1800
1800
1800
7E00
DB00
DB00
DB00
DB60
DBE0
0000
0000
ENDCHAR
STARTCHAR uni1213
ENCODING 4627
SWIDTH 960 0
DWIDTH 12 0
BBX 12 13 0 -2
BITMAP
0000
0600
0600
0600
0600
1F80
36C0
36C0
00C0
00C0
00C0
0000
0000
ENDCHAR
STARTCHAR uni1214
ENCODING 4628
SWIDTH 960 0
DWIDTH 12 0
BBX 12 13 0 -2
BITMAP
0000
1800
1800
1800
1800
7E00
DB00
DB00
DBC0
DB20
DBC0
0000
0000
ENDCHAR
STARTCHAR uni1215
ENCODING 4629
SWIDTH 960 0
DWIDTH 12 0
BBX 12 13 0 -2
BITMAP
0000
1800
1C00
0E00
0600
1F80
36C0
36C0
36C0
36C0
36C0
0000
0000
ENDCHAR
STARTCHAR uni1216
ENCODING 4630
SWIDTH 960 0
DWIDTH 12 0
BBX 12 13 0 -2
BITMAP
0000
0600
0600
0600
0600
1F80
36C0
36C0
3000
3000
3000
0000
0000
ENDCHAR
STARTCHAR uni1217
ENCODING 4631
SWIDTH 960 0
DWIDTH 12 0
BBX 12 13 0 -2
BITMAP
0000
0C00
0C00
0C00
0C00
3F00
6D80
6D80
0180
0180
0180
07E0
0420
ENDCHAR
STARTCHAR uni1218
ENCODING 4632
SWIDTH 960 0
DWIDTH 12 0
BBX 12 13 0 -2
BITMAP
0000
0000
0000
3F80
4A40
4A40
4A40
4A40
4A40
3180
0000
0000
0000
ENDCHAR
STARTCHAR uni1219
ENCODING 4633
SWIDTH 960 0
DWIDTH 12 0
BBX 12 13 0 -2
BITMAP
0000
0000
0000
7F00
9480
94F0
94B0
9480
9480
6300
0000
0000
0000
ENDCHAR
STARTCHAR uni121A
ENCODING 4634
SWIDTH 960 0
DWIDTH 12 0
BBX 12 13 0 -2
BITMAP
0000
3F80
4A40
4A40
4A40
4A40
31C0
0040
0080
0100
0260
03E0
0000
ENDCHAR
STARTCHAR uni121B
ENCODING 4635
SWIDTH 960 0
DWIDTH 12 0
BBX 12 13 0 -2
BITMAP
0000
3F80
4A40
4A40
4A40
4A40
31C0
0040
0080
0080
0080
0000
0000
ENDCHAR
STARTCHAR uni121C
ENCODING 4636
SWIDTH 960 0
DWIDTH 12 0
BBX 12 13 0 -2
BITMAP
0000
3F80
4A40
4A40
4A40
4A40
31C0
0080
0100
01C0
0120
01C0
0000
ENDCHAR
STARTCHAR uni121D
ENCODING 4637
SWIDTH 960 0
DWIDTH 12 0
BBX 12 13 0 -2
BITMAP
0000
3F80
4A40
4A40
4A40
4A40
3980
0800
1800
3000
6000
0000
0000
ENDCHAR
STARTCHAR uni121E
ENCODING 4638
SWIDTH 960 0
DWIDTH 12 0
BBX 12 13 0 -2
BITMAP
0000
3F80
4A40
4A40
4A40
4A40
3980
0800
0800
0800
0800
0000
0000
ENDCHAR
STARTCHAR uni121F
ENCODING 4639
SWIDTH 960 0
DWIDTH 12 0
BBX 12 13 0 -2
BITMAP
0000
3F80
4A40
4A40
4A40
4A40
31C0
0080
0080
0100
0100
07C0
0440
ENDCHAR
STARTCHAR uni1220
ENCODING 4640
SWIDTH 960 0
DWIDTH 12 0
BBX 12 13 0 -2
BITMAP
0000
36C0
36C0
36C0
36C0
36C0
36C0
3780
3600
3600
1C00
0000
0000
ENDCHAR
STARTCHAR uni1221
ENCODING 4641
SWIDTH 960 0
DWIDTH 12 0
BBX 12 13 0 -2
BITMAP
0000
DB00
DB00
DB00
DBE0
DB60
DB00
DE00
D800
D800
7000
0000
0000
ENDCHAR
STARTCHAR uni1222
ENCODING 4642
SWIDTH 960 0
DWIDTH 12 0
BBX 12 13 0 -2
BITMAP
0000
6D80
6D80
6D80
6D80
6D80
6D80
3F00
0300
0600
0660
07E0
0000
ENDCHAR
STARTCHAR uni1223
ENCODING 4643
SWIDTH 960 0
DWIDTH 12 0
BBX 12 13 0 -2
BITMAP
0000
36C0
36C0
36C0
36C0
36C0
36C0
1FC0
00C0
00C0
00C0
00C0
0000
ENDCHAR
STARTCHAR uni1224
ENCODING 4644
SWIDTH 960 0
DWIDTH 12 0
BBX 12 13 0 -2
BITMAP
0000
6D80
6D80
6D80
6D80
6D80
6D80
3F80
0180
03C0
0320
01C0
0000
ENDCHAR
STARTCHAR uni1225
ENCODING 4645
SWIDTH 960 0
DWIDTH 12 0
BBX 12 13 0 -2
BITMAP
0000
36C0
36C0
36C0
36C0
36C0
36C0
3F80
3000
6000
6000
6000
0000
ENDCHAR
STARTCHAR uni1226
ENCODING 4646
SWIDTH 960 0
DWIDTH 12 0
BBX 12 13 0 -2
BITMAP
0000
36C0
36C0
36C0
36C0
36C0
36C0
1F80
0600
0C00
0C00
0C00
0000
ENDCHAR
STARTCHAR uni1227
ENCODING 4647
SWIDTH 960 0
DWIDTH 12 0
BBX 12 13 0 -2
BITMAP
0000
6D80
6D80
6D80
6D80
6D80
6D80
3F80
0180
0180
0180
07E0
0420
ENDCHAR
STARTCHAR uni1228
ENCODING 4648
SWIDTH 960 0
DWIDTH 12 0
BBX 12 13 0 -2
BITMAP
0000
0600
0600
0600
0C00
1800
3000
3000
38C0
1FC0
0F80
0000
0000
ENDCHAR
STARTCHAR uni1229
ENCODING 4649
SWIDTH 960 0
DWIDTH 12 0
BBX 12 13 0 -2
BITMAP
0000
0C00
0C00
1800
3000
6000
7000
3FC0
1FC0
0600
0600
0000
0000
ENDCHAR
STARTCHAR uni122A
ENCODING 4650
SWIDTH 960 0
DWIDTH 12 0
BBX 12 13 0 -2
BITMAP
0000
0600
0600
0600
0C00
1800
3180
30C0
38C0
1FC0
0F80
0000
0000
ENDCHAR
STARTCHAR uni122B
ENCODING 4651
SWIDTH 960 0
DWIDTH 12 0
BBX 12 13 0 -2
BITMAP
0000
0C00
0C00
0C00
1800
3000
6000
60E0
71E0
3F00
1E00
0000
0000
ENDCHAR
STARTCHAR uni122C
ENCODING 4652
SWIDTH 960 0
DWIDTH 12 0
BBX 12 13 0 -2
BITMAP
0000
0C00
0C00
0C00
1800
3000
6000
6000
71C0
3F20
1FC0
0000
0000
ENDCHAR
STARTCHAR uni122D
ENCODING 4653
SWIDTH 960 0
DWIDTH 12 0
BBX 12 13 0 -2
BITMAP
0000
0F00
1F80
3180
3000
3000
3000
3000
30C0
3FC0
1F80
0000
0000
ENDCHAR
STARTCHAR uni122E
ENCODING 4654
SWIDTH 960 0
DWIDTH 12 0
BBX 12 13 0 -2
BITMAP
0000
1F80
3E40
6180
6000
6000
6000
6000
6180
7F80
3F00
0000
0000
ENDCHAR
STARTCHAR uni122F
ENCODING 4655
SWIDTH 960 0
DWIDTH 12 0
BBX 12 13 0 -2
BITMAP
0000
2100
3F00
0C00
0C00
1800
3000
6000
60E0
71E0
3F00
1E00
0000
ENDCHAR
STARTCHAR uni1230
ENCODING 4656
SWIDTH 960 0
DWIDTH 12 0
BBX 12 13 0 -2
BITMAP
0000
0400
0400
0E00
1F00
3180
3180
3180
3180
3180
3180
0000
0000
ENDCHAR
STARTCHAR uni1231
ENCODING 4657
SWIDTH 960 0
DWIDTH 12 0
BBX 12 13 0 -2
BITMAP
0000
1000
1000
3800
7C00
C600
C7E0
C660
C600
C600
C600
0000
0000
ENDCHAR
STARTCHAR uni1232
ENCODING 4658
SWIDTH 960 0
DWIDTH 12 0
BBX 12 13 0 -2
BITMAP
0000
1000
1000
3800
7C00
C600
C600
C600
C600
C660
C7E0
0000
0000
ENDCHAR
STARTCHAR uni1233
ENCODING 4659
SWIDTH 960 0
DWIDTH 12 0
BBX 12 13 0 -2
BITMAP
0000
0400
0400
0E00
1F00
3180
3180
3180
0180
0180
0180
0000
0000
ENDCHAR
STARTCHAR uni1234
ENCODING 4660
SWIDTH 960 0
DWIDTH 12 0
BBX 12 13 0 -2
BITMAP
0000
0800
0800
1C00
3E00
6300
6300
6300
63C0
6320
63C0
0000
0000
ENDCHAR
STARTCHAR uni1235
ENCODING 4661
SWIDTH 960 0
DWIDTH 12 0
BBX 12 13 0 -2
BITMAP
0000
1800
0C00
0E00
1F00
3180
3180
3180
3180
3180
3180
0000
0000
ENDCHAR
STARTCHAR uni1236
ENCODING 4662
SWIDTH 960 0
DWIDTH 12 0
BBX 12 13 0 -2
BITMAP
0000
0400
0400
0E00
1F00
3180
3180
3180
3000
3000
3000
0000
0000
ENDCHAR
STARTCHAR uni1237
ENCODING 4663
SWIDTH 960 0
DWIDTH 12 0
BBX 12 13 0 -2
BITMAP
0000
0800
0800
1C00
3E00
6300
6300
6300
0300
0300
0300
0FC0
0840
ENDCHAR
STARTCHAR uni1238
ENCODING 4664
SWIDTH 960 0
DWIDTH 12 0
BBX 12 13 0 -2
BITMAP
0000
1F00
0400
0E00
1F00
3180
3180
3180
3180
3180
3180
0000
0000
ENDCHAR
STARTCHAR uni1239
ENCODING 4665
SWIDTH 960 0
DWIDTH 12 0
BBX 12 13 0 -2
BITMAP
0000
7C00
1000
3800
7C00
C600
C7E0
C660
C600
C600
C600
0000
0000
ENDCHAR
STARTCHAR uni123A
ENCODING 4666
SWIDTH 960 0
DWIDTH 12 0
BBX 12 13 0 -2
BITMAP
0000
7C00
1000
3800
7C00
C600
C600
C600
C600
C660
C7E0
0000
0000
ENDCHAR
STARTCHAR uni123B
ENCODING 4667
SWIDTH 960 0
DWIDTH 12 0
BBX 12 13 0 -2
BITMAP
0000
1F00
0400
0E00
1F00
3180
3180
3180
0180
0180
0180
0000
0000
ENDCHAR
STARTCHAR uni123C
ENCODING 4668
SWIDTH 960 0
DWIDTH 12 0
BBX 12 13 0 -2
BITMAP
0000
3E00
0800
1C00
3E00
6300
6300
6300
63C0
6320
63C0
0000
0000
ENDCHAR
STARTCHAR uni123D
ENCODING 4669
SWIDTH 960 0
DWIDTH 12 0
BBX 12 13 0 -2
BITMAP
0000
3F00
0C00
0700
0F80
18C0
18C0
18C0
18C0
18C0
18C0
0000
0000
ENDCHAR
STARTCHAR uni123E
ENCODING 4670
SWIDTH 960 0
DWIDTH 12 0
BBX 12 13 0 -2
BITMAP
0000
1F00
0400
0E00
1F00
3180
3180
3180
3000
3000
3000
0000
0000
ENDCHAR
STARTCHAR uni123F
ENCODING 4671
SWIDTH 960 0
DWIDTH 12 0
BBX 12 13 0 -2
BITMAP
0000
3E00
0800
1C00
3E00
6300
6300
6300
0300
0300
0300
0FC0
0840
ENDCHAR
STARTCHAR uni1240
ENCODING 4672
SWIDTH 960 0
DWIDTH 12 0
BBX 12 13 0 -2
BITMAP
0000
0600
0600
0600
1F80
36C0
36C0
1F80
0600
0600
0600
0000
0000
ENDCHAR
STARTCHAR uni1241
ENCODING 4673
SWIDTH 960 0
DWIDTH 12 0
BBX 12 13 0 -2
BITMAP
0000
0C00
0C00
3F00
6D80
6D80
3F00
0C00
0FC0
0CC0
0C00
0000
0000
ENDCHAR
STARTCHAR uni1242
ENCODING 4674
SWIDTH 960 0
DWIDTH 12 0
BBX 12 13 0 -2
BITMAP
0000
0C00
0C00
0C00
3F00
6D80
6D80
3F00
0C00
0CC0
0FC0
0000
0000
ENDCHAR
STARTCHAR uni1243
ENCODING 4675
SWIDTH 960 0
DWIDTH 12 0
BBX 12 13 0 -2
BITMAP
0000
0600
0600
0600
1F80
36C0
36C0
1F80
0600
0C00
1800
0000
0000
ENDCHAR
STARTCHAR uni1244
ENCODING 4676
SWIDTH 960 0
DWIDTH 12 0
BBX 12 13 0 -2
BITMAP
0000
0600
0600
1F80
36C0
36C0
1F80
0600
0780
0640
0780
0000
0000
ENDCHAR
STARTCHAR uni1245
ENCODING 4677
SWIDTH 960 0
DWIDTH 12 0
BBX 12 13 0 -2
BITMAP
0000
3000
1E00
0600
1F80
36C0
36C0
1F80
0600
0600
0600
0000
0000
ENDCHAR
STARTCHAR uni1246
ENCODING 4678
SWIDTH 960 0
DWIDTH 12 0
BBX 12 13 0 -2
BITMAP
0000
0F00
1980
0F00
0600
1F80
36C0
36C0
1F80
0600
0600
0000
0000
ENDCHAR
STARTCHAR uni1248
ENCODING 4680
SWIDTH 960 0
DWIDTH 12 0
BBX 12 13 0 -2
BITMAP
0000
0C00
0C00
3F00
6D80
6D80
3F00
0FC0
0D20
0CC0
0C00
0000
0000
ENDCHAR
STARTCHAR uni124A
ENCODING 4682
SWIDTH 960 0
DWIDTH 12 0
BBX 12 13 0 -2
BITMAP
0000
1800
1800
1800
7E40
DB40
DBC0
7E60
1820
1800
1800
0000
0000
ENDCHAR
STARTCHAR uni124B
ENCODING 4683
SWIDTH 960 0
DWIDTH 12 0
BBX 12 13 0 -2
BITMAP
0000
0600
0600
0600
1F80
36C0
36C0
1F80
0600
0600
0600
1F80
1080
ENDCHAR
STARTCHAR uni124C
ENCODING 4684
SWIDTH 960 0
DWIDTH 12 0
BBX 12 13 0 -2
BITMAP
0000
0600
0600
0600
1F80
36C0
36C0
1F80
0600
0780
0640
1F80
1000
ENDCHAR
STARTCHAR uni124D
ENCODING 4685
SWIDTH 960 0
DWIDTH 12 0
BBX 12 13 0 -2
BITMAP
0000
1800
1840
1840
7EE0
DB60
DB00
7E00
1800
1800
1800
0000
0000
ENDCHAR
STARTCHAR uni1250
ENCODING 4688
SWIDTH 960 0
DWIDTH 12 0
BBX 12 13 0 -2
BITMAP
0000
1F80
0600
0600
1F80
36C0
36C0
1F80
0600
0600
0600
0000
0000
ENDCHAR
STARTCHAR uni1251
ENCODING 4689
SWIDTH 960 0
DWIDTH 12 0
BBX 12 13 0 -2
BITMAP
0000
3F00
0C00
3F00
6D80
6D80
3F00
0C00
0FC0
0CC0
0C00
0000
0000
ENDCHAR
STARTCHAR uni1252
ENCODING 4690
SWIDTH 960 0
DWIDTH 12 0
BBX 12 13 0 -2
BITMAP
0000
3F00
0C00
0C00
3F00
6D80
6D80
3F00
0C00
0CC0
0FC0
0000
0000
ENDCHAR
STARTCHAR uni1253
ENCODING 4691
SWIDTH 960 0
DWIDTH 12 0
BBX 12 13 0 -2
BITMAP
0000
1F80
0600
0600
1F80
36C0
36C0
1F80
0600
0C00
1800
0000
0000
ENDCHAR
STARTCHAR uni1254
ENCODING 4692
SWIDTH 960 0
DWIDTH 12 0
BBX 12 13 0 -2
BITMAP
0000
1F80
0600
1F80
36C0
36C0
1F80
0600
0780
0640
0780
0000
0000
ENDCHAR
STARTCHAR uni1255
ENCODING 4693
SWIDTH 960 0
DWIDTH 12 0
BBX 12 13 0 -2
BITMAP
0000
7E00
1800
0E00
0600
1F80
36C0
36C0
1F80
0600
0600
0000
0000
ENDCHAR
STARTCHAR uni1256
ENCODING 4694
SWIDTH 960 0
DWIDTH 12 0
BBX 12 13 0 -2
BITMAP
0000
1F80
0900
0F00
0600
1F80
36C0
36C0
1F80
0600
0600
0000
0000
ENDCHAR
STARTCHAR uni1258
ENCODING 4696
SWIDTH 960 0
DWIDTH 12 0
BBX 12 13 0 -2
BITMAP
0000
3F00
0C00
3F00
6D80
6D80
3F00
0FC0
0D20
0CC0
0C00
0000
0000
ENDCHAR
STARTCHAR uni125A
ENCODING 4698
SWIDTH 960 0
DWIDTH 12 0
BBX 12 13 0 -2
BITMAP
0000
7E00
1800
1800
7E40
DB40
DBC0
7E60
1820
1800
1800
0000
0000
ENDCHAR
STARTCHAR uni125B
ENCODING 4699
SWIDTH 960 0
DWIDTH 12 0
BBX 12 13 0 -2
BITMAP
0000
1F80
0600
0600
1F80
36C0
36C0
1F80
0600
0600
0600
1F80
1080
ENDCHAR
STARTCHAR uni125C
ENCODING 4700
SWIDTH 960 0
DWIDTH 12 0
BBX 12 13 0 -2
BITMAP
0000
1F80
0600
0600
1F80
36C0
36C0
1F80
0600
0780
0640
1F80
1000
ENDCHAR
STARTCHAR uni125D
ENCODING 4701
SWIDTH 960 0
DWIDTH 12 0
BBX 12 13 0 -2
BITMAP
0000
7E00
1840
1840
7EE0
DB60
DB00
7E00
1800
1800
1800
0000
0000
ENDCHAR
STARTCHAR uni1260
ENCODING 4704
SWIDTH 960 0
DWIDTH 12 0
BBX 12 13 0 -2
BITMAP
0000
0F00
1180
3180
3180
3180
3180
3180
3180
3180
3180
0000
0000
ENDCHAR
STARTCHAR uni1261
ENCODING 4705
SWIDTH 960 0
DWIDTH 12 0
BBX 12 13 0 -2
BITMAP
0000
3C00
4600
C600
C600
C600
C7E0
C660
C600
C600
C600
0000
0000
ENDCHAR
STARTCHAR uni1262
ENCODING 4706
SWIDTH 960 0
DWIDTH 12 0
BBX 12 13 0 -2
BITMAP
0000
3C00
4600
C600
C600
C600
C600
C600
C600
C660
C7E0
0000
0000
ENDCHAR
STARTCHAR uni1263
ENCODING 4707
SWIDTH 960 0
DWIDTH 12 0
BBX 12 13 0 -2
BITMAP
0000
0F00
1180
3180
3180
3180
3180
0180
0180
0180
0180
0000
0000
ENDCHAR
STARTCHAR uni1264
ENCODING 4708
SWIDTH 960 0
DWIDTH 12 0
BBX 12 13 0 -2
BITMAP
0000
1E00
2300
6300
6300
6300
6300
6300
63C0
6320
63C0
0000
0000
ENDCHAR
STARTCHAR uni1265
ENCODING 4709
SWIDTH 960 0
DWIDTH 12 0
BBX 12 13 0 -2
BITMAP
0000
03C0
0460
0C60
0C60
0C60
FC60
CC60
0C60
0C60
0C60
0000
0000
ENDCHAR
STARTCHAR uni1266
ENCODING 4710
SWIDTH 960 0
DWIDTH 12 0
BBX 12 13 0 -2
BITMAP
0000
0F00
1180
3180
3180
3180
3180
3000
3000
3000
3000
0000
0000
ENDCHAR
STARTCHAR uni1267
ENCODING 4711
SWIDTH 960 0
DWIDTH 12 0
BBX 12 13 0 -2
BITMAP
0000
1E00
2300
6300
6300
6300
6300
0300
0300
0300
0300
0FC0
0840
ENDCHAR
STARTCHAR uni1268
ENCODING 4712
SWIDTH 960 0
DWIDTH 12 0
BBX 12 13 0 -2
BITMAP
0000
1F80
0000
0F00
1180
3180
3180
3180
3180
3180
3180
0000
0000
ENDCHAR
STARTCHAR uni1269
ENCODING 4713
SWIDTH 960 0
DWIDTH 12 0
BBX 12 13 0 -2
BITMAP
0000
7E00
0000
3C00
4600
C600
C7E0
C660
C600
C600
C600
0000
0000
ENDCHAR
STARTCHAR uni126A
ENCODING 4714
SWIDTH 960 0
DWIDTH 12 0
BBX 12 13 0 -2
BITMAP
0000
7E00
0000
3C00
4600
C600
C600
C600
C600
C660
C7E0
0000
0000
ENDCHAR
STARTCHAR uni126B
ENCODING 4715
SWIDTH 960 0
DWIDTH 12 0
BBX 12 13 0 -2
BITMAP
0000
1F80
0000
0F00
1180
3180
3180
3180
0180
0180
0180
0000
0000
ENDCHAR
STARTCHAR uni126C
ENCODING 4716
SWIDTH 960 0
DWIDTH 12 0
BBX 12 13 0 -2
BITMAP
0000
3F00
0000
1E00
2300
6300
6300
6300
63C0
6320
63C0
0000
0000
ENDCHAR
STARTCHAR uni126D
ENCODING 4717
SWIDTH 960 0
DWIDTH 12 0
BBX 12 13 0 -2
BITMAP
0000
07E0
0000
03C0
0460
0C60
FC60
CC60
0C60
0C60
0C60
0000
0000
ENDCHAR
STARTCHAR uni126E
ENCODING 4718
SWIDTH 960 0
DWIDTH 12 0
BBX 12 13 0 -2
BITMAP
0000
1F80
0000
0F00
1180
3180
3180
3180
3000
3000
3000
0000
0000
ENDCHAR
STARTCHAR uni126F
ENCODING 4719
SWIDTH 960 0
DWIDTH 12 0
BBX 12 13 0 -2
BITMAP
0000
3F00
0000
1E00
2300
6300
6300
6300
0300
0300
0300
0FC0
0840
ENDCHAR
STARTCHAR uni1270
ENCODING 4720
SWIDTH 960 0
DWIDTH 12 0
BBX 12 13 0 -2
BITMAP
0000
0600
0600
0600
0600
3FC0
2640
0600
0600
0600
0600
0000
0000
ENDCHAR
STARTCHAR uni1271
ENCODING 4721
SWIDTH 960 0
DWIDTH 12 0
BBX 12 13 0 -2
BITMAP
0000
0C00
0C00
0C00
7F80
4C80
0C00
0FC0
0CC0
0C00
0C00
0000
0000
ENDCHAR
STARTCHAR uni1272
ENCODING 4722
SWIDTH 960 0
DWIDTH 12 0
BBX 12 13 0 -2
BITMAP
0000
0C00
0C00
0C00
0C00
7F80
4C80
0C00
0C00
0CC0
0FC0
0000
0000
ENDCHAR
STARTCHAR uni1273
ENCODING 4723
SWIDTH 960 0
DWIDTH 12 0
BBX 12 13 0 -2
BITMAP
0000
0600
0600
0600
0600
3FC0
2640
0600
0600
0C00
1800
0000
0000
ENDCHAR
STARTCHAR uni1274
ENCODING 4724
SWIDTH 960 0
DWIDTH 12 0
BBX 12 13 0 -2
BITMAP
0000
0600
0600
0600
0600
3FC0
2640
0600
0780
0640
0780
0000
0000
ENDCHAR
STARTCHAR uni1275
ENCODING 4725
SWIDTH 960 0
DWIDTH 12 0
BBX 12 13 0 -2
BITMAP
0000
1800
1C00
0E00
0600
3FC0
2640
0600
0600
0600
0600
0000
0000
ENDCHAR
STARTCHAR uni1276
ENCODING 4726
SWIDTH 960 0
DWIDTH 12 0
BBX 12 13 0 -2
BITMAP
0000
0F00
1980
0F00
0600
3FC0
2640
0600
0600
0600
0600
0000
0000
ENDCHAR
STARTCHAR uni1277
ENCODING 4727
SWIDTH 960 0
DWIDTH 12 0
BBX 12 13 0 -2
BITMAP
0000
0600
0600
0600
0600
3FC0
2640
0600
0600
0600
0600
1F80
1080
ENDCHAR
STARTCHAR uni1278
ENCODING 4728
SWIDTH 960 0
DWIDTH 12 0
BBX 12 13 0 -2
BITMAP
0000
3FC0
2640
0600
0600
3FC0
2640
0600
0600
0600
0600
0000
0000
ENDCHAR
STARTCHAR uni1279
ENCODING 4729
SWIDTH 960 0
DWIDTH 12 0
BBX 12 13 0 -2
BITMAP
0000
7F80
4C80
0C00
7F80
4C80
0C00
0FC0
0CC0
0C00
0C00
0000
0000
ENDCHAR
STARTCHAR uni127A
ENCODING 4730
SWIDTH 960 0
DWIDTH 12 0
BBX 12 13 0 -2
BITMAP
0000
7F80
4C80
0C00
0C00
7F80
4C80
0C00
0C00
0CC0
0FC0
0000
0000
ENDCHAR
STARTCHAR uni127B
ENCODING 4731
SWIDTH 960 0
DWIDTH 12 0
BBX 12 13 0 -2
BITMAP
0000
3FC0
2640
0600
0600
3FC0
2640
0600
0600
0C00
1800
0000
0000
ENDCHAR
STARTCHAR uni127C
ENCODING 4732
SWIDTH 960 0
DWIDTH 12 0
BBX 12 13 0 -2
BITMAP
0000
3FC0
2640
0600
0600
3FC0
2640
0600
0780
0640
0780
0000
0000
ENDCHAR
STARTCHAR uni127D
ENCODING 4733
SWIDTH 960 0
DWIDTH 12 0
BBX 12 13 0 -2
BITMAP
0000
7FC0
4E40
0700
0300
1FE0
1320
0300
0300
0300
0300
0000
0000
ENDCHAR
STARTCHAR uni127E
ENCODING 4734
SWIDTH 960 0
DWIDTH 12 0
BBX 12 13 0 -2
BITMAP
0000
3FC0
2940
0F00
0600
3FC0
2640
0600
0600
0600
0600
0000
0000
ENDCHAR
STARTCHAR uni127F
ENCODING 4735
SWIDTH 960 0
DWIDTH 12 0
BBX 12 13 0 -2
BITMAP
0000
3FC0
2640
0600
0600
3FC0
2640
0600
0600
0600
0600
1F80
1080
ENDCHAR
STARTCHAR uni1280
ENCODING 4736
SWIDTH 960 0
DWIDTH 12 0
BBX 12 13 0 -2
BITMAP
0000
0600
0600
3E00
3380
0180
0180
0180
0180
0180
0180
0000
0000
ENDCHAR
STARTCHAR uni1281
ENCODING 4737
SWIDTH 960 0
DWIDTH 12 0
BBX 12 13 0 -2
BITMAP
0000
1800
1800
F800
CE00
0600
07E0
0660
0600
0600
0600
0000
0000
ENDCHAR
STARTCHAR uni1282
ENCODING 4738
SWIDTH 960 0
DWIDTH 12 0
BBX 12 13 0 -2
BITMAP
0000
1800
1800
F800
CE00
0600
0600
0600
0600
0660
07E0
0000
0000
ENDCHAR
STARTCHAR uni1283
ENCODING 4739
SWIDTH 960 0
DWIDTH 12 0
BBX 12 13 0 -2
BITMAP
0000
0600
0600
3E00
3380
0180
0180
0180
0300
0600
0C00
0000
0000
ENDCHAR
STARTCHAR uni1284
ENCODING 4740
SWIDTH 960 0
DWIDTH 12 0
BBX 12 13 0 -2
BITMAP
0000
0C00
0C00
7C00
6700
0300
0300
0300
03C0
0320
03C0
0000
0000
ENDCHAR
STARTCHAR uni1285
ENCODING 4741
SWIDTH 960 0
DWIDTH 12 0
BBX 12 13 0 -2
BITMAP
0000
0300
0300
0F00
19C0
30C0
30C0
00C0
00C0
00C0
00C0
0000
0000
ENDCHAR
STARTCHAR uni1286
ENCODING 4742
SWIDTH 960 0
DWIDTH 12 0
BBX 12 13 0 -2
BITMAP
0000
03C0
0720
0DC0
7C00
6780
0180
0180
0180
0180
0180
0000
0000
ENDCHAR
STARTCHAR uni1288
ENCODING 4744
SWIDTH 960 0
DWIDTH 12 0
BBX 12 13 0 -2
BITMAP
0000
1800
1800
F800
CE00
0600
07C0
0720
06C0
0600
0600
0000
0000
ENDCHAR
STARTCHAR uni128A
ENCODING 4746
SWIDTH 960 0
DWIDTH 12 0
BBX 12 13 0 -2
BITMAP
0000
0C00
0C00
7C00
6740
0340
03C0
0360
0320
0300
0300
0000
0000
ENDCHAR
STARTCHAR uni128B
ENCODING 4747
SWIDTH 960 0
DWIDTH 12 0
BBX 12 13 0 -2
BITMAP
0000
0C00
0C00
7C00
6700
0300
0300
0300
0300
0300
0300
0FC0
0840
ENDCHAR
STARTCHAR uni128C
ENCODING 4748
SWIDTH 960 0
DWIDTH 12 0
BBX 12 13 0 -2
BITMAP
0000
0C00
0C00
7C00
6700
0300
0300
0300
0300
03C0
0320
0FC0
0800
ENDCHAR
STARTCHAR uni128D
ENCODING 4749
SWIDTH 960 0
DWIDTH 12 0
BBX 12 13 0 -2
BITMAP
0000
0C00
0C40
7C40
67E0
0360
0300
0300
0300
0300
0300
0000
0000
ENDCHAR
STARTCHAR uni1290
ENCODING 4752
SWIDTH 960 0
DWIDTH 12 0
BBX 12 13 0 -2
BITMAP
0000
1800
1800
1800
1F00
0300
0300
0300
0300
0300
0300
0000
0000
ENDCHAR
STARTCHAR uni1291
ENCODING 4753
SWIDTH 960 0
DWIDTH 12 0
BBX 12 13 0 -2
BITMAP
0000
6000
6000
6000
7C00
0C00
0FC0
0CC0
0C00
0C00
0C00
0000
0000
ENDCHAR
STARTCHAR uni1292
ENCODING 4754
SWIDTH 960 0
DWIDTH 12 0
BBX 12 13 0 -2
BITMAP
0000
6000
6000
6000
7C00
0C00
0C00
0C00
0C00
0CC0
0FC0
0000
0000
ENDCHAR
STARTCHAR uni1293
ENCODING 4755
SWIDTH 960 0
DWIDTH 12 0
BBX 12 13 0 -2
BITMAP
0000
1F00
3180
3180
3000
1E00
0600
0600
0600
0600
0600
0000
0000
ENDCHAR
STARTCHAR uni1294
ENCODING 4756
SWIDTH 960 0
DWIDTH 12 0
BBX 12 13 0 -2
BITMAP
0000
3000
3000
3000
3E00
0600
0600
0600
0780
0640
0780
0000
0000
ENDCHAR
STARTCHAR uni1295
ENCODING 4757
SWIDTH 960 0
DWIDTH 12 0
BBX 12 13 0 -2
BITMAP
0000
1E00
3600
3600
07C0
00C0
00C0
00C0
00C0
00C0
00C0
0000
0000
ENDCHAR
STARTCHAR uni1296
ENCODING 4758
SWIDTH 960 0
DWIDTH 12 0
BBX 12 13 0 -2
BITMAP
0000
1F00
3480
3300
3000
1E00
0600
0600
0600
0600
0600
0000
0000
ENDCHAR
STARTCHAR uni1297
ENCODING 4759
SWIDTH 960 0
DWIDTH 12 0
BBX 12 13 0 -2
BITMAP
0000
1F00
3180
3180
3000
1E00
0600
0600
0600
0600
0600
1F80
1080
ENDCHAR
STARTCHAR uni1298
ENCODING 4760
SWIDTH 960 0
DWIDTH 12 0
BBX 12 13 0 -2
BITMAP
0000
3F00
0C00
0C00
0F80
0180
0180
0180
0180
0180
0180
0000
0000
ENDCHAR
STARTCHAR uni1299
ENCODING 4761
SWIDTH 960 0
DWIDTH 12 0
BBX 12 13 0 -2
BITMAP
0000
FC00
3000
3000
3E00
0600
07E0
0660
0600
0600
0600
0000
0000
ENDCHAR
STARTCHAR uni129A
ENCODING 4762
SWIDTH 960 0
DWIDTH 12 0
BBX 12 13 0 -2
BITMAP
0000
FC00
3000
3000
3E00
0600
0600
0600
0600
0660
07E0
0000
0000
ENDCHAR
STARTCHAR uni129B
ENCODING 4763
SWIDTH 960 0
DWIDTH 12 0
BBX 12 13 0 -2
BITMAP
0000
1F00
0400
1F00
3180
3180
3000
1E00
0600
0600
0600
0000
0000
ENDCHAR
STARTCHAR uni129C
ENCODING 4764
SWIDTH 960 0
DWIDTH 12 0
BBX 12 13 0 -2
BITMAP
0000
7E00
1800
1800
1F00
0300
0300
0300
03C0
0320
03C0
0000
0000
ENDCHAR
STARTCHAR uni129D
ENCODING 4765
SWIDTH 960 0
DWIDTH 12 0
BBX 12 13 0 -2
BITMAP
0000
1F80
0600
1E00
3600
37C0
00C0
00C0
00C0
00C0
00C0
0000
0000
ENDCHAR
STARTCHAR uni129E
ENCODING 4766
SWIDTH 960 0
DWIDTH 12 0
BBX 12 13 0 -2
BITMAP
0000
1F00
0400
1F00
3480
3300
3000
1E00
0600
0600
0600
0000
0000
ENDCHAR
STARTCHAR uni129F
ENCODING 4767
SWIDTH 960 0
DWIDTH 12 0
BBX 12 13 0 -2
BITMAP
0000
1F00
0400
1F00
3180
3180
3000
1E00
0600
0600
0600
1F80
1080
ENDCHAR
STARTCHAR uni12A0
ENCODING 4768
SWIDTH 960 0
DWIDTH 12 0
BBX 12 13 0 -2
BITMAP
0000
3000
3000
1C00
0C00
1E00
3300
3180
3180
3180
3180
0000
0000
ENDCHAR
STARTCHAR uni12A1
ENCODING 4769
SWIDTH 960 0
DWIDTH 12 0
BBX 12 13 0 -2
BITMAP
0000
C000
C000
7000
3000
7800
CC00
C7E0
C660
C600
C600
0000
0000
ENDCHAR
STARTCHAR uni12A2
ENCODING 4770
SWIDTH 960 0
DWIDTH 12 0
BBX 12 13 0 -2
BITMAP
0000
C000
C000
7000
3000
7800
CC00
C600
C600
C660
C7E0
0000
0000
ENDCHAR
STARTCHAR uni12A3
ENCODING 4771
SWIDTH 960 0
DWIDTH 12 0
BBX 12 13 0 -2
BITMAP
0000
3000
3000
1C00
0C00
1E00
3300
3180
0180
0180
0180
0000
0000
ENDCHAR
STARTCHAR uni12A4
ENCODING 4772
SWIDTH 960 0
DWIDTH 12 0
BBX 12 13 0 -2
BITMAP
0000
6000
6000
3800
1800
3C00
6600
6300
63C0
6320
63C0
0000
0000
ENDCHAR
STARTCHAR uni12A5
ENCODING 4773
SWIDTH 960 0
DWIDTH 12 0
BBX 12 13 0 -2
BITMAP
0000
3800
1C00
0E00
0C00
1E00
3300
3180
3180
3180
3180
0000
0000
ENDCHAR
STARTCHAR uni12A6
ENCODING 4774
SWIDTH 960 0
DWIDTH 12 0
BBX 12 13 0 -2
BITMAP
0000
3000
3000
1C00
0C00
1E00
3300
3180
3180
3000
3000
0000
0000
ENDCHAR
STARTCHAR uni12A7
ENCODING 4775
SWIDTH 960 0
DWIDTH 12 0
BBX 12 13 0 -2
BITMAP
0000
4200
7E00
1800
0E00
0600
0F00
1980
18C0
18C0
18C0
0000
0000
ENDCHAR
STARTCHAR uni12A8
ENCODING 4776
SWIDTH 960 0
DWIDTH 12 0
BBX 12 13 0 -2
BITMAP
0000
2000
2000
2F00
1980
1980
1980
1980
1980
1980
1980
0000
0000
ENDCHAR
STARTCHAR uni12A9
ENCODING 4777
SWIDTH 960 0
DWIDTH 12 0
BBX 12 13 0 -2
BITMAP
0000
8000
8000
BC00
6600
6600
67E0
6660
6600
6600
6600
0000
0000
ENDCHAR
STARTCHAR uni12AA
ENCODING 4778
SWIDTH 960 0
DWIDTH 12 0
BBX 12 13 0 -2
BITMAP
0000
8000
8000
BC00
6600
6600
6600
6600
6600
6660
67E0
0000
0000
ENDCHAR
STARTCHAR uni12AB
ENCODING 4779
SWIDTH 960 0
DWIDTH 12 0
BBX 12 13 0 -2
BITMAP
0000
2000
2000
2F00
1980
1980
1980
1980
0180
0180
0180
0000
0000
ENDCHAR
STARTCHAR uni12AC
ENCODING 4780
SWIDTH 960 0
DWIDTH 12 0
BBX 12 13 0 -2
BITMAP
0000
4000
4000
5E00
3300
3300
3300
3300
33C0
3320
33C0
0000
0000
ENDCHAR
STARTCHAR uni12AD
ENCODING 4781
SWIDTH 960 0
DWIDTH 12 0
BBX 12 13 0 -2
BITMAP
0000
2000
2000
2F00
1980
1980
1D80
0D80
0D80
0D80
0D80
0000
0000
ENDCHAR
STARTCHAR uni12AE
ENCODING 4782
SWIDTH 960 0
DWIDTH 12 0
BBX 12 13 0 -2
BITMAP
0000
2000
2000
2F00
1980
1980
1980
1980
1800
1800
1800
0000
0000
ENDCHAR
STARTCHAR uni12B0
ENCODING 4784
SWIDTH 960 0
DWIDTH 12 0
BBX 12 13 0 -2
BITMAP
0000
8000
8000
BC00
6600
6600
67C0
6720
66C0
6600
6600
0000
0000
ENDCHAR
STARTCHAR uni12B2
ENCODING 4786
SWIDTH 960 0
DWIDTH 12 0
BBX 12 13 0 -2
BITMAP
0000
4000
4000
5E00
3300
3340
3340
33E0
3360
3300
3300
0000
0000
ENDCHAR
STARTCHAR uni12B3
ENCODING 4787
SWIDTH 960 0
DWIDTH 12 0
BBX 12 13 0 -2
BITMAP
0000
4000
4000
5E00
3300
3300
3300
3300
0300
0300
0300
0FC0
0840
ENDCHAR
STARTCHAR uni12B4
ENCODING 4788
SWIDTH 960 0
DWIDTH 12 0
BBX 12 13 0 -2
BITMAP
0000
4000
4000
5E00
3300
3300
3300
3300
03C0
0320
0FC0
0800
0000
ENDCHAR
STARTCHAR uni12B5
ENCODING 4789
SWIDTH 960 0
DWIDTH 12 0
BBX 12 13 0 -2
BITMAP
0000
4040
4040
5EE0
3360
3300
3300
3300
3300
3300
3300
0000
0000
ENDCHAR
STARTCHAR uni12B8
ENCODING 4792
SWIDTH 960 0
DWIDTH 12 0
BBX 12 13 0 -2
BITMAP
0000
4400
7C00
1000
1780
0CC0
0CC0
0CC0
0CC0
0CC0
0CC0
0000
0000
ENDCHAR
STARTCHAR uni12B9
ENCODING 4793
SWIDTH 960 0
DWIDTH 12 0
BBX 12 13 0 -2
BITMAP
0000
8800
F800
2000
2E00
3300
3300
33E0
3360
3300
3300
0000
0000
ENDCHAR
STARTCHAR uni12BA
ENCODING 4794
SWIDTH 960 0
DWIDTH 12 0
BBX 12 13 0 -2
BITMAP
0000
8800
F800
2000
2E00
3300
3300
3300
3300
3360
33E0
0000
0000
ENDCHAR
STARTCHAR uni12BB
ENCODING 4795
SWIDTH 960 0
DWIDTH 12 0
BBX 12 13 0 -2
BITMAP
0000
4400
7C00
1000
1780
0CC0
0CC0
0CC0
00C0
00C0
00C0
0000
0000
ENDCHAR
STARTCHAR uni12BC
ENCODING 4796
SWIDTH 960 0
DWIDTH 12 0
BBX 12 13 0 -2
BITMAP
0000
8800
F800
2000
2E00
3300
3300
3300
33C0
3320
33C0
0000
0000
ENDCHAR
STARTCHAR uni12BD
ENCODING 4797
SWIDTH 960 0
DWIDTH 12 0
BBX 12 13 0 -2
BITMAP
0000
4400
7C00
1000
1780
0CC0
0CC0
06C0
06C0
06C0
06C0
0000
0000
ENDCHAR
STARTCHAR uni12BE
ENCODING 4798
SWIDTH 960 0
DWIDTH 12 0
BBX 12 13 0 -2
BITMAP
0000
4400
7C00
1000
1780
0CC0
0CC0
0CC0
0C00
0C00
0C00
0000
0000
ENDCHAR
STARTCHAR uni12C0
ENCODING 4800
SWIDTH 960 0
DWIDTH 12 0
BBX 12 13 0 -2
BITMAP
0000
8800
F800
2000
2E00
3300
33C0
3320
33C0
3300
3300
0000
0000
ENDCHAR
STARTCHAR uni12C2
ENCODING 4802
SWIDTH 960 0
DWIDTH 12 0
BBX 12 13 0 -2
BITMAP
0000
8800
F800
2000
2E00
3340
3340
33E0
3360
3300
3300
0000
0000
ENDCHAR
STARTCHAR uni12C3
ENCODING 4803
SWIDTH 960 0
DWIDTH 12 0
BBX 12 13 0 -2
BITMAP
0000
8800
F800
2000
2F00
1980
1980
1980
0180
0180
0180
07E0
0420
ENDCHAR
STARTCHAR uni12C4
ENCODING 4804
SWIDTH 960 0
DWIDTH 12 0
BBX 12 13 0 -2
BITMAP
0000
8800
F800
2000
2E00
3300
3300
3300
03C0
0320
0FC0
0800
0000
ENDCHAR
STARTCHAR uni12C5
ENCODING 4805
SWIDTH 960 0
DWIDTH 12 0
BBX 12 13 0 -2
BITMAP
0000
8800
F840
2040
2EE0
3360
3300
3300
3300
3300
3300
0000
0000
ENDCHAR
STARTCHAR uni12C8
ENCODING 4808
SWIDTH 960 0
DWIDTH 12 0
BBX 12 13 0 -2
BITMAP
0000
0000
1F00
3580
64C0
64C0
64C0
64C0
3580
1F00
0000
0000
0000
ENDCHAR
STARTCHAR uni12C9
ENCODING 4809
SWIDTH 960 0
DWIDTH 12 0
BBX 12 13 0 -2
BITMAP
0000
0000
0000
3E00
6B00
C980
C980
C980
C980
6B20
3FE0
0060
0000
ENDCHAR
STARTCHAR uni12CA
ENCODING 4810
SWIDTH 960 0
DWIDTH 12 0
BBX 12 13 0 -2
BITMAP
0000
1F00
3580
64C0
64C0
3580
1F00
0400
0C00
1980
1F80
0000
0000
ENDCHAR
STARTCHAR uni12CB
ENCODING 4811
SWIDTH 960 0
DWIDTH 12 0
BBX 12 13 0 -2
BITMAP
0000
1F00
3580
64C0
64C0
3580
1F00
0400
0400
0400
0400
0000
0000
ENDCHAR
STARTCHAR uni12CC
ENCODING 4812
SWIDTH 960 0
DWIDTH 12 0
BBX 12 13 0 -2
BITMAP
0000
1F00
3580
64C0
64C0
3580
1F00
0400
0700
0480
0700
0000
0000
ENDCHAR
STARTCHAR uni12CD
ENCODING 4813
SWIDTH 960 0
DWIDTH 12 0
BBX 12 13 0 -2
BITMAP
0000
0000
0000
3E00
6B00
C980
C9F0
C9B0
C980
6B00
3E00
0000
0000
ENDCHAR
STARTCHAR uni12CE
ENCODING 4814
SWIDTH 960 0
DWIDTH 12 0
BBX 12 13 0 -2
BITMAP
0000
1F00
3580
64C0
64C0
3580
1F00
0400
0C00
1800
1800
0000
0000
ENDCHAR
STARTCHAR uni12D0
ENCODING 4816
SWIDTH 960 0
DWIDTH 12 0
BBX 12 13 0 -2
BITMAP
0000
0300
0D80
3180
3180
3180
3180
3180
3180
3780
1800
0000
0000
ENDCHAR
STARTCHAR uni12D1
ENCODING 4817
SWIDTH 960 0
DWIDTH 12 0
BBX 12 13 0 -2
BITMAP
0000
0C00
3600
C600
C600
C7E0
C660
C600
C600
DE00
6000
0000
0000
ENDCHAR
STARTCHAR uni12D2
ENCODING 4818
SWIDTH 960 0
DWIDTH 12 0
BBX 12 13 0 -2
BITMAP
0000
1F00
3180
3180
3180
1FC0
00C0
0180
0300
0640
07C0
0000
0000
ENDCHAR
STARTCHAR uni12D3
ENCODING 4819
SWIDTH 960 0
DWIDTH 12 0
BBX 12 13 0 -2
BITMAP
0000
1F00
3180
3180
3180
1FC0
00C0
0180
0300
0600
0600
0000
0000
ENDCHAR
STARTCHAR uni12D4
ENCODING 4820
SWIDTH 960 0
DWIDTH 12 0
BBX 12 13 0 -2
BITMAP
0000
1F00
3180
3180
3180
1FC0
00C0
0180
0380
0640
0780
0000
0000
ENDCHAR
STARTCHAR uni12D5
ENCODING 4821
SWIDTH 960 0
DWIDTH 12 0
BBX 12 13 0 -2
BITMAP
0000
0600
0600
0F00
3180
3180
3180
3180
3180
3780
1800
0000
0000
ENDCHAR
STARTCHAR uni12D6
ENCODING 4822
SWIDTH 960 0
DWIDTH 12 0
BBX 12 13 0 -2
BITMAP
0000
1F00
3180
3180
3180
1F00
1800
1800
3000
3000
3000
0000
0000
ENDCHAR
STARTCHAR uni12D8
ENCODING 4824
SWIDTH 960 0
DWIDTH 12 0
BBX 12 13 0 -2
BITMAP
0000
1980
1980
1980
1F80
1980
1980
1980
1980
1980
1980
0000
0000
ENDCHAR
STARTCHAR uni12D9
ENCODING 4825
SWIDTH 960 0
DWIDTH 12 0
BBX 12 13 0 -2
BITMAP
0000
6600
6600
6600
7E00
6600
67E0
6660
6600
6600
6600
0000
0000
ENDCHAR
STARTCHAR uni12DA
ENCODING 4826
SWIDTH 960 0
DWIDTH 12 0
BBX 12 13 0 -2
BITMAP
0000
6600
6600
6600
7E00
6600
6600
6600
6600
6660
67E0
0000
0000
ENDCHAR
STARTCHAR uni12DB
ENCODING 4827
SWIDTH 960 0
DWIDTH 12 0
BBX 12 13 0 -2
BITMAP
0000
1980
1980
1980
1F80
1980
1980
1980
0180
0180
0180
0000
0000
ENDCHAR
STARTCHAR uni12DC
ENCODING 4828
SWIDTH 960 0
DWIDTH 12 0
BBX 12 13 0 -2
BITMAP
0000
6600
6600
6600
7E00
6600
6600
6600
6780
6640
6780
0000
0000
ENDCHAR
STARTCHAR uni12DD
ENCODING 4829
SWIDTH 960 0
DWIDTH 12 0
BBX 12 13 0 -2
BITMAP
0000
3E00
08C0
0CC0
0CC0
0FC0
0CC0
0CC0
0CC0
0CC0
0CC0
0000
0000
ENDCHAR
STARTCHAR uni12DE
ENCODING 4830
SWIDTH 960 0
DWIDTH 12 0
BBX 12 13 0 -2
BITMAP
0000
1980
1980
1980
1F80
1980
1980
1980
1800
1800
1800
0000
0000
ENDCHAR
STARTCHAR uni12DF
ENCODING 4831
SWIDTH 960 0
DWIDTH 12 0
BBX 12 13 0 -2
BITMAP
0000
3300
3300
3300
3F00
3300
3300
3300
0300
0300
0300
0FC0
0840
ENDCHAR
STARTCHAR uni12E0
ENCODING 4832
SWIDTH 960 0
DWIDTH 12 0
BBX 12 13 0 -2
BITMAP
0000
39C0
1980
1980
1F80
1980
1980
1980
1980
1980
1980
0000
0000
ENDCHAR
STARTCHAR uni12E1
ENCODING 4833
SWIDTH 960 0
DWIDTH 12 0
BBX 12 13 0 -2
BITMAP
0000
E700
6600
6600
7E00
6600
67E0
6660
6600
6600
6600
0000
0000
ENDCHAR
STARTCHAR uni12E2
ENCODING 4834
SWIDTH 960 0
DWIDTH 12 0
BBX 12 13 0 -2
BITMAP
0000
E700
6600
6600
7E00
6600
6600
6600
6600
6660
67E0
0000
0000
ENDCHAR
STARTCHAR uni12E3
ENCODING 4835
SWIDTH 960 0
DWIDTH 12 0
BBX 12 13 0 -2
BITMAP
0000
39C0
1980
1980
1F80
1980
1980
1980
0180
0180
0180
0000
0000
ENDCHAR
STARTCHAR uni12E4
ENCODING 4836
SWIDTH 960 0
DWIDTH 12 0
BBX 12 13 0 -2
BITMAP
0000
7380
3300
3300
3F00
3300
3300
3300
33C0
3320
33C0
0000
0000
ENDCHAR
STARTCHAR uni12E5
ENCODING 4837
SWIDTH 960 0
DWIDTH 12 0
BBX 12 13 0 -2
BITMAP
0000
7C00
11C0
3980
1980
1F80
1980
1980
1980
1980
1980
0000
0000
ENDCHAR
STARTCHAR uni12E6
ENCODING 4838
SWIDTH 960 0
DWIDTH 12 0
BBX 12 13 0 -2
BITMAP
0000
39C0
1980
1980
1F80
1980
1980
1980
1800
1800
1800
0000
0000
ENDCHAR
STARTCHAR uni12E7
ENCODING 4839
SWIDTH 960 0
DWIDTH 12 0
BBX 12 13 0 -2
BITMAP
0000
7380
3300
3300
3F00
3300
3300
3300
0300
0300
0300
0FC0
0840
ENDCHAR
STARTCHAR uni12E8
ENCODING 4840
SWIDTH 960 0
DWIDTH 12 0
BBX 12 13 0 -2
BITMAP
0000
0E00
1B00
3180
3180
1980
0F00
0600
0600
0600
0600
0000
0000
ENDCHAR
STARTCHAR uni12E9
ENCODING 4841
SWIDTH 960 0
DWIDTH 12 0
BBX 12 13 0 -2
BITMAP
0000
1C00
3600
6300
6300
3300
1E00
0C00
0FC0
0CC0
0C00
0000
0000
ENDCHAR
STARTCHAR uni12EA
ENCODING 4842
SWIDTH 960 0
DWIDTH 12 0
BBX 12 13 0 -2
BITMAP
0000
1C00
3600
6300
6300
3300
1E00
0C80
0F80
0CC0
0C40
0000
0000
ENDCHAR
STARTCHAR uni12EB
ENCODING 4843
SWIDTH 960 0
DWIDTH 12 0
BBX 12 13 0 -2
BITMAP
0000
0E00
1B00
3180
3180
1980
0F00
0600
0600
0C00
1800
0000
0000
ENDCHAR
STARTCHAR uni12EC
ENCODING 4844
SWIDTH 960 0
DWIDTH 12 0
BBX 12 13 0 -2
BITMAP
0000
1C00
3600
6300
3300
1E00
0C00
0F80
0E40
0D80
0C00
0000
0000
ENDCHAR
STARTCHAR uni12ED
ENCODING 4845
SWIDTH 960 0
DWIDTH 12 0
BBX 12 13 0 -2
BITMAP
0000
0E00
1B00
3180
1980
0F00
0620
0660
3FC0
6000
6000
0000
0000
ENDCHAR
STARTCHAR uni12EE
ENCODING 4846
SWIDTH 960 0
DWIDTH 12 0
BBX 12 13 0 -2
BITMAP
0000
3800
6C00
C600
C7E0
6660
3C00
1800
1800
1800
1800
0000
0000
ENDCHAR
STARTCHAR uni12EF
ENCODING 4847
SWIDTH 960 0
DWIDTH 12 0
BBX 12 13 0 -2
BITMAP
0000
3F80
0E00
1B00
3180
3180
1980
0F00
0600
0600
0600
0000
0000
ENDCHAR
STARTCHAR uni12F0
ENCODING 4848
SWIDTH 960 0
DWIDTH 12 0
BBX 12 13 0 -2
BITMAP
0000
0F80
18C0
18C0
1980
0E00
0C00
0600
1F80
30C0
30C0
0000
0000
ENDCHAR
STARTCHAR uni12F1
ENCODING 4849
SWIDTH 960 0
DWIDTH 12 0
BBX 12 13 0 -2
BITMAP
0000
3E00
6300
6300
6600
3800
3000
1800
7EE0
C360
C300
0000
0000
ENDCHAR
STARTCHAR uni12F2
ENCODING 4850
SWIDTH 960 0
DWIDTH 12 0
BBX 12 13 0 -2
BITMAP
0000
3E00
6300
6300
6600
3800
3000
1800
7E00
C360
C3E0
0000
0000
ENDCHAR
STARTCHAR uni12F3
ENCODING 4851
SWIDTH 960 0
DWIDTH 12 0
BBX 12 13 0 -2
BITMAP
0000
1F00
3180
3180
3300
1C00
1800
0C00
3F00
2180
0180
0000
0000
ENDCHAR
STARTCHAR uni12F4
ENCODING 4852
SWIDTH 960 0
DWIDTH 12 0
BBX 12 13 0 -2
BITMAP
0000
3E00
6300
6300
6600
3800
3000
1800
7EC0
C320
C3C0
0000
0000
ENDCHAR
STARTCHAR uni12F5
ENCODING 4853
SWIDTH 960 0
DWIDTH 12 0
BBX 12 13 0 -2
BITMAP
0000
3E00
6300
63E0
6660
3800
3000
1800
7E00
C300
C300
0000
0000
ENDCHAR
STARTCHAR uni12F6
ENCODING 4854
SWIDTH 960 0
DWIDTH 12 0
BBX 12 13 0 -2
BITMAP
0000
0F80
18C0
18C0
1980
0E00
0C00
0600
1F80
3080
3000
0000
0000
ENDCHAR
STARTCHAR uni12F7
ENCODING 4855
SWIDTH 960 0
DWIDTH 12 0
BBX 12 13 0 -2
BITMAP
0000
3E00
6300
6300
6600
3800
3000
1800
7E00
4300
0300
0FC0
0840
ENDCHAR
STARTCHAR uni12F8
ENCODING 4856
SWIDTH 960 0
DWIDTH 12 0
BBX 12 13 0 -2
BITMAP
0000
0F80
18C0
1FC0
1980
0E00
0C00
0600
1F80
30C0
30C0
0000
0000
ENDCHAR
STARTCHAR uni12F9
ENCODING 4857
SWIDTH 960 0
DWIDTH 12 0
BBX 12 13 0 -2
BITMAP
0000
3E00
6300
7F00
6600
3800
3000
1800
7EE0
C360
C300
0000
0000
ENDCHAR
STARTCHAR uni12FA
ENCODING 4858
SWIDTH 960 0
DWIDTH 12 0
BBX 12 13 0 -2
BITMAP
0000
3E00
6300
7F00
6600
3800
3000
1800
7E00
C360
C3E0
0000
0000
ENDCHAR
STARTCHAR uni12FB
ENCODING 4859
SWIDTH 960 0
DWIDTH 12 0
BBX 12 13 0 -2
BITMAP
0000
1F00
3180
3F80
3300
1C00
1800
0C00
3F00
2180
0180
0000
0000
ENDCHAR
STARTCHAR uni12FC
ENCODING 4860
SWIDTH 960 0
DWIDTH 12 0
BBX 12 13 0 -2
BITMAP
0000
3E00
6300
7F00
6600
3800
3000
1800
7EC0
C320
C3C0
0000
0000
ENDCHAR
STARTCHAR uni12FD
ENCODING 4861
SWIDTH 960 0
DWIDTH 12 0
BBX 12 13 0 -2
BITMAP
0000
3E00
6300
7FE0
6660
3800
3000
1800
7E00
C300
C300
0000
0000
ENDCHAR
STARTCHAR uni12FE
ENCODING 4862
SWIDTH 960 0
DWIDTH 12 0
BBX 12 13 0 -2
BITMAP
0000
0F80
18C0
1FC0
1980
0E00
0C00
0600
1F80
3080
3000
0000
0000
ENDCHAR
STARTCHAR uni12FF
ENCODING 4863
SWIDTH 960 0
DWIDTH 12 0
BBX 12 13 0 -2
BITMAP
0000
3E00
6300
7F00
6600
3800
3000
1800
7E00
4300
0300
0FC0
0840
ENDCHAR
STARTCHAR uni1300
ENCODING 4864
SWIDTH 960 0
DWIDTH 12 0
BBX 12 13 0 -2
BITMAP
0000
1FC0
0200
0F80
18C0
1980
0E00
0600
1F80
30C0
30C0
0000
0000
ENDCHAR
STARTCHAR uni1301
ENCODING 4865
SWIDTH 960 0
DWIDTH 12 0
BBX 12 13 0 -2
BITMAP
0000
7F00
0800
3E00
6300
6600
3800
1800
7EE0
C360
C300
0000
0000
ENDCHAR
STARTCHAR uni1302
ENCODING 4866
SWIDTH 960 0
DWIDTH 12 0
BBX 12 13 0 -2
BITMAP
0000
7F00
0800
3E00
6300
6600
3800
1800
7E00
C360
C3E0
0000
0000
ENDCHAR
STARTCHAR uni1303
ENCODING 4867
SWIDTH 960 0
DWIDTH 12 0
BBX 12 13 0 -2
BITMAP
0000
3F80
0400
1F00
3180
3300
1C00
0C00
3F00
2180
0180
0000
0000
ENDCHAR
STARTCHAR uni1304
ENCODING 4868
SWIDTH 960 0
DWIDTH 12 0
BBX 12 13 0 -2
BITMAP
0000
7F00
0800
3E00
6300
6600
3800
1800
7EC0
C320
C3C0
0000
0000
ENDCHAR
STARTCHAR uni1305
ENCODING 4869
SWIDTH 960 0
DWIDTH 12 0
BBX 12 13 0 -2
BITMAP
0000
7F00
0800
3E00
63E0
6660
3800
1800
7E00
C300
C300
0000
0000
ENDCHAR
STARTCHAR uni1306
ENCODING 4870
SWIDTH 960 0
DWIDTH 12 0
BBX 12 13 0 -2
BITMAP
0000
1FC0
0200
0F80
18C0
1980
0E00
0600
1F80
3080
3000
0000
0000
ENDCHAR
STARTCHAR uni1307
ENCODING 4871
SWIDTH 960 0
DWIDTH 12 0
BBX 12 13 0 -2
BITMAP
0000
7F00
0800
3E00
6300
6600
3800
1800
7E00
4300
0FC0
0840
0000
ENDCHAR
STARTCHAR uni1308
ENCODING 4872
SWIDTH 960 0
DWIDTH 12 0
BBX 12 13 0 -2
BITMAP
0000
1F00
0180
0180
0180
0180
0180
0180
0180
0180
0180
0000
0000
ENDCHAR
STARTCHAR uni1309
ENCODING 4873
SWIDTH 960 0
DWIDTH 12 0
BBX 12 13 0 -2
BITMAP
0000
7C00
0600
0600
0600
07E0
0660
0600
0600
0600
0600
0000
0000
ENDCHAR
STARTCHAR uni130A
ENCODING 4874
SWIDTH 960 0
DWIDTH 12 0
BBX 12 13 0 -2
BITMAP
0000
7C00
0600
0600
0600
0600
0600
0600
0600
0660
07E0
0000
0000
ENDCHAR
STARTCHAR uni130B
ENCODING 4875
SWIDTH 960 0
DWIDTH 12 0
BBX 12 13 0 -2
BITMAP
0000
1F00
0180
0180
0180
0180
0180
0300
0600
0C00
1800
0000
0000
ENDCHAR
STARTCHAR uni130C
ENCODING 4876
SWIDTH 960 0
DWIDTH 12 0
BBX 12 13 0 -2
BITMAP
0000
7C00
0600
0600
0600
0600
0600
0600
0780
0640
0780
0000
0000
ENDCHAR
STARTCHAR uni130D
ENCODING 4877
SWIDTH 960 0
DWIDTH 12 0
BBX 12 13 0 -2
BITMAP
0000
1F80
32C0
1CC0
00C0
00C0
00C0
00C0
00C0
00C0
00C0
0000
0000
ENDCHAR
STARTCHAR uni130E
ENCODING 4878
SWIDTH 960 0
DWIDTH 12 0
BBX 12 13 0 -2
BITMAP
0000
0600
0600
1F00
0180
0180
0180
0180
0180
0180
0180
0000
0000
ENDCHAR
STARTCHAR uni1310
ENCODING 4880
SWIDTH 960 0
DWIDTH 12 0
BBX 12 13 0 -2
BITMAP
0000
7C00
0600
0600
0600
07C0
0720
06C0
0600
0600
0600
0000
0000
ENDCHAR
STARTCHAR uni1312
ENCODING 4882
SWIDTH 960 0
DWIDTH 12 0
BBX 12 13 0 -2
BITMAP
0000
7C00
0600
0600
0680
0680
07C0
06C0
0600
0600
0600
0000
0000
ENDCHAR
STARTCHAR uni1313
ENCODING 4883
SWIDTH 960 0
DWIDTH 12 0
BBX 12 13 0 -2
BITMAP
0000
1E00
3300
0300
0F80
0CC0
00C0
00C0
00C0
00C0
00C0
0000
0000
ENDCHAR
STARTCHAR uni1314
ENCODING 4884
SWIDTH 960 0
DWIDTH 12 0
BBX 12 13 0 -2
BITMAP
0000
7C00
0600
0600
0600
0600
0600
0600
0780
0640
1F80
1000
0000
ENDCHAR
STARTCHAR uni1315
ENCODING 4885
SWIDTH 960 0
DWIDTH 12 0
BBX 12 13 0 -2
BITMAP
0000
0080
7C80
07C0
06C0
0600
0600
0600
0600
0600
0600
0000
0000
ENDCHAR
STARTCHAR uni1318
ENCODING 4888
SWIDTH 960 0
DWIDTH 12 0
BBX 12 13 0 -2
BITMAP
0000
1F80
0000
1F00
0180
0180
0180
0180
0180
0180
0180
0000
0000
ENDCHAR
STARTCHAR uni1319
ENCODING 4889
SWIDTH 960 0
DWIDTH 12 0
BBX 12 13 0 -2
BITMAP
0000
7E00
0000
7C00
0600
0600
07E0
0660
0600
0600
0600
0000
0000
ENDCHAR
STARTCHAR uni131A
ENCODING 4890
SWIDTH 960 0
DWIDTH 12 0
BBX 12 13 0 -2
BITMAP
0000
7E00
0000
7C00
0600
0600
0600
0600
0600
0660
07E0
0000
0000
ENDCHAR
STARTCHAR uni131B
ENCODING 4891
SWIDTH 960 0
DWIDTH 12 0
BBX 12 13 0 -2
BITMAP
0000
1F80
0000
1F00
0180
0180
0180
0300
0600
0C00
1800
0000
0000
ENDCHAR
STARTCHAR uni131C
ENCODING 4892
SWIDTH 960 0
DWIDTH 12 0
BBX 12 13 0 -2
BITMAP
0000
7E00
0000
7C00
0600
0600
0600
0600
0780
0640
0780
0000
0000
ENDCHAR
STARTCHAR uni131D
ENCODING 4893
SWIDTH 960 0
DWIDTH 12 0
BBX 12 13 0 -2
BITMAP
0000
1FC0
0000
1F80
32C0
1CC0
00C0
00C0
00C0
00C0
00C0
0000
0000
ENDCHAR
STARTCHAR uni131E
ENCODING 4894
SWIDTH 960 0
DWIDTH 12 0
BBX 12 13 0 -2
BITMAP
0000
1F80
0600
1F00
0180
0180
0180
0180
0180
0180
0180
0000
0000
ENDCHAR
STARTCHAR uni131F
ENCODING 4895
SWIDTH 960 0
DWIDTH 12 0
BBX 12 13 0 -2
BITMAP
0000
1F80
0000
1E00
3300
0300
0F80
0CC0
00C0
00C0
00C0
0000
0000
ENDCHAR
STARTCHAR uni1320
ENCODING 4896
SWIDTH 960 0
DWIDTH 12 0
BBX 12 13 0 -2
BITMAP
0000
1F80
36C0
36C0
36C0
36C0
36C0
36C0
36C0
36C0
36C0
0000
0000
ENDCHAR
STARTCHAR uni1321
ENCODING 4897
SWIDTH 960 0
DWIDTH 12 0
BBX 12 13 0 -2
BITMAP
0000
7E00
DB00
DB00
DB00
DBE0
DB60
DB00
DB00
DB00
DB00
0000
0000
ENDCHAR
STARTCHAR uni1322
ENCODING 4898
SWIDTH 960 0
DWIDTH 12 0
BBX 12 13 0 -2
BITMAP
0000
7E00
DB00
DB00
DB00
DB00
DB00
DB00
DB00
DB60
DBE0
0000
0000
ENDCHAR
STARTCHAR uni1323
ENCODING 4899
SWIDTH 960 0
DWIDTH 12 0
BBX 12 13 0 -2
BITMAP
0000
1F80
36C0
36C0
36C0
36C0
36C0
00C0
00C0
00C0
00C0
0000
0000
ENDCHAR
STARTCHAR uni1324
ENCODING 4900
SWIDTH 960 0
DWIDTH 12 0
BBX 12 13 0 -2
BITMAP
0000
7E00
DB00
DB00
DB00
DB00
DB00
DB00
DBC0
DB20
DBC0
0000
0000
ENDCHAR
STARTCHAR uni1325
ENCODING 4901
SWIDTH 960 0
DWIDTH 12 0
BBX 12 13 0 -2
BITMAP
0000
1F80
36C0
36C0
36C0
36C0
0600
0300
0300
0300
0300
0000
0000
ENDCHAR
STARTCHAR uni1326
ENCODING 4902
SWIDTH 960 0
DWIDTH 12 0
BBX 12 13 0 -2
BITMAP
0000
1F80
36C0
36C0
36C0
36C0
36C0
3000
3000
3000
3000
0000
0000
ENDCHAR
STARTCHAR uni1327
ENCODING 4903
SWIDTH 960 0
DWIDTH 12 0
BBX 12 13 0 -2
BITMAP
0000
3F00
6D80
6D80
6D80
6D80
6D80
0180
0180
0180
07E0
0420
0000
ENDCHAR
STARTCHAR uni1328
ENCODING 4904
SWIDTH 960 0
DWIDTH 12 0
BBX 12 13 0 -2
BITMAP
0000
7F00
C980
8880
8880
8880
8880
CCC0
AAA0
AAA0
CCC0
0000
0000
ENDCHAR
STARTCHAR uni1329
ENCODING 4905
SWIDTH 960 0
DWIDTH 12 0
BBX 12 13 0 -2
BITMAP
0000
7C00
D600
9200
93E0
9260
9200
DB00
B680
B680
DB00
0000
0000
ENDCHAR
STARTCHAR uni132A
ENCODING 4906
SWIDTH 960 0
DWIDTH 12 0
BBX 12 13 0 -2
BITMAP
0000
7C00
D600
9200
9200
9200
9200
DA00
B600
B660
DBE0
0000
0000
ENDCHAR
STARTCHAR uni132B
ENCODING 4907
SWIDTH 960 0
DWIDTH 12 0
BBX 12 13 0 -2
BITMAP
0000
7F00
C980
8880
CC80
AA80
AA80
CCC0
00A0
00A0
00C0
0000
0000
ENDCHAR
STARTCHAR uni132C
ENCODING 4908
SWIDTH 960 0
DWIDTH 12 0
BBX 12 13 0 -2
BITMAP
0000
7C00
D600
93C0
9320
92C0
9200
DB00
B680
B680
DB00
0000
0000
ENDCHAR
STARTCHAR uni132D
ENCODING 4909
SWIDTH 960 0
DWIDTH 12 0
BBX 12 13 0 -2
BITMAP
0000
7F00
C980
8880
C8C0
A8A0
A8A0
CCC0
0A00
0A00
0C00
0000
0000
ENDCHAR
STARTCHAR uni132E
ENCODING 4910
SWIDTH 960 0
DWIDTH 12 0
BBX 12 13 0 -2
BITMAP
0000
7F00
C980
8880
8CC0
8AA0
8AA0
CCC0
A000
A000
C000
0000
0000
ENDCHAR
STARTCHAR uni132F
ENCODING 4911
SWIDTH 960 0
DWIDTH 12 0
BBX 12 13 0 -2
BITMAP
0000
7F00
C980
8880
CC80
AA80
AA80
CC80
0080
0080
03E0
0220
0000
ENDCHAR
STARTCHAR uni1330
ENCODING 4912
SWIDTH 960 0
DWIDTH 12 0
BBX 12 13 0 -2
BITMAP
0000
0600
0600
0F00
1980
1980
0F00
0F00
1980
30C0
30C0
0000
0000
ENDCHAR
STARTCHAR uni1331
ENCODING 4913
SWIDTH 960 0
DWIDTH 12 0
BBX 12 13 0 -2
BITMAP
0000
1800
1800
3C00
6600
6600
3C00
3C00
66E0
C360
C300
0000
0000
ENDCHAR
STARTCHAR uni1332
ENCODING 4914
SWIDTH 960 0
DWIDTH 12 0
BBX 12 13 0 -2
BITMAP
0000
1800
1800
3C00
6600
6600
3C00
3C00
6600
C360
C3E0
0000
0000
ENDCHAR
STARTCHAR uni1333
ENCODING 4915
SWIDTH 960 0
DWIDTH 12 0
BBX 12 13 0 -2
BITMAP
0000
0C00
0C00
1E00
3300
3300
1E00
1E00
3300
2180
0180
0000
0000
ENDCHAR
STARTCHAR uni1334
ENCODING 4916
SWIDTH 960 0
DWIDTH 12 0
BBX 12 13 0 -2
BITMAP
0000
1800
1800
3C00
6600
6600
3C00
3C00
66C0
C320
C3C0
0000
0000
ENDCHAR
STARTCHAR uni1335
ENCODING 4917
SWIDTH 960 0
DWIDTH 12 0
BBX 12 13 0 -2
BITMAP
0000
1800
1800
3C00
67E0
6660
3C00
3C00
6600
C300
C300
0000
0000
ENDCHAR
STARTCHAR uni1336
ENCODING 4918
SWIDTH 960 0
DWIDTH 12 0
BBX 12 13 0 -2
BITMAP
0000
0600
0600
0F00
1980
1980
0F00
0F00
1980
3080
3000
0000
0000
ENDCHAR
STARTCHAR uni1337
ENCODING 4919
SWIDTH 960 0
DWIDTH 12 0
BBX 12 13 0 -2
BITMAP
0000
1800
1800
3C00
6600
6600
3C00
3C00
6600
4300
0FC0
0840
0000
ENDCHAR
STARTCHAR uni1338
ENCODING 4920
SWIDTH 960 0
DWIDTH 12 0
BBX 12 13 0 -2
BITMAP
0000
0F00
1980
1980
1980
0F00
0F00
1980
30C0
30C0
30C0
0000
0000
ENDCHAR
STARTCHAR uni1339
ENCODING 4921
SWIDTH 960 0
DWIDTH 12 0
BBX 12 13 0 -2
BITMAP
0000
3C00
6600
6600
6600
3C00
3C00
6600
C3E0
C360
C300
0000
0000
ENDCHAR
STARTCHAR uni133A
ENCODING 4922
SWIDTH 960 0
DWIDTH 12 0
BBX 12 13 0 -2
BITMAP
0000
3C00
6600
6600
6600
3C00
3C00
6600
C300
C360
C3E0
0000
0000
ENDCHAR
STARTCHAR uni133B
ENCODING 4923
SWIDTH 960 0
DWIDTH 12 0
BBX 12 13 0 -2
BITMAP
0000
0F00
1980
1980
1980
0F00
0F00
1980
30C0
00C0
00C0
0000
0000
ENDCHAR
STARTCHAR uni133C
ENCODING 4924
SWIDTH 960 0
DWIDTH 12 0
BBX 12 13 0 -2
BITMAP
0000
3C00
6600
6600
6600
3C00
3C00
6600
C3C0
C320
C3C0
0000
0000
ENDCHAR
STARTCHAR uni133D
ENCODING 4925
SWIDTH 960 0
DWIDTH 12 0
BBX 12 13 0 -2
BITMAP
0000
3C00
6600
67E0
6660
3C00
3C00
6600
C300
C300
C300
0000
0000
ENDCHAR
STARTCHAR uni133E
ENCODING 4926
SWIDTH 960 0
DWIDTH 12 0
BBX 12 13 0 -2
BITMAP
0000
0F00
1980
1980
1980
0F00
0F00
1980
30C0
3000
3000
0000
0000
ENDCHAR
STARTCHAR uni133F
ENCODING 4927
SWIDTH 960 0
DWIDTH 12 0
BBX 12 13 0 -2
BITMAP
0000
1E00
3300
3300
3300
1E00
1E00
3300
6180
0180
07E0
0420
0000
ENDCHAR
STARTCHAR uni1340
ENCODING 4928
SWIDTH 960 0
DWIDTH 12 0
BBX 12 13 0 -2
BITMAP
0000
0300
0D80
3180
3180
3F80
3180
3180
3180
3780
1800
0000
0000
ENDCHAR
STARTCHAR uni1341
ENCODING 4929
SWIDTH 960 0
DWIDTH 12 0
BBX 12 13 0 -2
BITMAP
0000
0C00
3600
C600
C600
FFE0
C660
C600
C600
DE00
6000
0000
0000
ENDCHAR
STARTCHAR uni1342
ENCODING 4930
SWIDTH 960 0
DWIDTH 12 0
BBX 12 13 0 -2
BITMAP
0000
1F00
3180
3F80
3180
1FC0
00C0
0180
0300
0640
07C0
0000
0000
ENDCHAR
STARTCHAR uni1343
ENCODING 4931
SWIDTH 960 0
DWIDTH 12 0
BBX 12 13 0 -2
BITMAP
0000
1F00
3180
3F80
3180
1FC0
00C0
0180
0300
0600
0600
0000
0000
ENDCHAR
STARTCHAR uni1344
ENCODING 4932
SWIDTH 960 0
DWIDTH 12 0
BBX 12 13 0 -2
BITMAP
0000
1F00
3180
3F80
3180
1FC0
00C0
0180
0380
0640
0780
0000
0000
ENDCHAR
STARTCHAR uni1345
ENCODING 4933
SWIDTH 960 0
DWIDTH 12 0
BBX 12 13 0 -2
BITMAP
0000
0600
0600
0F00
3180
3180
3F80
3180
3180
3780
1800
0000
0000
ENDCHAR
STARTCHAR uni1346
ENCODING 4934
SWIDTH 960 0
DWIDTH 12 0
BBX 12 13 0 -2
BITMAP
0000
1F00
3180
3F80
3180
1F00
1800
1800
3000
3000
3000
0000
0000
ENDCHAR
STARTCHAR uni1348
ENCODING 4936
SWIDTH 960 0
DWIDTH 12 0
BBX 12 13 0 -2
BITMAP
0000
0600
0600
0600
0C00
1C00
3600
3200
3AC0
1FC0
0F80
0000
0000
ENDCHAR
STARTCHAR uni1349
ENCODING 4937
SWIDTH 960 0
DWIDTH 12 0
BBX 12 13 0 -2
BITMAP
0000
0C00
0C00
0C00
1800
3C00
6600
7600
3FC0
1FC0
0600
0600
0000
ENDCHAR
STARTCHAR uni134A
ENCODING 4938
SWIDTH 960 0
DWIDTH 12 0
BBX 12 13 0 -2
BITMAP
0000
0C00
0C00
0C00
1800
3800
6D80
64C0
74C0
3FC0
1F80
0000
0000
ENDCHAR
STARTCHAR uni134B
ENCODING 4939
SWIDTH 960 0
DWIDTH 12 0
BBX 12 13 0 -2
BITMAP
0000
0C00
0C00
0C00
1800
3800
64E0
75E0
3F00
1E00
0C00
0C00
0000
ENDCHAR
STARTCHAR uni134C
ENCODING 4940
SWIDTH 960 0
DWIDTH 12 0
BBX 12 13 0 -2
BITMAP
0000
0C00
0C00
0C00
1800
3800
6800
6400
75C0
3F20
1FC0
0000
0000
ENDCHAR
STARTCHAR uni134D
ENCODING 4941
SWIDTH 960 0
DWIDTH 12 0
BBX 12 13 0 -2
BITMAP
0000
0F00
1F80
3180
3000
3C00
3200
32C0
3FC0
1F80
0600
0600
0000
ENDCHAR
STARTCHAR uni134E
ENCODING 4942
SWIDTH 960 0
DWIDTH 12 0
BBX 12 13 0 -2
BITMAP
0000
1F80
3E40
6180
6000
6000
7800
6400
6580
7F80
3F00
0000
0000
ENDCHAR
STARTCHAR uni134F
ENCODING 4943
SWIDTH 960 0
DWIDTH 12 0
BBX 12 13 0 -2
BITMAP
0000
0C00
0C00
0C00
1800
3800
64E0
75E0
3F00
1E00
0C00
3F00
2100
ENDCHAR
STARTCHAR uni1350
ENCODING 4944
SWIDTH 960 0
DWIDTH 12 0
BBX 12 13 0 -2
BITMAP
0000
3FC0
6660
0600
0600
0600
0600
0600
0600
0600
0600
0000
0000
ENDCHAR
STARTCHAR uni1351
ENCODING 4945
SWIDTH 960 0
DWIDTH 12 0
BBX 12 13 0 -2
BITMAP
0000
3FC0
6660
0600
0600
0600
07E0
0660
0600
0600
0600
0000
0000
ENDCHAR
STARTCHAR uni1352
ENCODING 4946
SWIDTH 960 0
DWIDTH 12 0
BBX 12 13 0 -2
BITMAP
0000
3FC0
6660
0600
0600
0600
0600
0600
0600
0660
07E0
0000
0000
ENDCHAR
STARTCHAR uni1353
ENCODING 4947
SWIDTH 960 0
DWIDTH 12 0
BBX 12 13 0 -2
BITMAP
0000
3FC0
6660
0600
0600
0600
0600
0600
0C00
1800
3000
0000
0000
ENDCHAR
STARTCHAR uni1354
ENCODING 4948
SWIDTH 960 0
DWIDTH 12 0
BBX 12 13 0 -2
BITMAP
0000
3FC0
6660
0600
0600
0600
0600
0600
0780
0640
0780
0000
0000
ENDCHAR
STARTCHAR uni1355
ENCODING 4949
SWIDTH 960 0
DWIDTH 12 0
BBX 12 13 0 -2
BITMAP
0000
3FC0
6660
0600
0600
0780
0180
0180
0180
0180
0180
0000
0000
ENDCHAR
STARTCHAR uni1356
ENCODING 4950
SWIDTH 960 0
DWIDTH 12 0
BBX 12 13 0 -2
BITMAP
0000
3FC0
6660
0600
0600
0C00
0C00
1800
1800
1800
1800
0000
0000
ENDCHAR
STARTCHAR uni1357
ENCODING 4951
SWIDTH 960 0
DWIDTH 12 0
BBX 12 13 0 -2
BITMAP
0000
3FC0
6660
0600
0600
0600
0600
0600
0600
0600
1F80
1080
0000
ENDCHAR
STARTCHAR uni1358
ENCODING 4952
SWIDTH 960 0
DWIDTH 12 0
BBX 12 13 0 -2
BITMAP
0000
3F80
0400
3F80
4A40
4A40
4A40
31C0
0040
0040
0040
0000
0000
ENDCHAR
STARTCHAR uni1359
ENCODING 4953
SWIDTH 960 0
DWIDTH 12 0
BBX 12 13 0 -2
BITMAP
0000
2100
3F00
0C00
0C00
1800
3180
60C0
70C0
3FC0
1F80
0000
0000
ENDCHAR
STARTCHAR uni135A
ENCODING 4954
SWIDTH 960 0
DWIDTH 12 0
BBX 12 13 0 -2
BITMAP
0000
2100
3F00
0C00
0C00
1800
3980
64C0
74C0
3FC0
1F80
0000
0000
ENDCHAR
STARTCHAR uni1361
ENCODING 4961
SWIDTH 960 0
DWIDTH 12 0
BBX 12 13 0 -2
BITMAP
0000
0000
0000
0000
3000
3000
0000
0000
3000
3000
0000
0000
0000
ENDCHAR
STARTCHAR uni1362
ENCODING 4962
SWIDTH 960 0
DWIDTH 12 0
BBX 12 13 0 -2
BITMAP
0000
0000
0000
0000
3600
3600
0000
0000
3600
3600
0000
0000
0000
ENDCHAR
STARTCHAR uni1363
ENCODING 4963
SWIDTH 960 0
DWIDTH 12 0
BBX 12 13 0 -2
BITMAP
0000
00C0
3FC0
3000
0600
0600
0000
0000
0600
0600
0000
0000
0000
ENDCHAR
STARTCHAR uni1364
ENCODING 4964
SWIDTH 960 0
DWIDTH 12 0
BBX 12 13 0 -2
BITMAP
0000
00C0
3FC0
3000
0600
0600
0000
0600
0600
00C0
3FC0
3000
0000
ENDCHAR
STARTCHAR uni1365
ENCODING 4965
SWIDTH 960 0
DWIDTH 12 0
BBX 12 13 0 -2
BITMAP
0000
0000
0000
0600
0600
00C0
3FC0
3000
0600
0600
0000
0000
0000
ENDCHAR
STARTCHAR uni1366
ENCODING 4966
SWIDTH 960 0
DWIDTH 12 0
BBX 12 13 0 -2
BITMAP
0000
0000
0000
3000
3000
0000
1E00
0000
3000
3000
0000
0000
0000
ENDCHAR
STARTCHAR uni1367
ENCODING 4967
SWIDTH 960 0
DWIDTH 12 0
BBX 12 13 0 -2
BITMAP
0000
0000
3000
3000
0000
3000
3000
0000
3000
3000
0000
0000
0000
ENDCHAR
STARTCHAR uni1368
ENCODING 4968
SWIDTH 960 0
DWIDTH 12 0
BBX 12 13 0 -2
BITMAP
0000
0000
0600
0600
30C0
36C0
0600
30C0
30C0
0600
0600
0000
0000
ENDCHAR
STARTCHAR uni1E02
ENCODING 7682
SWIDTH 960 0
DWIDTH 12 0
BBX 12 13 0 -2
BITMAP
0C00
0C00
0000
7F00
3180
3180
3F00
3080
30C0
30C0
7F80
0000
0000
ENDCHAR
STARTCHAR uni1E03
ENCODING 7683
SWIDTH 960 0
DWIDTH 12 0
BBX 12 13 0 -2
BITMAP
0000
0300
3B00
1800
1B00
1D80
18C0
18C0
18C0
1CC0
3B80
0000
0000
ENDCHAR
STARTCHAR uni1E0A
ENCODING 7690
SWIDTH 960 0
DWIDTH 12 0
BBX 12 13 0 -2
BITMAP
0C00
0C00
0000
7E00
31C0
30C0
30C0
30C0
30C0
3180
7E00
0000
0000
ENDCHAR
STARTCHAR uni1E0B
ENCODING 7691
SWIDTH 960 0
DWIDTH 12 0
BBX 12 13 0 -2
BITMAP
0000
1800
1B80
0180
0D80
3380
6180
6180
6180
3380
1DC0
0000
0000
ENDCHAR
STARTCHAR uni1E1E
ENCODING 7710
SWIDTH 960 0
DWIDTH 12 0
BBX 12 13 0 -2
BITMAP
0600
0600
0000
3FC0
1840
1800
1880
1F80
1880
1800
3E00
0000
0000
ENDCHAR
STARTCHAR uni1E1F
ENCODING 7711
SWIDTH 960 0
DWIDTH 12 0
BBX 12 13 0 -2
BITMAP
1800
1800
0700
0980
1800
3F00
1800
1800
1800
1800
3E00
0000
0000
ENDCHAR
STARTCHAR uni1E40
ENCODING 7744
SWIDTH 960 0
DWIDTH 12 0
BBX 12 13 0 -2
BITMAP
0C00
0C00
61C0
3180
3180
3B80
3B80
2D80
2D80
2580
71C0
0000
0000
ENDCHAR
STARTCHAR uni1E41
ENCODING 7745
SWIDTH 960 0
DWIDTH 12 0
BBX 12 13 0 -2
BITMAP
0000
0600
0600
0000
6D80
36C0
36C0
36C0
36C0
36C0
76E0
0000
0000
ENDCHAR
STARTCHAR uni1E56
ENCODING 7766
SWIDTH 960 0
DWIDTH 12 0
BBX 12 13 0 -2
BITMAP
0600
0600
0000
3F00
18C0
18C0
1F00
1800
1800
1800
3C00
0000
0000
ENDCHAR
STARTCHAR uni1E57
ENCODING 7767
SWIDTH 960 0
DWIDTH 12 0
BBX 12 13 0 -2
BITMAP
0000
0600
0600
0000
3B00
1C80
18C0
18C0
18C0
1C80
1B00
1800
3C00
ENDCHAR
STARTCHAR uni1E60
ENCODING 7776
SWIDTH 960 0
DWIDTH 12 0
BBX 12 13 0 -2
BITMAP
0600
0600
0000
1E80
1180
3080
1E00
0780
20C0
30C0
2F80
0000
0000
ENDCHAR
STARTCHAR uni1E61
ENCODING 7777
SWIDTH 960 0
DWIDTH 12 0
BBX 12 13 0 -2
BITMAP
0000
0600
0600
0000
1F80
3080
3000
1F80
00C0
30C0
2F80
0000
0000
ENDCHAR
STARTCHAR uni1E6A
ENCODING 7786
SWIDTH 960 0
DWIDTH 12 0
BBX 12 13 0 -2
BITMAP
0600
0600
0000
3FC0
2640
0600
0600
0600
0600
0600
0F00
0000
0000
ENDCHAR
STARTCHAR uni1E6B
ENCODING 7787
SWIDTH 960 0
DWIDTH 12 0
BBX 12 13 0 -2
BITMAP
0C00
0C00
0000
0400
0C00
3F80
0C00
0C00
0C00
0C80
0700
0000
0000
ENDCHAR
STARTCHAR Wgrave
ENCODING 7808
SWIDTH 960 0
DWIDTH 12 0
BBX 12 13 0 -2
BITMAP
1800
0C00
0200
EE60
6640
37C0
3B80
3B80
1980
1980
1980
0000
0000
ENDCHAR
STARTCHAR wgrave
ENCODING 7809
SWIDTH 960 0
DWIDTH 12 0
BBX 12 13 0 -2
BITMAP
1800
0C00
0200
0000
76E0
7640
3640
3B80
3B80
1980
1980
0000
0000
ENDCHAR
STARTCHAR Wacute
ENCODING 7810
SWIDTH 960 0
DWIDTH 12 0
BBX 12 13 0 -2
BITMAP
0600
0C00
1000
EE60
6640
37C0
3B80
3B80
1980
1980
1980
0000
0000
ENDCHAR
STARTCHAR wacute
ENCODING 7811
SWIDTH 960 0
DWIDTH 12 0
BBX 12 13 0 -2
BITMAP
0300
0600
0800
0000
76E0
7640
3640
3B80
3B80
1980
1980
0000
0000
ENDCHAR
STARTCHAR Wdieresis
ENCODING 7812
SWIDTH 960 0
DWIDTH 12 0
BBX 12 13 0 -2
BITMAP
3300
3300
0000
EE60
6640
37C0
3B80
3B80
1980
1980
1980
0000
0000
ENDCHAR
STARTCHAR wdieresis
ENCODING 7813
SWIDTH 960 0
DWIDTH 12 0
BBX 12 13 0 -2
BITMAP
0000
1980
1980
0000
76E0
7640
3640
3B80
3B80
1980
1980
0000
0000
ENDCHAR
STARTCHAR Ygrave
ENCODING 7922
SWIDTH 960 0
DWIDTH 12 0
BBX 12 13 0 -2
BITMAP
1800
0C00
0200
7BC0
3100
1A00
0C00
0C00
0C00
0C00
1E00
0000
0000
ENDCHAR
STARTCHAR ygrave
ENCODING 7923
SWIDTH 960 0
DWIDTH 12 0
BBX 12 13 0 -2
BITMAP
0C00
0600
0100
0000
7DC0
3080
1880
1900
0D00
0E00
6600
6400
3800
ENDCHAR
STARTCHAR uni2010
ENCODING 8208
SWIDTH 960 0
DWIDTH 12 0
BBX 12 13 0 -2
BITMAP
0000
0000
0000
0000
0000
0000
1F00
0000
0000
0000
0000
0000
0000
ENDCHAR
STARTCHAR uni2011
ENCODING 8209
SWIDTH 960 0
DWIDTH 12 0
BBX 12 13 0 -2
BITMAP
0000
0000
0000
0000
0000
0000
1F00
0000
0000
0000
0000
0000
0000
ENDCHAR
STARTCHAR figuredash
ENCODING 8210
SWIDTH 960 0
DWIDTH 12 0
BBX 12 13 0 -2
BITMAP
0000
0000
0000
0000
0000
0000
3F80
0000
0000
0000
0000
0000
0000
ENDCHAR
STARTCHAR endash
ENCODING 8211
SWIDTH 960 0
DWIDTH 12 0
BBX 12 13 0 -2
BITMAP
0000
0000
0000
0000
0000
0000
3F80
0000
0000
0000
0000
0000
0000
ENDCHAR
STARTCHAR emdash
ENCODING 8212
SWIDTH 960 0
DWIDTH 12 0
BBX 12 13 0 -2
BITMAP
0000
0000
0000
0000
0000
0000
FFE0
0000
0000
0000
0000
0000
0000
ENDCHAR
STARTCHAR afii00208
ENCODING 8213
SWIDTH 960 0
DWIDTH 12 0
BBX 12 13 0 -2
BITMAP
0000
0000
0000
0000
0000
0000
FFF0
0000
0000
0000
0000
0000
0000
ENDCHAR
STARTCHAR uni2016
ENCODING 8214
SWIDTH 960 0
DWIDTH 12 0
BBX 12 13 0 -2
BITMAP
0000
0900
0900
0900
0900
0900
0900
0900
0900
0900
0900
0900
0000
ENDCHAR
STARTCHAR underscoredbl
ENCODING 8215
SWIDTH 960 0
DWIDTH 12 0
BBX 12 13 0 -2
BITMAP
0000
0000
0000
0000
0000
0000
0000
0000
0000
0000
FFE0
0000
FFE0
ENDCHAR
STARTCHAR quoteleft
ENCODING 8216
SWIDTH 960 0
DWIDTH 12 0
BBX 12 13 0 -2
BITMAP
0000
0600
0C00
0E00
0400
0000
0000
0000
0000
0000
0000
0000
0000
ENDCHAR
STARTCHAR quoteright
ENCODING 8217
SWIDTH 960 0
DWIDTH 12 0
BBX 12 13 0 -2
BITMAP
0000
0400
0E00
0600
0C00
0000
0000
0000
0000
0000
0000
0000
0000
ENDCHAR
STARTCHAR quotesinglbase
ENCODING 8218
SWIDTH 960 0
DWIDTH 12 0
BBX 12 13 0 -2
BITMAP
0000
0000
0000
0000
0000
0000
0000
0000
0400
0E00
0600
0C00
0000
ENDCHAR
STARTCHAR quotereversed
ENCODING 8219
SWIDTH 960 0
DWIDTH 12 0
BBX 12 13 0 -2
BITMAP
0000
0400
0E00
0C00
0600
0000
0000
0000
0000
0000
0000
0000
0000
ENDCHAR
STARTCHAR quotedblleft
ENCODING 8220
SWIDTH 960 0
DWIDTH 12 0
BBX 12 13 0 -2
BITMAP
0000
1980
3300
3B80
1100
0000
0000
0000
0000
0000
0000
0000
0000
ENDCHAR
STARTCHAR quotedblright
ENCODING 8221
SWIDTH 960 0
DWIDTH 12 0
BBX 12 13 0 -2
BITMAP
0000
1100
3B80
1980
3300
0000
0000
0000
0000
0000
0000
0000
0000
ENDCHAR
STARTCHAR quotedblbase
ENCODING 8222
SWIDTH 960 0
DWIDTH 12 0
BBX 12 13 0 -2
BITMAP
0000
0000
0000
0000
0000
0000
0000
0000
1100
3B80
1980
3300
0000
ENDCHAR
STARTCHAR uni201F
ENCODING 8223
SWIDTH 960 0
DWIDTH 12 0
BBX 12 13 0 -2
BITMAP
0000
1100
3B80
3300
1980
0000
0000
0000
0000
0000
0000
0000
0000
ENDCHAR
STARTCHAR dagger
ENCODING 8224
SWIDTH 960 0
DWIDTH 12 0
BBX 12 13 0 -2
BITMAP
0000
0400
0E00
0400
3F80
3580
0E00
0E00
0400
0400
0400
0400
0400
ENDCHAR
STARTCHAR daggerdbl
ENCODING 8225
SWIDTH 960 0
DWIDTH 12 0
BBX 12 13 0 -2
BITMAP
0000
0400
0E00
2480
3F80
2E80
0400
0400
2E80
3F80
2480
0E00
0400
ENDCHAR
STARTCHAR bullet
ENCODING 8226
SWIDTH 960 0
DWIDTH 12 0
BBX 12 13 0 -2
BITMAP
0000
0000
0000
0E00
1F00
3F80
3F80
3F80
1F00
0E00
0000
0000
0000
ENDCHAR
STARTCHAR uni2023
ENCODING 8227
SWIDTH 960 0
DWIDTH 12 0
BBX 12 13 0 -2
BITMAP
0000
0000
1000
1800
1C00
1E00
1F00
1E00
1C00
1800
1000
0000
0000
ENDCHAR
STARTCHAR onedotenleader
ENCODING 8228
SWIDTH 960 0
DWIDTH 12 0
BBX 12 13 0 -2
BITMAP
0000
0000
0000
0000
0000
0000
0000
0000
0000
0600
0600
0000
0000
ENDCHAR
STARTCHAR twodotenleader
ENCODING 8229
SWIDTH 960 0
DWIDTH 12 0
BBX 12 13 0 -2
BITMAP
0000
0000
0000
0000
0000
0000
0000
0000
0000
1980
1980
0000
0000
ENDCHAR
STARTCHAR ellipsis
ENCODING 8230
SWIDTH 960 0
DWIDTH 12 0
BBX 12 13 0 -2
BITMAP
0000
0000
0000
0000
0000
0000
0000
0000
0000
36C0
36C0
0000
0000
ENDCHAR
STARTCHAR uni2027
ENCODING 8231
SWIDTH 960 0
DWIDTH 12 0
BBX 12 13 0 -2
BITMAP
0000
0000
0000
0000
0000
0000
0600
0600
0000
0000
0000
0000
0000
ENDCHAR
STARTCHAR perthousand
ENCODING 8240
SWIDTH 960 0
DWIDTH 12 0
BBX 12 13 0 -2
BITMAP
0000
3880
6D00
6D00
6A00
3400
0640
0DA0
1DA0
35A0
2240
0000
0000
ENDCHAR
STARTCHAR uni2031
ENCODING 8241
SWIDTH 960 0
DWIDTH 12 0
BBX 12 13 0 -2
BITMAP
0000
4400
A800
A800
B000
6000
3240
6DA0
EDA0
ADA0
1240
0000
0000
ENDCHAR
STARTCHAR minute
ENCODING 8242
SWIDTH 960 0
DWIDTH 12 0
BBX 12 13 0 -2
BITMAP
0000
3000
3000
2000
4000
0000
0000
0000
0000
0000
0000
0000
0000
ENDCHAR
STARTCHAR second
ENCODING 8243
SWIDTH 960 0
DWIDTH 12 0
BBX 12 13 0 -2
BITMAP
0000
3600
3600
2400
4800
0000
0000
0000
0000
0000
0000
0000
0000
ENDCHAR
STARTCHAR uni2034
ENCODING 8244
SWIDTH 960 0
DWIDTH 12 0
BBX 12 13 0 -2
BITMAP
0000
36C0
36C0
2480
4900
0000
0000
0000
0000
0000
0000
0000
0000
ENDCHAR
STARTCHAR uni2035
ENCODING 8245
SWIDTH 960 0
DWIDTH 12 0
BBX 12 13 0 -2
BITMAP
0000
3000
3000
1000
0800
0000
0000
0000
0000
0000
0000
0000
0000
ENDCHAR
STARTCHAR uni2036
ENCODING 8246
SWIDTH 960 0
DWIDTH 12 0
BBX 12 13 0 -2
BITMAP
0000
3600
3600
1200
0900
0000
0000
0000
0000
0000
0000
0000
0000
ENDCHAR
STARTCHAR uni2037
ENCODING 8247
SWIDTH 960 0
DWIDTH 12 0
BBX 12 13 0 -2
BITMAP
0000
6D80
6D80
2480
1240
0000
0000
0000
0000
0000
0000
0000
0000
ENDCHAR
STARTCHAR guilsinglleft
ENCODING 8249
SWIDTH 960 0
DWIDTH 12 0
BBX 12 13 0 -2
BITMAP
0000
0000
0000
0000
0200
0400
0C00
0C00
0400
0200
0000
0000
0000
ENDCHAR
STARTCHAR guilsinglright
ENCODING 8250
SWIDTH 960 0
DWIDTH 12 0
BBX 12 13 0 -2
BITMAP
0000
0000
0000
0000
0800
0400
0600
0600
0400
0800
0000
0000
0000
ENDCHAR
STARTCHAR uni203B
ENCODING 8251
SWIDTH 960 0
DWIDTH 12 0
BBX 12 13 0 -2
BITMAP
0000
0000
4440
2480
1100
0A00
64C0
0A00
1100
2480
4440
0000
0000
ENDCHAR
STARTCHAR exclamdbl
ENCODING 8252
SWIDTH 960 0
DWIDTH 12 0
BBX 12 13 0 -2
BITMAP
0000
1080
39C0
39C0
39C0
39C0
1080
1080
0000
1080
39C0
1080
0000
ENDCHAR
STARTCHAR uni203E
ENCODING 8254
SWIDTH 960 0
DWIDTH 12 0
BBX 12 13 0 -2
BITMAP
0000
FFF0
0000
0000
0000
0000
0000
0000
0000
0000
0000
0000
0000
ENDCHAR
STARTCHAR fraction
ENCODING 8260
SWIDTH 960 0
DWIDTH 12 0
BBX 12 13 0 -2
BITMAP
0080
0080
0100
0100
0200
0200
0400
0400
0800
0800
1000
1000
0000
ENDCHAR
STARTCHAR zerosuperior
ENCODING 8304
SWIDTH 960 0
DWIDTH 12 0
BBX 12 13 0 -2
BITMAP
1C00
3600
3600
3600
3600
3600
1C00
0000
0000
0000
0000
0000
0000
ENDCHAR
STARTCHAR foursuperior
ENCODING 8308
SWIDTH 960 0
DWIDTH 12 0
BBX 12 13 0 -2
BITMAP
0600
0E00
1E00
3600
3600
3F00
0600
0000
0000
0000
0000
0000
0000
ENDCHAR
STARTCHAR fivesuperior
ENCODING 8309
SWIDTH 960 0
DWIDTH 12 0
BBX 12 13 0 -2
BITMAP
3E00
3000
3000
3C00
0600
0600
3C00
0000
0000
0000
0000
0000
0000
ENDCHAR
STARTCHAR sixsuperior
ENCODING 8310
SWIDTH 960 0
DWIDTH 12 0
BBX 12 13 0 -2
BITMAP
1C00
3600
3000
3C00
3600
3600
1C00
0000
0000
0000
0000
0000
0000
ENDCHAR
STARTCHAR sevensuperior
ENCODING 8311
SWIDTH 960 0
DWIDTH 12 0
BBX 12 13 0 -2
BITMAP
3E00
0600
0C00
0C00
1800
1800
1800
0000
0000
0000
0000
0000
0000
ENDCHAR
STARTCHAR eightsuperior
ENCODING 8312
SWIDTH 960 0
DWIDTH 12 0
BBX 12 13 0 -2
BITMAP
1C00
3600
3600
1C00
3600
3600
1C00
0000
0000
0000
0000
0000
0000
ENDCHAR
STARTCHAR ninesuperior
ENCODING 8313
SWIDTH 960 0
DWIDTH 12 0
BBX 12 13 0 -2
BITMAP
1C00
3600
3600
1E00
0600
3600
1C00
0000
0000
0000
0000
0000
0000
ENDCHAR
STARTCHAR uni207A
ENCODING 8314
SWIDTH 960 0
DWIDTH 12 0
BBX 12 13 0 -2
BITMAP
0000
0800
0800
3E00
0800
0800
0000
0000
0000
0000
0000
0000
0000
ENDCHAR
STARTCHAR uni207B
ENCODING 8315
SWIDTH 960 0
DWIDTH 12 0
BBX 12 13 0 -2
BITMAP
0000
0000
0000
3E00
0000
0000
0000
0000
0000
0000
0000
0000
0000
ENDCHAR
STARTCHAR uni207C
ENCODING 8316
SWIDTH 960 0
DWIDTH 12 0
BBX 12 13 0 -2
BITMAP
0000
0000
3E00
0000
3E00
0000
0000
0000
0000
0000
0000
0000
0000
ENDCHAR
STARTCHAR parenleftsuperior
ENCODING 8317
SWIDTH 960 0
DWIDTH 12 0
BBX 12 13 0 -2
BITMAP
0C00
1800
1800
1800
1800
1800
0C00
0000
0000
0000
0000
0000
0000
ENDCHAR
STARTCHAR parenrightsuperior
ENCODING 8318
SWIDTH 960 0
DWIDTH 12 0
BBX 12 13 0 -2
BITMAP
1800
0C00
0C00
0C00
0C00
0C00
1800
0000
0000
0000
0000
0000
0000
ENDCHAR
STARTCHAR nsuperior
ENCODING 8319
SWIDTH 960 0
DWIDTH 12 0
BBX 12 13 0 -2
BITMAP
0000
0000
3600
1B00
1B00
1B00
1B00
0000
0000
0000
0000
0000
0000
ENDCHAR
STARTCHAR zeroinferior
ENCODING 8320
SWIDTH 960 0
DWIDTH 12 0
BBX 12 13 0 -2
BITMAP
0000
0000
0000
0000
0000
0000
1C00
3600
3600
3600
3600
3600
1C00
ENDCHAR
STARTCHAR oneinferior
ENCODING 8321
SWIDTH 960 0
DWIDTH 12 0
BBX 12 13 0 -2
BITMAP
0000
0000
0000
0000
0000
0000
1800
3800
1800
1800
1800
1800
3C00
ENDCHAR
STARTCHAR twoinferior
ENCODING 8322
SWIDTH 960 0
DWIDTH 12 0
BBX 12 13 0 -2
BITMAP
0000
0000
0000
0000
0000
0000
1C00
2600
0600
0C00
1800
3000
3E00
ENDCHAR
STARTCHAR threeinferior
ENCODING 8323
SWIDTH 960 0
DWIDTH 12 0
BBX 12 13 0 -2
BITMAP
0000
0000
0000
0000
0000
0000
1C00
3600
0600
0C00
0600
3600
1C00
ENDCHAR
STARTCHAR fourinferior
ENCODING 8324
SWIDTH 960 0
DWIDTH 12 0
BBX 12 13 0 -2
BITMAP
0000
0000
0000
0000
0000
0000
0600
0E00
1E00
3600
3600
3F00
0600
ENDCHAR
STARTCHAR fiveinferior
ENCODING 8325
SWIDTH 960 0
DWIDTH 12 0
BBX 12 13 0 -2
BITMAP
0000
0000
0000
0000
0000
0000
3E00
3000
3000
3C00
0600
0600
3C00
ENDCHAR
STARTCHAR sixinferior
ENCODING 8326
SWIDTH 960 0
DWIDTH 12 0
BBX 12 13 0 -2
BITMAP
0000
0000
0000
0000
0000
0000
1C00
3600
3000
3C00
3600
3600
1C00
ENDCHAR
STARTCHAR seveninferior
ENCODING 8327
SWIDTH 960 0
DWIDTH 12 0
BBX 12 13 0 -2
BITMAP
0000
0000
0000
0000
0000
0000
3E00
0600
0C00
0C00
1800
1800
1800
ENDCHAR
STARTCHAR eightinferior
ENCODING 8328
SWIDTH 960 0
DWIDTH 12 0
BBX 12 13 0 -2
BITMAP
0000
0000
0000
0000
0000
0000
1C00
3600
3600
1C00
3600
3600
1C00
ENDCHAR
STARTCHAR nineinferior
ENCODING 8329
SWIDTH 960 0
DWIDTH 12 0
BBX 12 13 0 -2
BITMAP
0000
0000
0000
0000
0000
0000
1C00
3600
3600
1E00
0600
3600
1C00
ENDCHAR
STARTCHAR uni208A
ENCODING 8330
SWIDTH 960 0
DWIDTH 12 0
BBX 12 13 0 -2
BITMAP
0000
0000
0000
0000
0000
0000
0000
0800
0800
3E00
0800
0800
0000
ENDCHAR
STARTCHAR uni208B
ENCODING 8331
SWIDTH 960 0
DWIDTH 12 0
BBX 12 13 0 -2
BITMAP
0000
0000
0000
0000
0000
0000
0000
0000
0000
3E00
0000
0000
0000
ENDCHAR
STARTCHAR uni208C
ENCODING 8332
SWIDTH 960 0
DWIDTH 12 0
BBX 12 13 0 -2
BITMAP
0000
0000
0000
0000
0000
0000
0000
0000
3E00
0000
3E00
0000
0000
ENDCHAR
STARTCHAR parenleftinferior
ENCODING 8333
SWIDTH 960 0
DWIDTH 12 0
BBX 12 13 0 -2
BITMAP
0000
0000
0000
0000
0000
0000
0C00
1800
1800
1800
1800
1800
0C00
ENDCHAR
STARTCHAR parenrightinferior
ENCODING 8334
SWIDTH 960 0
DWIDTH 12 0
BBX 12 13 0 -2
BITMAP
0000
0000
0000
0000
0000
0000
1800
0C00
0C00
0C00
0C00
0C00
1800
ENDCHAR
STARTCHAR franc
ENCODING 8355
SWIDTH 960 0
DWIDTH 12 0
BBX 12 13 0 -2
BITMAP
0000
0000
7F80
3080
3000
3000
3EC0
3300
3300
3300
7F00
0000
0000
ENDCHAR
STARTCHAR lira
ENCODING 8356
SWIDTH 960 0
DWIDTH 12 0
BBX 12 13 0 -2
BITMAP
0000
0380
06C0
0C00
3F80
0C00
3F80
0C00
3C20
4E40
3980
0000
0000
ENDCHAR
STARTCHAR peseta
ENCODING 8359
SWIDTH 960 0
DWIDTH 12 0
BBX 12 13 0 -2
BITMAP
0000
0000
7E00
3180
7FC0
3180
3E00
3000
3000
3000
7800
0000
0000
ENDCHAR
STARTCHAR uni20A9
ENCODING 8361
SWIDTH 960 0
DWIDTH 12 0
BBX 12 13 0 -2
BITMAP
0000
0000
EE60
6640
6640
36C0
FFE0
3B80
FFE0
1980
1980
0000
0000
ENDCHAR
STARTCHAR Euro
ENCODING 8364
SWIDTH 960 0
DWIDTH 12 0
BBX 12 13 0 -2
BITMAP
0000
0000
0780
0C40
1800
3F80
1800
3F00
1800
0C40
0780
0000
0000
ENDCHAR
STARTCHAR uni20D0
ENCODING 8400
SWIDTH 960 0
DWIDTH 12 0
BBX 12 13 0 -2
BITMAP
1000
2000
7FC0
0000
0000
0000
0000
0000
0000
0000
0000
0000
0000
ENDCHAR
STARTCHAR uni20D1
ENCODING 8401
SWIDTH 960 0
DWIDTH 12 0
BBX 12 13 0 -2
BITMAP
0100
0080
7FC0
0000
0000
0000
0000
0000
0000
0000
0000
0000
0000
ENDCHAR
STARTCHAR uni20D2
ENCODING 8402
SWIDTH 960 0
DWIDTH 12 0
BBX 12 13 0 -2
BITMAP
0000
0400
0400
0400
0400
0400
0400
0400
0400
0400
0400
0400
0000
ENDCHAR
STARTCHAR uni20D3
ENCODING 8403
SWIDTH 960 0
DWIDTH 12 0
BBX 12 13 0 -2
BITMAP
0000
0000
0000
0000
0400
0400
0400
0400
0400
0400
0400
0400
0000
ENDCHAR
STARTCHAR uni20D4
ENCODING 8404
SWIDTH 960 0
DWIDTH 12 0
BBX 12 13 0 -2
BITMAP
5F80
6040
7000
0000
0000
0000
0000
0000
0000
0000
0000
0000
0000
ENDCHAR
STARTCHAR uni20D5
ENCODING 8405
SWIDTH 960 0
DWIDTH 12 0
BBX 12 13 0 -2
BITMAP
3F40
40C0
01C0
0000
0000
0000
0000
0000
0000
0000
0000
0000
0000
ENDCHAR
STARTCHAR uni20D6
ENCODING 8406
SWIDTH 960 0
DWIDTH 12 0
BBX 12 13 0 -2
BITMAP
1000
3FC0
1000
0000
0000
0000
0000
0000
0000
0000
0000
0000
0000
ENDCHAR
STARTCHAR uni20D7
ENCODING 8407
SWIDTH 960 0
DWIDTH 12 0
BBX 12 13 0 -2
BITMAP
0080
3FC0
0080
0000
0000
0000
0000
0000
0000
0000
0000
0000
0000
ENDCHAR
STARTCHAR uni20D8
ENCODING 8408
SWIDTH 960 0
DWIDTH 12 0
BBX 12 13 0 -2
BITMAP
0000
0000
0000
0000
0000
0600
0900
0900
0600
0000
0000
0000
0000
ENDCHAR
STARTCHAR uni20D9
ENCODING 8409
SWIDTH 960 0
DWIDTH 12 0
BBX 12 13 0 -2
BITMAP
0000
0000
0000
0000
0000
0700
0B00
0900
0600
0000
0000
0000
0000
ENDCHAR
STARTCHAR uni20DA
ENCODING 8410
SWIDTH 960 0
DWIDTH 12 0
BBX 12 13 0 -2
BITMAP
0000
0000
0000
0000
0000
0600
0900
0B00
0700
0000
0000
0000
0000
ENDCHAR
STARTCHAR uni20DB
ENCODING 8411
SWIDTH 960 0
DWIDTH 12 0
BBX 12 13 0 -2
BITMAP
36C0
36C0
0000
0000
0000
0000
0000
0000
0000
0000
0000
0000
0000
ENDCHAR
STARTCHAR uni20DC
ENCODING 8412
SWIDTH 960 0
DWIDTH 12 0
BBX 12 13 0 -2
BITMAP
DB60
DB60
0000
0000
0000
0000
0000
0000
0000
0000
0000
0000
0000
ENDCHAR
STARTCHAR uni20DD
ENCODING 8413
SWIDTH 960 0
DWIDTH 12 0
BBX 12 13 0 -2
BITMAP
0F00
30C0
4020
4020
8010
8010
8010
8010
8010
4020
4020
30C0
0F00
ENDCHAR
STARTCHAR uni20DE
ENCODING 8414
SWIDTH 960 0
DWIDTH 12 0
BBX 12 13 0 -2
BITMAP
FFF0
8010
8010
8010
8010
8010
8010
8010
8010
8010
8010
8010
FFF0
ENDCHAR
STARTCHAR uni20DF
ENCODING 8415
SWIDTH 960 0
DWIDTH 12 0
BBX 12 13 0 -2
BITMAP
0000
0600
0900
1080
2040
4020
8010
8010
4020
2040
1080
0900
0600
ENDCHAR
STARTCHAR uni20E0
ENCODING 8416
SWIDTH 960 0
DWIDTH 12 0
BBX 12 13 0 -2
BITMAP
0F00
30C0
6020
5020
8810
8410
8210
8210
8110
40A0
4060
30C0
0F00
ENDCHAR
STARTCHAR uni20E1
ENCODING 8417
SWIDTH 960 0
DWIDTH 12 0
BBX 12 13 0 -2
BITMAP
1080
3FC0
1080
0000
0000
0000
0000
0000
0000
0000
0000
0000
0000
ENDCHAR
STARTCHAR uni2102
ENCODING 8450
SWIDTH 960 0
DWIDTH 12 0
BBX 12 13 0 -2
BITMAP
0000
0000
0F40
1EC0
3640
3600
3600
3600
3600
1EC0
0F80
0000
0000
ENDCHAR
STARTCHAR uni2103
ENCODING 8451
SWIDTH 960 0
DWIDTH 12 0
BBX 12 13 0 -2
BITMAP
0000
7000
53A0
7660
0C20
0C00
0C00
0C00
0C00
0620
03C0
0000
0000
ENDCHAR
STARTCHAR afii61248
ENCODING 8453
SWIDTH 960 0
DWIDTH 12 0
BBX 12 13 0 -2
BITMAP
0000
0000
3800
6C00
6000
6C00
3B80
06C0
06C0
06C0
0380
0000
0000
ENDCHAR
STARTCHAR uni210D
ENCODING 8461
SWIDTH 960 0
DWIDTH 12 0
BBX 12 13 0 -2
BITMAP
0000
0000
6C60
6C60
6C60
6C60
6FE0
6C60
6C60
6C60
6C60
0000
0000
ENDCHAR
STARTCHAR afii61289
ENCODING 8467
SWIDTH 960 0
DWIDTH 12 0
BBX 12 13 0 -2
BITMAP
0000
0000
0200
0500
0500
0500
0600
1C00
0400
0400
0300
0000
0000
ENDCHAR
STARTCHAR uni2115
ENCODING 8469
SWIDTH 960 0
DWIDTH 12 0
BBX 12 13 0 -2
BITMAP
0000
0000
7840
6C40
6E40
6F40
6F40
6DC0
6CC0
6C40
6C40
0000
0000
ENDCHAR
STARTCHAR afii61352
ENCODING 8470
SWIDTH 960 0
DWIDTH 12 0
BBX 12 13 0 -2
BITMAP
0000
0000
CE00
6400
75C0
5F60
5F60
4F60
45C0
4400
EFE0
0000
0000
ENDCHAR
STARTCHAR uni2119
ENCODING 8473
SWIDTH 960 0
DWIDTH 12 0
BBX 12 13 0 -2
BITMAP
0000
0000
7F00
6D80
6CC0
6CC0
6D80
6F00
6C00
6C00
6C00
0000
0000
ENDCHAR
STARTCHAR uni211A
ENCODING 8474
SWIDTH 960 0
DWIDTH 12 0
BBX 12 13 0 -2
BITMAP
0000
0000
0E00
3D80
6CC0
6CC0
6CC0
6CC0
6CC0
3F80
1F80
00C0
0000
ENDCHAR
STARTCHAR uni211D
ENCODING 8477
SWIDTH 960 0
DWIDTH 12 0
BBX 12 13 0 -2
BITMAP
0000
0000
7F00
6D80
6CC0
6CC0
6D80
6F00
6D80
6CC0
6CC0
0000
0000
ENDCHAR
STARTCHAR trademark
ENCODING 8482
SWIDTH 960 0
DWIDTH 12 0
BBX 12 13 0 -2
BITMAP
0000
0000
FA20
2360
22A0
2220
2220
0000
0000
0000
0000
0000
0000
ENDCHAR
STARTCHAR uni2124
ENCODING 8484
SWIDTH 960 0
DWIDTH 12 0
BBX 12 13 0 -2
BITMAP
0000
0000
7FE0
46C0
06C0
0D80
0D80
1B00
1B00
3620
7FC0
0000
0000
ENDCHAR
STARTCHAR Omega
ENCODING 8486
SWIDTH 960 0
DWIDTH 12 0
BBX 12 13 0 -2
BITMAP
0000
0000
0E00
3180
60C0
60C0
60C0
3180
1100
4A40
7BC0
0000
0000
ENDCHAR
STARTCHAR uni2127
ENCODING 8487
SWIDTH 960 0
DWIDTH 12 0
BBX 12 13 0 -2
BITMAP
0000
0000
7BC0
4A40
1100
3180
60C0
60C0
60C0
3180
0E00
0000
0000
ENDCHAR
STARTCHAR uni212B
ENCODING 8491
SWIDTH 960 0
DWIDTH 12 0
BBX 12 13 0 -2
BITMAP
0E00
0A00
0E00
0400
0E00
0E00
1300
1300
3F80
3180
61C0
0000
0000
ENDCHAR
STARTCHAR estimated
ENCODING 8494
SWIDTH 960 0
DWIDTH 12 0
BBX 12 13 0 -2
BITMAP
0000
0000
0000
0000
1F00
3180
71C0
7FC0
7000
31C0
1F00
0000
0000
ENDCHAR
STARTCHAR oneeighth
ENCODING 8539
SWIDTH 960 0
DWIDTH 12 0
BBX 12 13 0 -2
BITMAP
3080
7080
3100
3100
3200
33C0
7F60
0760
09C0
0B60
1360
11C0
0000
ENDCHAR
STARTCHAR threeeighths
ENCODING 8540
SWIDTH 960 0
DWIDTH 12 0
BBX 12 13 0 -2
BITMAP
3080
5880
1900
3100
1A00
5BC0
3760
0760
09C0
0B60
1360
11C0
0000
ENDCHAR
STARTCHAR fiveeighths
ENCODING 8541
SWIDTH 960 0
DWIDTH 12 0
BBX 12 13 0 -2
BITMAP
7880
6080
7100
1900
1A00
5BC0
3760
0760
09C0
0B60
1360
11C0
0000
ENDCHAR
STARTCHAR seveneighths
ENCODING 8542
SWIDTH 960 0
DWIDTH 12 0
BBX 12 13 0 -2
BITMAP
7880
1880
1900
3100
3200
33C0
3760
0760
09C0
0B60
1360
11C0
0000
ENDCHAR
STARTCHAR arrowleft
ENCODING 8592
SWIDTH 960 0
DWIDTH 12 0
BBX 12 13 0 -2
BITMAP
0000
0000
0000
0800
1000
2000
7FE0
2000
1000
0800
0000
0000
0000
ENDCHAR
STARTCHAR arrowup
ENCODING 8593
SWIDTH 960 0
DWIDTH 12 0
BBX 12 13 0 -2
BITMAP
0000
0400
0E00
1500
2480
0400
0400
0400
0400
0400
0400
0000
0000
ENDCHAR
STARTCHAR arrowright
ENCODING 8594
SWIDTH 960 0
DWIDTH 12 0
BBX 12 13 0 -2
BITMAP
0000
0000
0000
0100
0080
0040
7FE0
0040
0080
0100
0000
0000
0000
ENDCHAR
STARTCHAR arrowdown
ENCODING 8595
SWIDTH 960 0
DWIDTH 12 0
BBX 12 13 0 -2
BITMAP
0000
0400
0400
0400
0400
0400
0400
2480
1500
0E00
0400
0000
0000
ENDCHAR
STARTCHAR arrowboth
ENCODING 8596
SWIDTH 960 0
DWIDTH 12 0
BBX 12 13 0 -2
BITMAP
0000
0000
0000
0900
1080
2040
7FE0
2040
1080
0900
0000
0000
0000
ENDCHAR
STARTCHAR arrowupdn
ENCODING 8597
SWIDTH 960 0
DWIDTH 12 0
BBX 12 13 0 -2
BITMAP
0000
0400
0E00
1500
2480
0400
0400
2480
1500
0E00
0400
0000
0000
ENDCHAR
STARTCHAR uni2196
ENCODING 8598
SWIDTH 960 0
DWIDTH 12 0
BBX 12 13 0 -2
BITMAP
0000
0000
7C00
6000
5000
4800
4400
0200
0100
0080
0040
0000
0000
ENDCHAR
STARTCHAR uni2197
ENCODING 8599
SWIDTH 960 0
DWIDTH 12 0
BBX 12 13 0 -2
BITMAP
0000
0000
07C0
00C0
0140
0240
0440
0800
1000
2000
4000
0000
0000
ENDCHAR
STARTCHAR uni2198
ENCODING 8600
SWIDTH 960 0
DWIDTH 12 0
BBX 12 13 0 -2
BITMAP
0000
0000
4000
2000
1000
0800
0440
0240
0140
00C0
07C0
0000
0000
ENDCHAR
STARTCHAR uni2199
ENCODING 8601
SWIDTH 960 0
DWIDTH 12 0
BBX 12 13 0 -2
BITMAP
0000
0000
0040
0080
0100
0200
4400
4800
5000
6000
7C00
0000
0000
ENDCHAR
STARTCHAR uni21A4
ENCODING 8612
SWIDTH 960 0
DWIDTH 12 0
BBX 12 13 0 -2
BITMAP
0000
0000
0000
0800
1020
2020
7FE0
2020
1020
0800
0000
0000
0000
ENDCHAR
STARTCHAR uni21A5
ENCODING 8613
SWIDTH 960 0
DWIDTH 12 0
BBX 12 13 0 -2
BITMAP
0000
0400
0E00
1500
2480
0400
0400
0400
0400
0400
1F00
0000
0000
ENDCHAR
STARTCHAR uni21A6
ENCODING 8614
SWIDTH 960 0
DWIDTH 12 0
BBX 12 13 0 -2
BITMAP
0000
0000
0000
0100
4080
4040
7FE0
4040
4080
0100
0000
0000
0000
ENDCHAR
STARTCHAR uni21A7
ENCODING 8615
SWIDTH 960 0
DWIDTH 12 0
BBX 12 13 0 -2
BITMAP
0000
1F00
0400
0400
0400
0400
0400
2480
1500
0E00
0400
0000
0000
ENDCHAR
STARTCHAR arrowupdnbse
ENCODING 8616
SWIDTH 960 0
DWIDTH 12 0
BBX 12 13 0 -2
BITMAP
0000
0400
0E00
1500
2480
0400
2480
1500
0E00
0400
3F80
0000
0000
ENDCHAR
STARTCHAR uni21CB
ENCODING 8651
SWIDTH 960 0
DWIDTH 12 0
BBX 12 13 0 -2
BITMAP
0000
0000
0000
1000
2000
7FC0
0000
7FC0
0080
0100
0000
0000
0000
ENDCHAR
STARTCHAR uni21CC
ENCODING 8652
SWIDTH 960 0
DWIDTH 12 0
BBX 12 13 0 -2
BITMAP
0000
0000
0000
0100
0080
7FC0
0000
7FC0
2000
1000
0000
0000
0000
ENDCHAR
STARTCHAR arrowdblleft
ENCODING 8656
SWIDTH 960 0
DWIDTH 12 0
BBX 12 13 0 -2
BITMAP
0000
0000
0000
0800
1000
3FE0
4000
3FE0
1000
0800
0000
0000
0000
ENDCHAR
STARTCHAR arrowdblup
ENCODING 8657
SWIDTH 960 0
DWIDTH 12 0
BBX 12 13 0 -2
BITMAP
0000
0400
0A00
1B00
2A80
0A00
0A00
0A00
0A00
0A00
0A00
0000
0000
ENDCHAR
STARTCHAR arrowdblright
ENCODING 8658
SWIDTH 960 0
DWIDTH 12 0
BBX 12 13 0 -2
BITMAP
0000
0000
0000
0100
0080
7FC0
0020
7FC0
0080
0100
0000
0000
0000
ENDCHAR
STARTCHAR arrowdbldown
ENCODING 8659
SWIDTH 960 0
DWIDTH 12 0
BBX 12 13 0 -2
BITMAP
0000
0A00
0A00
0A00
0A00
0A00
0A00
2A80
1B00
0A00
0400
0000
0000
ENDCHAR
STARTCHAR arrowdblboth
ENCODING 8660
SWIDTH 960 0
DWIDTH 12 0
BBX 12 13 0 -2
BITMAP
0000
0000
0000
0900
1080
3FC0
4020
3FC0
1080
0900
0000
0000
0000
ENDCHAR
STARTCHAR uni21D5
ENCODING 8661
SWIDTH 960 0
DWIDTH 12 0
BBX 12 13 0 -2
BITMAP
0000
0400
0A00
1B00
2A80
0A00
0A00
2A80
1B00
0A00
0400
0000
0000
ENDCHAR
STARTCHAR uni21D6
ENCODING 8662
SWIDTH 960 0
DWIDTH 12 0
BBX 12 13 0 -2
BITMAP
0000
0000
7E00
4800
4400
6200
5100
4880
0440
0200
0100
0000
0000
ENDCHAR
STARTCHAR uni21D7
ENCODING 8663
SWIDTH 960 0
DWIDTH 12 0
BBX 12 13 0 -2
BITMAP
0000
0000
0FC0
0240
0440
08C0
1140
2240
4400
0800
1000
0000
0000
ENDCHAR
STARTCHAR uni21D8
ENCODING 8664
SWIDTH 960 0
DWIDTH 12 0
BBX 12 13 0 -2
BITMAP
0000
0000
1000
0800
4400
2240
1140
08C0
0440
0240
0FC0
0000
0000
ENDCHAR
STARTCHAR uni21D9
ENCODING 8665
SWIDTH 960 0
DWIDTH 12 0
BBX 12 13 0 -2
BITMAP
0000
0000
0100
0200
0440
4880
5100
6200
4400
4800
7E00
0000
0000
ENDCHAR
STARTCHAR universal
ENCODING 8704
SWIDTH 960 0
DWIDTH 12 0
BBX 12 13 0 -2
BITMAP
0000
0000
4040
4040
3F80
2080
1100
1100
0A00
0A00
0400
0000
0000
ENDCHAR
STARTCHAR uni2201
ENCODING 8705
SWIDTH 960 0
DWIDTH 12 0
BBX 12 13 0 -2
BITMAP
0000
0E00
1B00
1900
1800
1800
1800
1800
1800
1900
1B00
0E00
0000
ENDCHAR
STARTCHAR partialdiff
ENCODING 8706
SWIDTH 960 0
DWIDTH 12 0
BBX 12 13 0 -2
BITMAP
0000
0700
0980
0080
0E80
1980
3180
3100
3300
1600
0C00
0000
0000
ENDCHAR
STARTCHAR existential
ENCODING 8707
SWIDTH 960 0
DWIDTH 12 0
BBX 12 13 0 -2
BITMAP
0000
0000
3F80
0080
0080
0080
3F80
0080
0080
0080
3F80
0000
0000
ENDCHAR
STARTCHAR uni2204
ENCODING 8708
SWIDTH 960 0
DWIDTH 12 0
BBX 12 13 0 -2
BITMAP
0000
0200
3F80
0280
0480
0480
3F80
0880
0880
1080
3F80
1000
0000
ENDCHAR
STARTCHAR emptyset
ENCODING 8709
SWIDTH 960 0
DWIDTH 12 0
BBX 12 13 0 -2
BITMAP
0000
0000
0E40
1180
2180
4240
4440
4840
3080
3100
4E00
0000
0000
ENDCHAR
STARTCHAR Delta
ENCODING 8710
SWIDTH 960 0
DWIDTH 12 0
BBX 12 13 0 -2
BITMAP
0000
0000
0400
0400
0A00
0A00
1100
1100
2080
7FC0
7FC0
0000
0000
ENDCHAR
STARTCHAR gradient
ENCODING 8711
SWIDTH 960 0
DWIDTH 12 0
BBX 12 13 0 -2
BITMAP
0000
0000
7FC0
7FC0
2080
1100
1100
0A00
0A00
0400
0400
0000
0000
ENDCHAR
STARTCHAR element
ENCODING 8712
SWIDTH 960 0
DWIDTH 12 0
BBX 12 13 0 -2
BITMAP
0000
0000
0000
0FC0
1000
2000
3FC0
2000
1000
0FC0
0000
0000
0000
ENDCHAR
STARTCHAR notelement
ENCODING 8713
SWIDTH 960 0
DWIDTH 12 0
BBX 12 13 0 -2
BITMAP
0000
0040
0080
0FC0
1100
2200
3FC0
2400
1800
0FC0
1000
0000
0000
ENDCHAR
STARTCHAR suchthat
ENCODING 8715
SWIDTH 960 0
DWIDTH 12 0
BBX 12 13 0 -2
BITMAP
0000
0000
0000
3F00
0080
0040
3FC0
0040
0080
3F00
0000
0000
0000
ENDCHAR
STARTCHAR uni220C
ENCODING 8716
SWIDTH 960 0
DWIDTH 12 0
BBX 12 13 0 -2
BITMAP
0000
2000
1000
3F00
0880
0440
3FC0
0240
0180
3F00
0080
0000
0000
ENDCHAR
STARTCHAR product
ENCODING 8719
SWIDTH 960 0
DWIDTH 12 0
BBX 12 13 0 -2
BITMAP
0000
7FE0
30C0
30C0
30C0
30C0
30C0
30C0
30C0
30C0
30C0
79E0
0000
ENDCHAR
STARTCHAR uni2210
ENCODING 8720
SWIDTH 960 0
DWIDTH 12 0
BBX 12 13 0 -2
BITMAP
0000
79E0
30C0
30C0
30C0
30C0
30C0
30C0
30C0
30C0
30C0
7FE0
0000
ENDCHAR
STARTCHAR summation
ENCODING 8721
SWIDTH 960 0
DWIDTH 12 0
BBX 12 13 0 -2
BITMAP
0000
3FC0
1840
0C00
0600
0300
0300
0600
0C00
1800
3040
3FC0
0000
ENDCHAR
STARTCHAR minus
ENCODING 8722
SWIDTH 960 0
DWIDTH 12 0
BBX 12 13 0 -2
BITMAP
0000
0000
0000
0000
0000
0000
7FC0
0000
0000
0000
0000
0000
0000
ENDCHAR
STARTCHAR uni2213
ENCODING 8723
SWIDTH 960 0
DWIDTH 12 0
BBX 12 13 0 -2
BITMAP
0000
0000
7FC0
0000
0400
0400
0400
7FC0
0400
0400
0400
0000
0000
ENDCHAR
STARTCHAR fraction
ENCODING 8725
SWIDTH 960 0
DWIDTH 12 0
BBX 12 13 0 -2
BITMAP
0000
0060
00E0
01C0
0380
0700
0E00
1C00
3800
7000
6000
0000
0000
ENDCHAR
STARTCHAR uni2218
ENCODING 8728
SWIDTH 960 0
DWIDTH 12 0
BBX 12 13 0 -2
BITMAP
0000
0000
0000
0000
0600
0900
0900
0600
0000
0000
0000
0000
0000
ENDCHAR
STARTCHAR periodcentered
ENCODING 8729
SWIDTH 960 0
DWIDTH 12 0
BBX 12 13 0 -2
BITMAP
0000
0000
0000
0000
0600
0F00
0F00
0600
0000
0000
0000
0000
0000
ENDCHAR
STARTCHAR radical
ENCODING 8730
SWIDTH 960 0
DWIDTH 12 0
BBX 12 13 0 -2
BITMAP
0000
0000
03E0
0200
0200
0400
0400
0400
6400
7800
1800
0800
0000
ENDCHAR
STARTCHAR proportional
ENCODING 8733
SWIDTH 960 0
DWIDTH 12 0
BBX 12 13 0 -2
BITMAP
0000
0000
0000
18C0
3DC0
2700
2700
3DC0
18C0
0000
0000
0000
0000
ENDCHAR
STARTCHAR infinity
ENCODING 8734
SWIDTH 960 0
DWIDTH 12 0
BBX 12 13 0 -2
BITMAP
0000
0000
0000
3180
7BC0
4E40
4E40
7BC0
3180
0000
0000
0000
0000
ENDCHAR
STARTCHAR orthogonal
ENCODING 8735
SWIDTH 960 0
DWIDTH 12 0
BBX 12 13 0 -2
BITMAP
0000
0000
2000
2000
2000
2000
2000
2000
2000
2000
3FC0
0000
0000
ENDCHAR
STARTCHAR angle
ENCODING 8736
SWIDTH 960 0
DWIDTH 12 0
BBX 12 13 0 -2
BITMAP
0000
0000
0000
0040
0080
0100
0200
0400
0800
1000
3FC0
0000
0000
ENDCHAR
STARTCHAR uni2221
ENCODING 8737
SWIDTH 960 0
DWIDTH 12 0
BBX 12 13 0 -2
BITMAP
0000
0000
0000
0040
0080
1900
0600
0600
0900
1100
3FC0
0100
0000
ENDCHAR
STARTCHAR uni2224
ENCODING 8740
SWIDTH 960 0
DWIDTH 12 0
BBX 12 13 0 -2
BITMAP
0000
0000
0400
0400
0500
0600
0C00
1400
0400
0400
0400
0000
0000
ENDCHAR
STARTCHAR uni2225
ENCODING 8741
SWIDTH 960 0
DWIDTH 12 0
BBX 12 13 0 -2
BITMAP
0000
0000
0900
0900
0900
0900
0900
0900
0900
0900
0900
0000
0000
ENDCHAR
STARTCHAR uni2226
ENCODING 8742
SWIDTH 960 0
DWIDTH 12 0
BBX 12 13 0 -2
BITMAP
0000
0000
0900
0900
0900
09C0
0F00
3900
0900
0900
0900
0000
0000
ENDCHAR
STARTCHAR logicaland
ENCODING 8743
SWIDTH 960 0
DWIDTH 12 0
BBX 12 13 0 -2
BITMAP
0000
0000
0000
0400
0A00
0A00
1100
1100
2080
2080
4040
0000
0000
ENDCHAR
STARTCHAR logicalor
ENCODING 8744
SWIDTH 960 0
DWIDTH 12 0
BBX 12 13 0 -2
BITMAP
0000
0000
0000
4040
2080
2080
1100
1100
0A00
0A00
0400
0000
0000
ENDCHAR
STARTCHAR intersection
ENCODING 8745
SWIDTH 960 0
DWIDTH 12 0
BBX 12 13 0 -2
BITMAP
0000
0000
0000
0F00
1080
2040
2040
2040
2040
2040
2040
0000
0000
ENDCHAR
STARTCHAR union
ENCODING 8746
SWIDTH 960 0
DWIDTH 12 0
BBX 12 13 0 -2
BITMAP
0000
0000
0000
2040
2040
2040
2040
2040
2040
1080
0F00
0000
0000
ENDCHAR
STARTCHAR integral
ENCODING 8747
SWIDTH 960 0
DWIDTH 12 0
BBX 12 13 0 -2
BITMAP
0180
02C0
0680
0600
0600
0600
0600
0600
0600
0600
1600
3400
1800
ENDCHAR
STARTCHAR uni222C
ENCODING 8748
SWIDTH 960 0
DWIDTH 12 0
BBX 12 13 0 -2
BITMAP
0C60
14A0
3180
3180
3180
3180
3180
3180
3180
3180
3180
A500
C600
ENDCHAR
STARTCHAR uni222E
ENCODING 8750
SWIDTH 960 0
DWIDTH 12 0
BBX 12 13 0 -2
BITMAP
0180
02C0
0680
0600
1F80
36C0
36C0
36C0
0F00
0600
1600
3400
1800
ENDCHAR
STARTCHAR therefore
ENCODING 8756
SWIDTH 960 0
DWIDTH 12 0
BBX 12 13 0 -2
BITMAP
0000
0000
0000
0600
0600
0000
0000
0000
0000
30C0
30C0
0000
0000
ENDCHAR
STARTCHAR uni2235
ENCODING 8757
SWIDTH 960 0
DWIDTH 12 0
BBX 12 13 0 -2
BITMAP
0000
0000
0000
30C0
30C0
0000
0000
0000
0000
0600
0600
0000
0000
ENDCHAR
STARTCHAR similar
ENCODING 8764
SWIDTH 960 0
DWIDTH 12 0
BBX 12 13 0 -2
BITMAP
0000
0000
0000
0000
0000
0000
1CC0
3380
0000
0000
0000
0000
0000
ENDCHAR
STARTCHAR uni223D
ENCODING 8765
SWIDTH 960 0
DWIDTH 12 0
BBX 12 13 0 -2
BITMAP
0000
0000
0000
3180
4240
8420
8420
4840
3180
0000
0000
0000
0000
ENDCHAR
STARTCHAR uni2243
ENCODING 8771
SWIDTH 960 0
DWIDTH 12 0
BBX 12 13 0 -2
BITMAP
0000
0000
0000
3800
4440
0380
0000
0000
7FC0
0000
0000
0000
0000
ENDCHAR
STARTCHAR congruent
ENCODING 8773
SWIDTH 960 0
DWIDTH 12 0
BBX 12 13 0 -2
BITMAP
0000
0000
3800
4440
0380
0000
0000
7FC0
0000
0000
7FC0
0000
0000
ENDCHAR
STARTCHAR approxequal
ENCODING 8776
SWIDTH 960 0
DWIDTH 12 0
BBX 12 13 0 -2
BITMAP
0000
0000
0000
3840
4440
4380
0000
3840
4440
4380
0000
0000
0000
ENDCHAR
STARTCHAR uni2249
ENCODING 8777
SWIDTH 960 0
DWIDTH 12 0
BBX 12 13 0 -2
BITMAP
0000
0100
0100
3A40
4640
4380
0400
3C40
4C40
4B80
1000
1000
0000
ENDCHAR
STARTCHAR uni2252
ENCODING 8786
SWIDTH 960 0
DWIDTH 12 0
BBX 12 13 0 -2
BITMAP
0000
0000
0000
1800
1800
3FC0
0000
0000
3FC0
0180
0180
0000
0000
ENDCHAR
STARTCHAR uni2259
ENCODING 8793
SWIDTH 960 0
DWIDTH 12 0
BBX 12 13 0 -2
BITMAP
0000
0000
0000
0600
0900
0900
0000
3FC0
0000
3FC0
0000
0000
0000
ENDCHAR
STARTCHAR uni225F
ENCODING 8799
SWIDTH 960 0
DWIDTH 12 0
BBX 12 13 0 -2
BITMAP
0000
0400
0A00
0200
0400
0000
0400
0000
3FC0
0000
3FC0
0000
0000
ENDCHAR
STARTCHAR notequal
ENCODING 8800
SWIDTH 960 0
DWIDTH 12 0
BBX 12 13 0 -2
BITMAP
0000
0000
0200
0200
7FC0
0400
0400
0400
7FC0
0800
0800
0000
0000
ENDCHAR
STARTCHAR equivalence
ENCODING 8801
SWIDTH 960 0
DWIDTH 12 0
BBX 12 13 0 -2
BITMAP
0000
0000
0000
3FC0
0000
0000
3FC0
0000
0000
3FC0
0000
0000
0000
ENDCHAR
STARTCHAR uni2262
ENCODING 8802
SWIDTH 960 0
DWIDTH 12 0
BBX 12 13 0 -2
BITMAP
0000
0100
0100
3FC0
0200
0200
3FC0
0400
0400
3FC0
0800
0800
0000
ENDCHAR
STARTCHAR lessequal
ENCODING 8804
SWIDTH 960 0
DWIDTH 12 0
BBX 12 13 0 -2
BITMAP
0000
0000
00C0
0300
0C00
3000
0C00
0300
00C0
0000
3FC0
0000
0000
ENDCHAR
STARTCHAR greaterequal
ENCODING 8805
SWIDTH 960 0
DWIDTH 12 0
BBX 12 13 0 -2
BITMAP
0000
0000
3000
0C00
0300
00C0
0300
0C00
3000
0000
3FC0
0000
0000
ENDCHAR
STARTCHAR uni2266
ENCODING 8806
SWIDTH 960 0
DWIDTH 12 0
BBX 12 13 0 -2
BITMAP
00C0
0300
0C00
3000
0C00
0300
00C0
0000
3FC0
0000
3FC0
0000
0000
ENDCHAR
STARTCHAR uni2267
ENCODING 8807
SWIDTH 960 0
DWIDTH 12 0
BBX 12 13 0 -2
BITMAP
3000
0C00
0300
00C0
0300
0C00
3000
0000
3FC0
0000
3FC0
0000
0000
ENDCHAR
STARTCHAR uni226A
ENCODING 8810
SWIDTH 960 0
DWIDTH 12 0
BBX 12 13 0 -2
BITMAP
0000
0000
0240
0480
0900
1200
2400
1200
0900
0480
0240
0000
0000
ENDCHAR
STARTCHAR uni226B
ENCODING 8811
SWIDTH 960 0
DWIDTH 12 0
BBX 12 13 0 -2
BITMAP
0000
0000
2400
1200
0900
0480
0240
0480
0900
1200
2400
0000
0000
ENDCHAR
STARTCHAR propersubset
ENCODING 8834
SWIDTH 960 0
DWIDTH 12 0
BBX 12 13 0 -2
BITMAP
0000
0000
0000
0FC0
1000
2000
2000
2000
2000
1000
0FC0
0000
0000
ENDCHAR
STARTCHAR propersuperset
ENCODING 8835
SWIDTH 960 0
DWIDTH 12 0
BBX 12 13 0 -2
BITMAP
0000
0000
0000
3F00
0080
0040
0040
0040
0040
0080
3F00
0000
0000
ENDCHAR
STARTCHAR notsubset
ENCODING 8836
SWIDTH 960 0
DWIDTH 12 0
BBX 12 13 0 -2
BITMAP
0000
0000
0200
0FC0
1200
2200
2200
2200
2200
1200
0FC0
0200
0000
ENDCHAR
STARTCHAR uni2285
ENCODING 8837
SWIDTH 960 0
DWIDTH 12 0
BBX 12 13 0 -2
BITMAP
0000
0000
0400
3F00
0480
0440
0440
0440
0440
0480
3F00
0400
0000
ENDCHAR
STARTCHAR reflexsubset
ENCODING 8838
SWIDTH 960 0
DWIDTH 12 0
BBX 12 13 0 -2
BITMAP
0000
0000
0000
0FC0
1000
2000
2000
1000
0FC0
0000
3FC0
0000
0000
ENDCHAR
STARTCHAR reflexsuperset
ENCODING 8839
SWIDTH 960 0
DWIDTH 12 0
BBX 12 13 0 -2
BITMAP
0000
0000
0000
3F00
0080
0040
0040
0080
3F00
0000
3FC0
0000
0000
ENDCHAR
STARTCHAR uni2288
ENCODING 8840
SWIDTH 960 0
DWIDTH 12 0
BBX 12 13 0 -2
BITMAP
0000
0000
0200
0FC0
1200
2200
2200
1200
0FC0
0200
3FC0
0200
0000
ENDCHAR
STARTCHAR uni2289
ENCODING 8841
SWIDTH 960 0
DWIDTH 12 0
BBX 12 13 0 -2
BITMAP
0000
0000
0400
3F00
0480
0440
0440
0480
3F00
0400
3FC0
0400
0000
ENDCHAR
STARTCHAR uni228A
ENCODING 8842
SWIDTH 960 0
DWIDTH 12 0
BBX 12 13 0 -2
BITMAP
0000
0000
0000
0FC0
1000
2000
2000
1100
0FC0
0200
3FC0
0400
0000
ENDCHAR
STARTCHAR uni228B
ENCODING 8843
SWIDTH 960 0
DWIDTH 12 0
BBX 12 13 0 -2
BITMAP
0000
0000
0000
3F00
0080
0040
0040
0480
3F00
0800
3FC0
1000
0000
ENDCHAR
STARTCHAR circleplus
ENCODING 8853
SWIDTH 960 0
DWIDTH 12 0
BBX 12 13 0 -2
BITMAP
0000
0000
1F00
2480
4440
4440
7FC0
4440
4440
2480
1F00
0000
0000
ENDCHAR
STARTCHAR circlemultiply
ENCODING 8855
SWIDTH 960 0
DWIDTH 12 0
BBX 12 13 0 -2
BITMAP
0000
0000
1F00
2080
5140
4A40
4440
4A40
5140
2080
1F00
0000
0000
ENDCHAR
STARTCHAR uni22A4
ENCODING 8868
SWIDTH 960 0
DWIDTH 12 0
BBX 12 13 0 -2
BITMAP
0000
0000
7FC0
0400
0400
0400
0400
0400
0400
0400
0400
0000
0000
ENDCHAR
STARTCHAR perpendicular
ENCODING 8869
SWIDTH 960 0
DWIDTH 12 0
BBX 12 13 0 -2
BITMAP
0000
0000
0400
0400
0400
0400
0400
0400
0400
0400
7FC0
0000
0000
ENDCHAR
STARTCHAR uni22A6
ENCODING 8870
SWIDTH 960 0
DWIDTH 12 0
BBX 12 13 0 -2
BITMAP
0000
0000
1000
1000
1000
1000
1F80
1000
1000
1000
1000
0000
0000
ENDCHAR
STARTCHAR uni22A7
ENCODING 8871
SWIDTH 960 0
DWIDTH 12 0
BBX 12 13 0 -2
BITMAP
0000
0000
1000
1000
1000
1F80
1000
1F80
1000
1000
1000
0000
0000
ENDCHAR
STARTCHAR uni22C0
ENCODING 8896
SWIDTH 960 0
DWIDTH 12 0
BBX 12 13 0 -2
BITMAP
0000
0600
0600
0900
0900
1080
1080
1080
2040
2040
4020
4020
0000
ENDCHAR
STARTCHAR uni22C1
ENCODING 8897
SWIDTH 960 0
DWIDTH 12 0
BBX 12 13 0 -2
BITMAP
0000
4020
4020
2040
2040
1080
1080
1080
0900
0900
0600
0600
0000
ENDCHAR
STARTCHAR uni22C2
ENCODING 8898
SWIDTH 960 0
DWIDTH 12 0
BBX 12 13 0 -2
BITMAP
0000
0F00
1080
2040
4020
4020
4020
4020
4020
4020
4020
4020
0000
ENDCHAR
STARTCHAR uni22C3
ENCODING 8899
SWIDTH 960 0
DWIDTH 12 0
BBX 12 13 0 -2
BITMAP
0000
4020
4020
4020
4020
4020
4020
4020
4020
2040
1080
0F00
0000
ENDCHAR
STARTCHAR dotmath
ENCODING 8901
SWIDTH 960 0
DWIDTH 12 0
BBX 12 13 0 -2
BITMAP
0000
0000
0000
0000
0000
0600
0600
0000
0000
0000
0000
0000
0000
ENDCHAR
STARTCHAR uni2300
ENCODING 8960
SWIDTH 960 0
DWIDTH 12 0
BBX 12 13 0 -2
BITMAP
0000
0000
0E40
1180
2180
4240
4440
4840
3080
3100
4E00
0000
0000
ENDCHAR
STARTCHAR house
ENCODING 8962
SWIDTH 960 0
DWIDTH 12 0
BBX 12 13 0 -2
BITMAP
0000
0600
0900
1080
2040
4020
4020
4020
4020
4020
7FE0
0000
0000
ENDCHAR
STARTCHAR uni2308
ENCODING 8968
SWIDTH 960 0
DWIDTH 12 0
BBX 12 13 0 -2
BITMAP
0000
0780
0600
0600
0600
0600
0600
0600
0600
0600
0600
0600
0000
ENDCHAR
STARTCHAR uni2309
ENCODING 8969
SWIDTH 960 0
DWIDTH 12 0
BBX 12 13 0 -2
BITMAP
0000
3C00
0C00
0C00
0C00
0C00
0C00
0C00
0C00
0C00
0C00
0C00
0000
ENDCHAR
STARTCHAR uni230A
ENCODING 8970
SWIDTH 960 0
DWIDTH 12 0
BBX 12 13 0 -2
BITMAP
0000
0600
0600
0600
0600
0600
0600
0600
0600
0600
0600
0780
0000
ENDCHAR
STARTCHAR uni230B
ENCODING 8971
SWIDTH 960 0
DWIDTH 12 0
BBX 12 13 0 -2
BITMAP
0000
0C00
0C00
0C00
0C00
0C00
0C00
0C00
0C00
0C00
0C00
3C00
0000
ENDCHAR
STARTCHAR revlogicalnot
ENCODING 8976
SWIDTH 960 0
DWIDTH 12 0
BBX 12 13 0 -2
BITMAP
0000
0000
0000
0000
0000
0000
3FC0
2000
2000
2000
2000
0000
0000
ENDCHAR
STARTCHAR uni2312
ENCODING 8978
SWIDTH 960 0
DWIDTH 12 0
BBX 12 13 0 -2
BITMAP
0000
3F80
C060
0000
0000
0000
0000
0000
0000
0000
0000
0000
0000
ENDCHAR
STARTCHAR integraltp
ENCODING 8992
SWIDTH 960 0
DWIDTH 12 0
BBX 12 13 0 -2
BITMAP
0000
0300
0580
0D00
0C00
0C00
0C00
0C00
0C00
0C00
0C00
0C00
0C00
ENDCHAR
STARTCHAR integralbt
ENCODING 8993
SWIDTH 960 0
DWIDTH 12 0
BBX 12 13 0 -2
BITMAP
0600
0600
0600
0600
0600
0600
0600
0600
0600
1600
3400
1800
0000
ENDCHAR
STARTCHAR angleleft
ENCODING 9001
SWIDTH 960 0
DWIDTH 12 0
BBX 12 13 0 -2
BITMAP
0000
0100
0100
0200
0200
0400
0400
0400
0200
0200
0100
0100
0000
ENDCHAR
STARTCHAR angleright
ENCODING 9002
SWIDTH 960 0
DWIDTH 12 0
BBX 12 13 0 -2
BITMAP
0000
1000
1000
0800
0800
0400
0400
0400
0800
0800
1000
1000
0000
ENDCHAR
STARTCHAR uni23B7
ENCODING 9143
SWIDTH 960 0
DWIDTH 12 0
BBX 12 13 0 -2
BITMAP
0200
0200
0200
0200
0200
1200
1200
0A00
0A00
0600
0600
0200
0000
ENDCHAR
STARTCHAR uni23B8
ENCODING 9144
SWIDTH 960 0
DWIDTH 12 0
BBX 12 13 0 -2
BITMAP
8000
8000
8000
8000
8000
8000
8000
8000
8000
8000
8000
8000
8000
ENDCHAR
STARTCHAR uni23B9
ENCODING 9145
SWIDTH 960 0
DWIDTH 12 0
BBX 12 13 0 -2
BITMAP
0010
0010
0010
0010
0010
0010
0010
0010
0010
0010
0010
0010
0010
ENDCHAR
STARTCHAR uni23BA
ENCODING 9146
SWIDTH 960 0
DWIDTH 12 0
BBX 12 13 0 -2
BITMAP
FFF0
0000
0000
0000
0000
0000
0000
0000
0000
0000
0000
0000
0000
ENDCHAR
STARTCHAR uni23BB
ENCODING 9147
SWIDTH 960 0
DWIDTH 12 0
BBX 12 13 0 -2
BITMAP
0000
0000
0000
FFF0
0000
0000
0000
0000
0000
0000
0000
0000
0000
ENDCHAR
STARTCHAR uni23BC
ENCODING 9148
SWIDTH 960 0
DWIDTH 12 0
BBX 12 13 0 -2
BITMAP
0000
0000
0000
0000
0000
0000
0000
0000
0000
FFF0
0000
0000
0000
ENDCHAR
STARTCHAR uni23BD
ENCODING 9149
SWIDTH 960 0
DWIDTH 12 0
BBX 12 13 0 -2
BITMAP
0000
0000
0000
0000
0000
0000
0000
0000
0000
0000
0000
0000
FFF0
ENDCHAR
STARTCHAR uni2409
ENCODING 9225
SWIDTH 960 0
DWIDTH 12 0
BBX 12 13 0 -2
BITMAP
0000
4800
4800
7800
4BE0
4880
4880
4880
0080
0080
0080
0000
0000
ENDCHAR
STARTCHAR uni240A
ENCODING 9226
SWIDTH 960 0
DWIDTH 12 0
BBX 12 13 0 -2
BITMAP
0000
4000
4000
4000
43C0
4200
4200
7B80
0200
0200
0200
0000
0000
ENDCHAR
STARTCHAR uni240B
ENCODING 9227
SWIDTH 960 0
DWIDTH 12 0
BBX 12 13 0 -2
BITMAP
0000
8800
8800
8800
53E0
5080
2080
2080
0080
0080
0080
0000
0000
ENDCHAR
STARTCHAR uni240C
ENCODING 9228
SWIDTH 960 0
DWIDTH 12 0
BBX 12 13 0 -2
BITMAP
0000
7800
4000
4000
73C0
4200
4200
4380
0200
0200
0200
0000
0000
ENDCHAR
STARTCHAR uni240D
ENCODING 9229
SWIDTH 960 0
DWIDTH 12 0
BBX 12 13 0 -2
BITMAP
0000
3000
4800
4000
4380
4240
4A40
3380
0240
0240
0240
0000
0000
ENDCHAR
STARTCHAR uni2424
ENCODING 9252
SWIDTH 960 0
DWIDTH 12 0
BBX 12 13 0 -2
BITMAP
0000
4800
4800
6800
5A00
4A00
4A00
4A00
0200
0200
03C0
0000
0000
ENDCHAR
STARTCHAR SF100000
ENCODING 9472
SWIDTH 960 0
DWIDTH 12 0
BBX 12 13 0 -2
BITMAP
0000
0000
0000
0000
0000
0000
FFF0
0000
0000
0000
0000
0000
0000
ENDCHAR
STARTCHAR uni2501
ENCODING 9473
SWIDTH 960 0
DWIDTH 12 0
BBX 12 13 0 -2
BITMAP
0000
0000
0000
0000
0000
FFF0
FFF0
0000
0000
0000
0000
0000
0000
ENDCHAR
STARTCHAR SF110000
ENCODING 9474
SWIDTH 960 0
DWIDTH 12 0
BBX 12 13 0 -2
BITMAP
0200
0200
0200
0200
0200
0200
0200
0200
0200
0200
0200
0200
0200
ENDCHAR
STARTCHAR uni2503
ENCODING 9475
SWIDTH 960 0
DWIDTH 12 0
BBX 12 13 0 -2
BITMAP
0600
0600
0600
0600
0600
0600
0600
0600
0600
0600
0600
0600
0600
ENDCHAR
STARTCHAR SF010000
ENCODING 9484
SWIDTH 960 0
DWIDTH 12 0
BBX 12 13 0 -2
BITMAP
0000
0000
0000
0000
0000
0000
03F0
0200
0200
0200
0200
0200
0200
ENDCHAR
STARTCHAR uni250F
ENCODING 9487
SWIDTH 960 0
DWIDTH 12 0
BBX 12 13 0 -2
BITMAP
0000
0000
0000
0000
0000
07F0
07F0
0600
0600
0600
0600
0600
0600
ENDCHAR
STARTCHAR SF030000
ENCODING 9488
SWIDTH 960 0
DWIDTH 12 0
BBX 12 13 0 -2
BITMAP
0000
0000
0000
0000
0000
0000
FE00
0200
0200
0200
0200
0200
0200
ENDCHAR
STARTCHAR uni2513
ENCODING 9491
SWIDTH 960 0
DWIDTH 12 0
BBX 12 13 0 -2
BITMAP
0000
0000
0000
0000
0000
FE00
FE00
0600
0600
0600
0600
0600
0600
ENDCHAR
STARTCHAR SF020000
ENCODING 9492
SWIDTH 960 0
DWIDTH 12 0
BBX 12 13 0 -2
BITMAP
0200
0200
0200
0200
0200
0200
03F0
0000
0000
0000
0000
0000
0000
ENDCHAR
STARTCHAR uni2517
ENCODING 9495
SWIDTH 960 0
DWIDTH 12 0
BBX 12 13 0 -2
BITMAP
0600
0600
0600
0600
0600
07F0
07F0
0000
0000
0000
0000
0000
0000
ENDCHAR
STARTCHAR SF040000
ENCODING 9496
SWIDTH 960 0
DWIDTH 12 0
BBX 12 13 0 -2
BITMAP
0200
0200
0200
0200
0200
0200
FE00
0000
0000
0000
0000
0000
0000
ENDCHAR
STARTCHAR uni251B
ENCODING 9499
SWIDTH 960 0
DWIDTH 12 0
BBX 12 13 0 -2
BITMAP
0600
0600
0600
0600
0600
FE00
FE00
0000
0000
0000
0000
0000
0000
ENDCHAR
STARTCHAR SF080000
ENCODING 9500
SWIDTH 960 0
DWIDTH 12 0
BBX 12 13 0 -2
BITMAP
0200
0200
0200
0200
0200
0200
03F0
0200
0200
0200
0200
0200
0200
ENDCHAR
STARTCHAR uni251D
ENCODING 9501
SWIDTH 960 0
DWIDTH 12 0
BBX 12 13 0 -2
BITMAP
0200
0200
0200
0200
0200
03F0
03F0
0200
0200
0200
0200
0200
0200
ENDCHAR
STARTCHAR uni2520
ENCODING 9504
SWIDTH 960 0
DWIDTH 12 0
BBX 12 13 0 -2
BITMAP
0600
0600
0600
0600
0600
0600
07F0
0600
0600
0600
0600
0600
0600
ENDCHAR
STARTCHAR uni2523
ENCODING 9507
SWIDTH 960 0
DWIDTH 12 0
BBX 12 13 0 -2
BITMAP
0600
0600
0600
0600
0600
07F0
07F0
0600
0600
0600
0600
0600
0600
ENDCHAR
STARTCHAR SF090000
ENCODING 9508
SWIDTH 960 0
DWIDTH 12 0
BBX 12 13 0 -2
BITMAP
0200
0200
0200
0200
0200
0200
FE00
0200
0200
0200
0200
0200
0200
ENDCHAR
STARTCHAR uni2525
ENCODING 9509
SWIDTH 960 0
DWIDTH 12 0
BBX 12 13 0 -2
BITMAP
0200
0200
0200
0200
0200
FE00
FE00
0200
0200
0200
0200
0200
0200
ENDCHAR
STARTCHAR uni2528
ENCODING 9512
SWIDTH 960 0
DWIDTH 12 0
BBX 12 13 0 -2
BITMAP
0600
0600
0600
0600
0600
0600
FE00
0600
0600
0600
0600
0600
0600
ENDCHAR
STARTCHAR uni252B
ENCODING 9515
SWIDTH 960 0
DWIDTH 12 0
BBX 12 13 0 -2
BITMAP
0600
0600
0600
0600
0600
FE00
FE00
0600
0600
0600
0600
0600
0600
ENDCHAR
STARTCHAR SF060000
ENCODING 9516
SWIDTH 960 0
DWIDTH 12 0
BBX 12 13 0 -2
BITMAP
0000
0000
0000
0000
0000
0000
FFF0
0200
0200
0200
0200
0200
0200
ENDCHAR
STARTCHAR uni252F
ENCODING 9519
SWIDTH 960 0
DWIDTH 12 0
BBX 12 13 0 -2
BITMAP
0000
0000
0000
0000
0000
FFF0
FFF0
0200
0200
0200
0200
0200
0200
ENDCHAR
STARTCHAR uni2530
ENCODING 9520
SWIDTH 960 0
DWIDTH 12 0
BBX 12 13 0 -2
BITMAP
0000
0000
0000
0000
0000
0000
FFF0
0600
0600
0600
0600
0600
0600
ENDCHAR
STARTCHAR uni2533
ENCODING 9523
SWIDTH 960 0
DWIDTH 12 0
BBX 12 13 0 -2
BITMAP
0000
0000
0000
0000
0000
FFF0
FFF0
0600
0600
0600
0600
0600
0600
ENDCHAR
STARTCHAR SF070000
ENCODING 9524
SWIDTH 960 0
DWIDTH 12 0
BBX 12 13 0 -2
BITMAP
0200
0200
0200
0200
0200
0200
FFF0
0000
0000
0000
0000
0000
0000
ENDCHAR
STARTCHAR uni2537
ENCODING 9527
SWIDTH 960 0
DWIDTH 12 0
BBX 12 13 0 -2
BITMAP
0200
0200
0200
0200
0200
FFF0
FFF0
0000
0000
0000
0000
0000
0000
ENDCHAR
STARTCHAR uni2538
ENCODING 9528
SWIDTH 960 0
DWIDTH 12 0
BBX 12 13 0 -2
BITMAP
0600
0600
0600
0600
0600
0600
FFF0
0000
0000
0000
0000
0000
0000
ENDCHAR
STARTCHAR uni253B
ENCODING 9531
SWIDTH 960 0
DWIDTH 12 0
BBX 12 13 0 -2
BITMAP
0600
0600
0600
0600
0600
FFF0
FFF0
0000
0000
0000
0000
0000
0000
ENDCHAR
STARTCHAR SF050000
ENCODING 9532
SWIDTH 960 0
DWIDTH 12 0
BBX 12 13 0 -2
BITMAP
0200
0200
0200
0200
0200
0200
FFF0
0200
0200
0200
0200
0200
0200
ENDCHAR
STARTCHAR uni253F
ENCODING 9535
SWIDTH 960 0
DWIDTH 12 0
BBX 12 13 0 -2
BITMAP
0200
0200
0200
0200
0200
FFF0
FFF0
0200
0200
0200
0200
0200
0200
ENDCHAR
STARTCHAR uni2542
ENCODING 9538
SWIDTH 960 0
DWIDTH 12 0
BBX 12 13 0 -2
BITMAP
0600
0600
0600
0600
0600
0600
FFF0
0600
0600
0600
0600
0600
0600
ENDCHAR
STARTCHAR uni254B
ENCODING 9547
SWIDTH 960 0
DWIDTH 12 0
BBX 12 13 0 -2
BITMAP
0600
0600
0600
0600
0600
FFF0
FFF0
0600
0600
0600
0600
0600
0600
ENDCHAR
STARTCHAR uni254C
ENCODING 9548
SWIDTH 960 0
DWIDTH 12 0
BBX 12 13 0 -2
BITMAP
0000
0000
0000
0000
0000
0000
FBE0
0000
0000
0000
0000
0000
0000
ENDCHAR
STARTCHAR uni254D
ENCODING 9549
SWIDTH 960 0
DWIDTH 12 0
BBX 12 13 0 -2
BITMAP
0000
0000
0000
0000
0000
FBE0
FBE0
0000
0000
0000
0000
0000
0000
ENDCHAR
STARTCHAR uni254E
ENCODING 9550
SWIDTH 960 0
DWIDTH 12 0
BBX 12 13 0 -2
BITMAP
0200
0200
0200
0200
0200
0200
0000
0200
0200
0200
0200
0200
0000
ENDCHAR
STARTCHAR uni254F
ENCODING 9551
SWIDTH 960 0
DWIDTH 12 0
BBX 12 13 0 -2
BITMAP
0600
0600
0600
0600
0600
0600
0000
0600
0600
0600
0600
0600
0000
ENDCHAR
STARTCHAR SF430000
ENCODING 9552
SWIDTH 960 0
DWIDTH 12 0
BBX 12 13 0 -2
BITMAP
0000
0000
0000
0000
0000
FFF0
0000
FFF0
0000
0000
0000
0000
0000
ENDCHAR
STARTCHAR SF240000
ENCODING 9553
SWIDTH 960 0
DWIDTH 12 0
BBX 12 13 0 -2
BITMAP
0500
0500
0500
0500
0500
0500
0500
0500
0500
0500
0500
0500
0500
ENDCHAR
STARTCHAR SF510000
ENCODING 9554
SWIDTH 960 0
DWIDTH 12 0
BBX 12 13 0 -2
BITMAP
0000
0000
0000
0000
0000
03F0
0200
03F0
0200
0200
0200
0200
0200
ENDCHAR
STARTCHAR SF520000
ENCODING 9555
SWIDTH 960 0
DWIDTH 12 0
BBX 12 13 0 -2
BITMAP
0000
0000
0000
0000
0000
0000
07F0
0500
0500
0500
0500
0500
0500
ENDCHAR
STARTCHAR SF390000
ENCODING 9556
SWIDTH 960 0
DWIDTH 12 0
BBX 12 13 0 -2
BITMAP
0000
0000
0000
0000
0000
07F0
0400
05F0
0500
0500
0500
0500
0500
ENDCHAR
STARTCHAR SF220000
ENCODING 9557
SWIDTH 960 0
DWIDTH 12 0
BBX 12 13 0 -2
BITMAP
0000
0000
0000
0000
0000
FE00
0200
FE00
0200
0200
0200
0200
0200
ENDCHAR
STARTCHAR SF210000
ENCODING 9558
SWIDTH 960 0
DWIDTH 12 0
BBX 12 13 0 -2
BITMAP
0000
0000
0000
0000
0000
0000
FF00
0500
0500
0500
0500
0500
0500
ENDCHAR
STARTCHAR SF250000
ENCODING 9559
SWIDTH 960 0
DWIDTH 12 0
BBX 12 13 0 -2
BITMAP
0000
0000
0000
0000
0000
FF00
0100
FD00
0500
0500
0500
0500
0500
ENDCHAR
STARTCHAR SF500000
ENCODING 9560
SWIDTH 960 0
DWIDTH 12 0
BBX 12 13 0 -2
BITMAP
0200
0200
0200
0200
0200
03F0
0200
03F0
0000
0000
0000
0000
0000
ENDCHAR
STARTCHAR SF490000
ENCODING 9561
SWIDTH 960 0
DWIDTH 12 0
BBX 12 13 0 -2
BITMAP
0500
0500
0500
0500
0500
0500
07F0
0000
0000
0000
0000
0000
0000
ENDCHAR
STARTCHAR SF380000
ENCODING 9562
SWIDTH 960 0
DWIDTH 12 0
BBX 12 13 0 -2
BITMAP
0500
0500
0500
0500
0500
05F0
0400
07F0
0000
0000
0000
0000
0000
ENDCHAR
STARTCHAR SF280000
ENCODING 9563
SWIDTH 960 0
DWIDTH 12 0
BBX 12 13 0 -2
BITMAP
0200
0200
0200
0200
0200
FE00
0200
FE00
0000
0000
0000
0000
0000
ENDCHAR
STARTCHAR SF270000
ENCODING 9564
SWIDTH 960 0
DWIDTH 12 0
BBX 12 13 0 -2
BITMAP
0500
0500
0500
0500
0500
0500
FF00
0000
0000
0000
0000
0000
0000
ENDCHAR
STARTCHAR SF260000
ENCODING 9565
SWIDTH 960 0
DWIDTH 12 0
BBX 12 13 0 -2
BITMAP
0500
0500
0500
0500
0500
FD00
0100
FF00
0000
0000
0000
0000
0000
ENDCHAR
STARTCHAR SF360000
ENCODING 9566
SWIDTH 960 0
DWIDTH 12 0
BBX 12 13 0 -2
BITMAP
0200
0200
0200
0200
0200
03F0
0200
03F0
0200
0200
0200
0200
0200
ENDCHAR
STARTCHAR SF370000
ENCODING 9567
SWIDTH 960 0
DWIDTH 12 0
BBX 12 13 0 -2
BITMAP
0500
0500
0500
0500
0500
0500
05F0
0500
0500
0500
0500
0500
0500
ENDCHAR
STARTCHAR SF420000
ENCODING 9568
SWIDTH 960 0
DWIDTH 12 0
BBX 12 13 0 -2
BITMAP
0500
0500
0500
0500
0500
05F0
0400
05F0
0500
0500
0500
0500
0500
ENDCHAR
STARTCHAR SF190000
ENCODING 9569
SWIDTH 960 0
DWIDTH 12 0
BBX 12 13 0 -2
BITMAP
0200
0200
0200
0200
0200
FE00
0200
FE00
0200
0200
0200
0200
0200
ENDCHAR
STARTCHAR SF200000
ENCODING 9570
SWIDTH 960 0
DWIDTH 12 0
BBX 12 13 0 -2
BITMAP
0500
0500
0500
0500
0500
0500
FD00
0500
0500
0500
0500
0500
0500
ENDCHAR
STARTCHAR SF230000
ENCODING 9571
SWIDTH 960 0
DWIDTH 12 0
BBX 12 13 0 -2
BITMAP
0500
0500
0500
0500
0500
FD00
0100
FD00
0500
0500
0500
0500
0500
ENDCHAR
STARTCHAR SF470000
ENCODING 9572
SWIDTH 960 0
DWIDTH 12 0
BBX 12 13 0 -2
BITMAP
0000
0000
0000
0000
0000
FFF0
0000
FFF0
0200
0200
0200
0200
0200
ENDCHAR
STARTCHAR SF480000
ENCODING 9573
SWIDTH 960 0
DWIDTH 12 0
BBX 12 13 0 -2
BITMAP
0000
0000
0000
0000
0000
0000
FFF0
0500
0500
0500
0500
0500
0500
ENDCHAR
STARTCHAR SF410000
ENCODING 9574
SWIDTH 960 0
DWIDTH 12 0
BBX 12 13 0 -2
BITMAP
0000
0000
0000
0000
0000
FFF0
0000
FDF0
0500
0500
0500
0500
0500
ENDCHAR
STARTCHAR SF450000
ENCODING 9575
SWIDTH 960 0
DWIDTH 12 0
BBX 12 13 0 -2
BITMAP
0200
0200
0200
0200
0200
FFF0
0000
FFF0
0000
0000
0000
0000
0000
ENDCHAR
STARTCHAR SF460000
ENCODING 9576
SWIDTH 960 0
DWIDTH 12 0
BBX 12 13 0 -2
BITMAP
0500
0500
0500
0500
0500
0500
FFF0
0000
0000
0000
0000
0000
0000
ENDCHAR
STARTCHAR SF400000
ENCODING 9577
SWIDTH 960 0
DWIDTH 12 0
BBX 12 13 0 -2
BITMAP
0500
0500
0500
0500
0500
FDF0
0000
FFF0
0000
0000
0000
0000
0000
ENDCHAR
STARTCHAR SF540000
ENCODING 9578
SWIDTH 960 0
DWIDTH 12 0
BBX 12 13 0 -2
BITMAP
0200
0200
0200
0200
0200
FFF0
0200
FFF0
0200
0200
0200
0200
0200
ENDCHAR
STARTCHAR SF530000
ENCODING 9579
SWIDTH 960 0
DWIDTH 12 0
BBX 12 13 0 -2
BITMAP
0500
0500
0500
0500
0500
0500
FFF0
0500
0500
0500
0500
0500
0500
ENDCHAR
STARTCHAR SF440000
ENCODING 9580
SWIDTH 960 0
DWIDTH 12 0
BBX 12 13 0 -2
BITMAP
0500
0500
0500
0500
0500
FDF0
0000
FDF0
0500
0500
0500
0500
0500
ENDCHAR
STARTCHAR uni256D
ENCODING 9581
SWIDTH 960 0
DWIDTH 12 0
BBX 12 13 0 -2
BITMAP
0000
0000
0000
0000
0000
0000
0070
0080
0100
0200
0200
0200
0200
ENDCHAR
STARTCHAR uni256E
ENCODING 9582
SWIDTH 960 0
DWIDTH 12 0
BBX 12 13 0 -2
BITMAP
0000
0000
0000
0000
0000
0000
F000
0800
0400
0200
0200
0200
0200
ENDCHAR
STARTCHAR uni256F
ENCODING 9583
SWIDTH 960 0
DWIDTH 12 0
BBX 12 13 0 -2
BITMAP
0200
0200
0200
0200
0400
0800
F000
0000
0000
0000
0000
0000
0000
ENDCHAR
STARTCHAR uni2570
ENCODING 9584
SWIDTH 960 0
DWIDTH 12 0
BBX 12 13 0 -2
BITMAP
0200
0200
0200
0200
0100
0080
0070
0000
0000
0000
0000
0000
0000
ENDCHAR
STARTCHAR uni2571
ENCODING 9585
SWIDTH 960 0
DWIDTH 12 0
BBX 12 13 0 -2
BITMAP
0010
0020
0040
0080
0100
0200
0200
0400
0800
1000
2000
4000
8000
ENDCHAR
STARTCHAR uni2572
ENCODING 9586
SWIDTH 960 0
DWIDTH 12 0
BBX 12 13 0 -2
BITMAP
8000
4000
2000
1000
0800
0400
0400
0200
0100
0080
0040
0020
0010
ENDCHAR
STARTCHAR uni2573
ENCODING 9587
SWIDTH 960 0
DWIDTH 12 0
BBX 12 13 0 -2
BITMAP
8010
4020
2040
1080
0900
0600
0600
0600
0900
1080
2040
4020
8010
ENDCHAR
STARTCHAR upblock
ENCODING 9600
SWIDTH 960 0
DWIDTH 12 0
BBX 12 13 0 -2
BITMAP
FFF0
FFF0
FFF0
FFF0
FFF0
FFF0
0000
0000
0000
0000
0000
0000
0000
ENDCHAR
STARTCHAR uni2581
ENCODING 9601
SWIDTH 960 0
DWIDTH 12 0
BBX 12 13 0 -2
BITMAP
0000
0000
0000
0000
0000
0000
0000
0000
0000
0000
0000
FFF0
FFF0
ENDCHAR
STARTCHAR uni2582
ENCODING 9602
SWIDTH 960 0
DWIDTH 12 0
BBX 12 13 0 -2
BITMAP
0000
0000
0000
0000
0000
0000
0000
0000
0000
0000
FFF0
FFF0
FFF0
ENDCHAR
STARTCHAR uni2583
ENCODING 9603
SWIDTH 960 0
DWIDTH 12 0
BBX 12 13 0 -2
BITMAP
0000
0000
0000
0000
0000
0000
0000
0000
FFF0
FFF0
FFF0
FFF0
FFF0
ENDCHAR
STARTCHAR dnblock
ENCODING 9604
SWIDTH 960 0
DWIDTH 12 0
BBX 12 13 0 -2
BITMAP
0000
0000
0000
0000
0000
0000
FFF0
FFF0
FFF0
FFF0
FFF0
FFF0
FFF0
ENDCHAR
STARTCHAR uni2585
ENCODING 9605
SWIDTH 960 0
DWIDTH 12 0
BBX 12 13 0 -2
BITMAP
0000
0000
0000
0000
0000
FFF0
FFF0
FFF0
FFF0
FFF0
FFF0
FFF0
FFF0
ENDCHAR
STARTCHAR uni2586
ENCODING 9606
SWIDTH 960 0
DWIDTH 12 0
BBX 12 13 0 -2
BITMAP
0000
0000
0000
FFF0
FFF0
FFF0
FFF0
FFF0
FFF0
FFF0
FFF0
FFF0
FFF0
ENDCHAR
STARTCHAR uni2587
ENCODING 9607
SWIDTH 960 0
DWIDTH 12 0
BBX 12 13 0 -2
BITMAP
0000
0000
FFF0
FFF0
FFF0
FFF0
FFF0
FFF0
FFF0
FFF0
FFF0
FFF0
FFF0
ENDCHAR
STARTCHAR block
ENCODING 9608
SWIDTH 960 0
DWIDTH 12 0
BBX 12 13 0 -2
BITMAP
FFF0
FFF0
FFF0
FFF0
FFF0
FFF0
FFF0
FFF0
FFF0
FFF0
FFF0
FFF0
FFF0
ENDCHAR
STARTCHAR uni2589
ENCODING 9609
SWIDTH 960 0
DWIDTH 12 0
BBX 12 13 0 -2
BITMAP
FFE0
FFE0
FFE0
FFE0
FFE0
FFE0
FFE0
FFE0
FFE0
FFE0
FFE0
FFE0
FFE0
ENDCHAR
STARTCHAR uni258A
ENCODING 9610
SWIDTH 960 0
DWIDTH 12 0
BBX 12 13 0 -2
BITMAP
FF80
FF80
FF80
FF80
FF80
FF80
FF80
FF80
FF80
FF80
FF80
FF80
FF80
ENDCHAR
STARTCHAR uni258B
ENCODING 9611
SWIDTH 960 0
DWIDTH 12 0
BBX 12 13 0 -2
BITMAP
FF00
FF00
FF00
FF00
FF00
FF00
FF00
FF00
FF00
FF00
FF00
FF00
FF00
ENDCHAR
STARTCHAR lfblock
ENCODING 9612
SWIDTH 960 0
DWIDTH 12 0
BBX 12 13 0 -2
BITMAP
FC00
FC00
FC00
FC00
FC00
FC00
FC00
FC00
FC00
FC00
FC00
FC00
FC00
ENDCHAR
STARTCHAR uni258D
ENCODING 9613
SWIDTH 960 0
DWIDTH 12 0
BBX 12 13 0 -2
BITMAP
F000
F000
F000
F000
F000
F000
F000
F000
F000
F000
F000
F000
F000
ENDCHAR
STARTCHAR uni258E
ENCODING 9614
SWIDTH 960 0
DWIDTH 12 0
BBX 12 13 0 -2
BITMAP
E000
E000
E000
E000
E000
E000
E000
E000
E000
E000
E000
E000
E000
ENDCHAR
STARTCHAR uni258F
ENCODING 9615
SWIDTH 960 0
DWIDTH 12 0
BBX 12 13 0 -2
BITMAP
8000
8000
8000
8000
8000
8000
8000
8000
8000
8000
8000
8000
8000
ENDCHAR
STARTCHAR rtblock
ENCODING 9616
SWIDTH 960 0
DWIDTH 12 0
BBX 12 13 0 -2
BITMAP
03F0
03F0
03F0
03F0
03F0
03F0
03F0
03F0
03F0
03F0
03F0
03F0
03F0
ENDCHAR
STARTCHAR ltshade
ENCODING 9617
SWIDTH 960 0
DWIDTH 12 0
BBX 12 13 0 -2
BITMAP
AAA0
0000
5550
0000
AAA0
0000
5550
0000
AAA0
0000
5550
0000
AAA0
ENDCHAR
STARTCHAR shade
ENCODING 9618
SWIDTH 960 0
DWIDTH 12 0
BBX 12 13 0 -2
BITMAP
AAA0
5550
AAA0
5550
AAA0
5550
AAA0
5550
AAA0
5550
AAA0
5550
AAA0
ENDCHAR
STARTCHAR dkshade
ENCODING 9619
SWIDTH 960 0
DWIDTH 12 0
BBX 12 13 0 -2
BITMAP
5550
FFF0
AAA0
FFF0
5550
FFF0
AAA0
FFF0
5550
FFF0
AAA0
FFF0
5550
ENDCHAR
STARTCHAR uni2594
ENCODING 9620
SWIDTH 960 0
DWIDTH 12 0
BBX 12 13 0 -2
BITMAP
FFF0
FFF0
0000
0000
0000
0000
0000
0000
0000
0000
0000
0000
0000
ENDCHAR
STARTCHAR uni2595
ENCODING 9621
SWIDTH 960 0
DWIDTH 12 0
BBX 12 13 0 -2
BITMAP
0010
0010
0010
0010
0010
0010
0010
0010
0010
0010
0010
0010
0010
ENDCHAR
STARTCHAR filledbox
ENCODING 9632
SWIDTH 960 0
DWIDTH 12 0
BBX 12 13 0 -2
BITMAP
0000
7FE0
7FE0
7FE0
7FE0
7FE0
7FE0
7FE0
7FE0
7FE0
7FE0
0000
0000
ENDCHAR
STARTCHAR H22073
ENCODING 9633
SWIDTH 960 0
DWIDTH 12 0
BBX 12 13 0 -2
BITMAP
0000
7FE0
4020
4020
4020
4020
4020
4020
4020
4020
7FE0
0000
0000
ENDCHAR
STARTCHAR H18543
ENCODING 9642
SWIDTH 960 0
DWIDTH 12 0
BBX 12 13 0 -2
BITMAP
0000
0000
0000
1F80
1F80
1F80
1F80
1F80
1F80
0000
0000
0000
0000
ENDCHAR
STARTCHAR H18551
ENCODING 9643
SWIDTH 960 0
DWIDTH 12 0
BBX 12 13 0 -2
BITMAP
0000
0000
0000
1F80
1080
1080
1080
1080
1F80
0000
0000
0000
0000
ENDCHAR
STARTCHAR filledrect
ENCODING 9644
SWIDTH 960 0
DWIDTH 12 0
BBX 12 13 0 -2
BITMAP
0000
0000
0000
7FE0
7FE0
7FE0
7FE0
7FE0
7FE0
0000
0000
0000
0000
ENDCHAR
STARTCHAR uni25AD
ENCODING 9645
SWIDTH 960 0
DWIDTH 12 0
BBX 12 13 0 -2
BITMAP
0000
0000
0000
7FE0
4020
4020
4020
4020
7FE0
0000
0000
0000
0000
ENDCHAR
STARTCHAR uni25AE
ENCODING 9646
SWIDTH 960 0
DWIDTH 12 0
BBX 12 13 0 -2
BITMAP
0000
1F80
1F80
1F80
1F80
1F80
1F80
1F80
1F80
1F80
1F80
0000
0000
ENDCHAR
STARTCHAR triagup
ENCODING 9650
SWIDTH 960 0
DWIDTH 12 0
BBX 12 13 0 -2
BITMAP
0000
0000
0400
0400
0E00
1F00
1F00
3F80
3F80
7FC0
7FC0
0000
0000
ENDCHAR
STARTCHAR uni25B3
ENCODING 9651
SWIDTH 960 0
DWIDTH 12 0
BBX 12 13 0 -2
BITMAP
0000
0000
0400
0400
0A00
1100
1100
2080
2080
4040
7FC0
0000
0000
ENDCHAR
STARTCHAR uni25B6
ENCODING 9654
SWIDTH 960 0
DWIDTH 12 0
BBX 12 13 0 -2
BITMAP
0000
0000
6000
7800
7E00
7F00
7FC0
7F00
7E00
7800
6000
0000
0000
ENDCHAR
STARTCHAR uni25B7
ENCODING 9655
SWIDTH 960 0
DWIDTH 12 0
BBX 12 13 0 -2
BITMAP
0000
0000
6000
5800
4600
4100
40C0
4100
4600
5800
6000
0000
0000
ENDCHAR
STARTCHAR triagrt
ENCODING 9658
SWIDTH 960 0
DWIDTH 12 0
BBX 12 13 0 -2
BITMAP
0000
0000
0000
6000
7C00
7F80
7FE0
7F80
7C00
6000
0000
0000
0000
ENDCHAR
STARTCHAR uni25BB
ENCODING 9659
SWIDTH 960 0
DWIDTH 12 0
BBX 12 13 0 -2
BITMAP
0000
0000
0000
6000
5C00
4380
4060
4380
5C00
6000
0000
0000
0000
ENDCHAR
STARTCHAR triagdn
ENCODING 9660
SWIDTH 960 0
DWIDTH 12 0
BBX 12 13 0 -2
BITMAP
0000
0000
7FC0
7FC0
3F80
3F80
1F00
1F00
0E00
0E00
0400
0000
0000
ENDCHAR
STARTCHAR uni25BD
ENCODING 9661
SWIDTH 960 0
DWIDTH 12 0
BBX 12 13 0 -2
BITMAP
0000
0000
7FC0
4040
2080
2080
1100
1100
0A00
0E00
0400
0000
0000
ENDCHAR
STARTCHAR uni25C0
ENCODING 9664
SWIDTH 960 0
DWIDTH 12 0
BBX 12 13 0 -2
BITMAP
0000
0000
00C0
03C0
0FC0
1FC0
7FC0
1FC0
0FC0
03C0
00C0
0000
0000
ENDCHAR
STARTCHAR uni25C1
ENCODING 9665
SWIDTH 960 0
DWIDTH 12 0
BBX 12 13 0 -2
BITMAP
0000
0000
00C0
0340
0C40
1040
6040
1040
0C40
0340
00C0
0000
0000
ENDCHAR
STARTCHAR triaglf
ENCODING 9668
SWIDTH 960 0
DWIDTH 12 0
BBX 12 13 0 -2
BITMAP
0000
0000
0000
0060
03E0
1FE0
7FE0
1FE0
03E0
0060
0000
0000
0000
ENDCHAR
STARTCHAR uni25C5
ENCODING 9669
SWIDTH 960 0
DWIDTH 12 0
BBX 12 13 0 -2
BITMAP
0000
0000
0000
0060
03A0
1C20
6020
1C20
03A0
0060
0000
0000
0000
ENDCHAR
STARTCHAR uni25C6
ENCODING 9670
SWIDTH 960 0
DWIDTH 12 0
BBX 12 13 0 -2
BITMAP
0000
0400
0E00
1F00
3F80
7FC0
FFE0
7FC0
3F80
1F00
0E00
0400
0000
ENDCHAR
STARTCHAR uni25C7
ENCODING 9671
SWIDTH 960 0
DWIDTH 12 0
BBX 12 13 0 -2
BITMAP
0000
0400
0A00
1100
2080
4040
8020
4040
2080
1100
0A00
0400
0000
ENDCHAR
STARTCHAR lozenge
ENCODING 9674
SWIDTH 960 0
DWIDTH 12 0
BBX 12 13 0 -2
BITMAP
0000
0400
0400
0E00
0E00
1F00
1F00
0E00
0E00
0400
0400
0000
0000
ENDCHAR
STARTCHAR circle
ENCODING 9675
SWIDTH 960 0
DWIDTH 12 0
BBX 12 13 0 -2
BITMAP
0000
0000
0E00
1100
2080
4040
4040
4040
2080
1100
0E00
0000
0000
ENDCHAR
STARTCHAR uni25CC
ENCODING 9676
SWIDTH 960 0
DWIDTH 12 0
BBX 12 13 0 -2
BITMAP
0000
0000
0A00
0000
2080
0000
4040
0000
2080
0000
0A00
0000
0000
ENDCHAR
STARTCHAR uni25CE
ENCODING 9678
SWIDTH 960 0
DWIDTH 12 0
BBX 12 13 0 -2
BITMAP
0000
0000
0E00
1100
2E80
5140
5140
5140
2E80
1100
0E00
0000
0000
ENDCHAR
STARTCHAR H18533
ENCODING 9679
SWIDTH 960 0
DWIDTH 12 0
BBX 12 13 0 -2
BITMAP
0000
0000
0E00
3F80
3F80
7FC0
7FC0
7FC0
3F80
3F80
0E00
0000
0000
ENDCHAR
STARTCHAR invbullet
ENCODING 9688
SWIDTH 960 0
DWIDTH 12 0
BBX 12 13 0 -2
BITMAP
FFF0
FFF0
FFF0
F1F0
E0F0
C070
C070
C070
E0F0
F1F0
FFF0
FFF0
FFF0
ENDCHAR
STARTCHAR invcircle
ENCODING 9689
SWIDTH 960 0
DWIDTH 12 0
BBX 12 13 0 -2
BITMAP
FFF0
FFF0
F1F0
EEF0
DF70
BFB0
BFB0
BFB0
DF70
EEF0
F1F0
FFF0
FFF0
ENDCHAR
STARTCHAR openbullet
ENCODING 9702
SWIDTH 960 0
DWIDTH 12 0
BBX 12 13 0 -2
BITMAP
0000
0000
0000
0000
0E00
1100
1100
1100
0E00
0000
0000
0000
0000
ENDCHAR
STARTCHAR uni25EF
ENCODING 9711
SWIDTH 960 0
DWIDTH 12 0
BBX 12 13 0 -2
BITMAP
0000
1F00
2080
4040
8020
8020
8020
8020
8020
4040
2080
1F00
0000
ENDCHAR
STARTCHAR uni2605
ENCODING 9733
SWIDTH 960 0
DWIDTH 12 0
BBX 12 13 0 -2
BITMAP
0000
0400
0400
0E00
FFE0
7FC0
3F00
1F00
3F80
3B80
60C0
0000
0000
ENDCHAR
STARTCHAR uni2606
ENCODING 9734
SWIDTH 960 0
DWIDTH 12 0
BBX 12 13 0 -2
BITMAP
0000
0400
0400
0A00
F1E0
60C0
3180
1500
2E80
3180
60C0
0000
0000
ENDCHAR
STARTCHAR uni2639
ENCODING 9785
SWIDTH 960 0
DWIDTH 12 0
BBX 12 13 0 -2
BITMAP
0000
0000
1F80
2040
59A0
59A0
4020
4F20
50A0
2040
1F80
0000
0000
ENDCHAR
STARTCHAR smileface
ENCODING 9786
SWIDTH 960 0
DWIDTH 12 0
BBX 12 13 0 -2
BITMAP
0000
0000
1F80
2040
59A0
59A0
4020
50A0
4F20
2040
1F80
0000
0000
ENDCHAR
STARTCHAR invsmileface
ENCODING 9787
SWIDTH 960 0
DWIDTH 12 0
BBX 12 13 0 -2
BITMAP
0000
0000
1F80
3FC0
6660
6660
7FE0
6F60
70E0
3FC0
1F80
0000
0000
ENDCHAR
STARTCHAR sun
ENCODING 9788
SWIDTH 960 0
DWIDTH 12 0
BBX 12 13 0 -2
BITMAP
0000
0400
4440
2E80
1100
2080
E0E0
2080
1100
2E80
4440
0400
0000
ENDCHAR
STARTCHAR female
ENCODING 9792
SWIDTH 960 0
DWIDTH 12 0
BBX 12 13 0 -2
BITMAP
0000
0E00
1100
2080
2080
1100
0E00
0400
0400
3F80
0400
0400
0000
ENDCHAR
STARTCHAR uni2641
ENCODING 9793
SWIDTH 960 0
DWIDTH 12 0
BBX 12 13 0 -2
BITMAP
0000
0400
0400
3F80
0400
0400
0E00
1100
2080
2080
1100
0E00
0000
ENDCHAR
STARTCHAR male
ENCODING 9794
SWIDTH 960 0
DWIDTH 12 0
BBX 12 13 0 -2
BITMAP
0000
07E0
0060
00A0
0120
1A20
2420
4200
4200
2400
1800
0000
0000
ENDCHAR
STARTCHAR spade
ENCODING 9824
SWIDTH 960 0
DWIDTH 12 0
BBX 12 13 0 -2
BITMAP
0000
0400
0400
0E00
1F00
3F80
7FC0
7FC0
3580
0400
1F00
0000
0000
ENDCHAR
STARTCHAR uni2661
ENCODING 9825
SWIDTH 960 0
DWIDTH 12 0
BBX 12 13 0 -2
BITMAP
0000
0000
3180
4A40
8420
8020
4040
2080
1100
0A00
0400
0000
0000
ENDCHAR
STARTCHAR uni2662
ENCODING 9826
SWIDTH 960 0
DWIDTH 12 0
BBX 12 13 0 -2
BITMAP
0000
0400
0A00
1100
2080
4040
4040
2080
1100
0A00
0400
0000
0000
ENDCHAR
STARTCHAR club
ENCODING 9827
SWIDTH 960 0
DWIDTH 12 0
BBX 12 13 0 -2
BITMAP
0000
0400
0E00
0E00
0E00
3580
7FC0
7FC0
3580
0400
1F00
0000
0000
ENDCHAR
STARTCHAR uni2664
ENCODING 9828
SWIDTH 960 0
DWIDTH 12 0
BBX 12 13 0 -2
BITMAP
0000
0400
0400
0A00
1100
2080
4040
4E40
3580
0400
1F00
0000
0000
ENDCHAR
STARTCHAR heart
ENCODING 9829
SWIDTH 960 0
DWIDTH 12 0
BBX 12 13 0 -2
BITMAP
0000
0000
3180
7BC0
FFE0
FFE0
7FC0
3F80
1F00
0E00
0400
0000
0000
ENDCHAR
STARTCHAR diamond
ENCODING 9830
SWIDTH 960 0
DWIDTH 12 0
BBX 12 13 0 -2
BITMAP
0000
0400
0E00
1F00
3F80
7FC0
7FC0
3F80
1F00
0E00
0400
0000
0000
ENDCHAR
STARTCHAR uni2667
ENCODING 9831
SWIDTH 960 0
DWIDTH 12 0
BBX 12 13 0 -2
BITMAP
0000
0400
0A00
0A00
0A00
3580
4E40
4E40
3580
0400
1F00
0000
0000
ENDCHAR
STARTCHAR uni2669
ENCODING 9833
SWIDTH 960 0
DWIDTH 12 0
BBX 12 13 0 -2
BITMAP
0200
0200
0200
0200
0200
0200
0200
0200
0E00
1E00
1C00
0000
0000
ENDCHAR
STARTCHAR musicalnote
ENCODING 9834
SWIDTH 960 0
DWIDTH 12 0
BBX 12 13 0 -2
BITMAP
0400
0600
0700
0580
0580
0480
0480
0500
1C00
3C00
3800
0000
0000
ENDCHAR
STARTCHAR musicalnotedbl
ENCODING 9835
SWIDTH 960 0
DWIDTH 12 0
BBX 12 13 0 -2
BITMAP
0000
0060
03E0
0FA0
0C20
0820
0820
08E0
09E0
39C0
7800
7000
0000
ENDCHAR
STARTCHAR uni266C
ENCODING 9836
SWIDTH 960 0
DWIDTH 12 0
BBX 12 13 0 -2
BITMAP
0000
0060
03A0
0C60
0BA0
0C20
0820
08E0
09E0
39C0
7800
7000
0000
ENDCHAR
STARTCHAR uni266D
ENCODING 9837
SWIDTH 960 0
DWIDTH 12 0
BBX 12 13 0 -2
BITMAP
0000
1000
1000
1000
1000
1700
1980
1100
1200
1400
1800
0000
0000
ENDCHAR
STARTCHAR uni266E
ENCODING 9838
SWIDTH 960 0
DWIDTH 12 0
BBX 12 13 0 -2
BITMAP
0000
0800
0900
0B00
0F00
0D00
0900
0B00
0F00
0D00
0900
0100
0000
ENDCHAR
STARTCHAR uni266F
ENCODING 9839
SWIDTH 960 0
DWIDTH 12 0
BBX 12 13 0 -2
BITMAP
0000
0100
09C0
0FC0
3F00
3900
0900
09C0
0FC0
3F00
3900
0800
0000
ENDCHAR
STARTCHAR uni3000
ENCODING 12288
SWIDTH 960 0
DWIDTH 12 0
BBX 12 13 0 -2
BITMAP
0000
0000
0000
0000
0000
0000
0000
0000
0000
0000
0000
0000
0000
ENDCHAR
STARTCHAR uni3001
ENCODING 12289
SWIDTH 960 0
DWIDTH 12 0
BBX 12 13 0 -2
BITMAP
0000
0000
0000
0000
0000
0000
0000
0000
4000
2000
3000
1000
0000
ENDCHAR
STARTCHAR uni3002
ENCODING 12290
SWIDTH 960 0
DWIDTH 12 0
BBX 12 13 0 -2
BITMAP
0000
0000
0000
0000
0000
0000
0000
0000
3000
4800
4800
3000
0000
ENDCHAR
STARTCHAR uni3003
ENCODING 12291
SWIDTH 960 0
DWIDTH 12 0
BBX 12 13 0 -2
BITMAP
0000
0000
0000
0880
0880
0880
1100
1100
2200
0000
0000
0000
0000
ENDCHAR
STARTCHAR uni3005
ENCODING 12293
SWIDTH 960 0
DWIDTH 12 0
BBX 12 13 0 -2
BITMAP
0000
0000
0000
0800
0800
0F80
1100
1100
2200
0600
0300
0100
0000
ENDCHAR
ENDFONT
